<?xml version="1.0" encoding="UTF-8" standalone="no"?>
<!DOCTYPE svg PUBLIC "-//W3C//DTD SVG 1.1//EN" "http://www.w3.org/Graphics/SVG/1.1/DTD/svg11.dtd">
<svg version="1.1" xmlns="http://www.w3.org/2000/svg" xmlns:xlink="http://www.w3.org/1999/xlink" preserveAspectRatio="xMidYMid meet" viewBox="0 0 561 1119.2" width="561" height="1119.2"><defs><path d="M369.37 1009.77C369.37 1004.14 373.94 999.57 379.58 999.57C385.23 999.57 389.8 1004.14 389.8 1009.77C389.8 1015.39 385.23 1019.97 379.58 1019.97C373.94 1019.97 369.37 1015.41 369.37 1009.77Z" id="a4cEk0T7FF"></path><path d="M372.54 1017.15L365.31 1024.35" id="a2S0TXcQX"></path><path d="M409.66 276.05L398.92 286.78" id="cwkySXxU7"></path><path d="M409.66 286.78L398.92 276.05" id="ih5UhwibX"></path><path d="M156.19 891.36L145.44 902.09" id="epmsNdy48"></path><path d="M156.19 902.09L145.44 891.36" id="b1dAEJX9H7"></path><path d="M61.69 304.86L46.49 304.86" id="f9tbjGI3zD"></path><path d="M54.09 312.47L54.09 297.27" id="bZG03JpQc"></path><path d="M303.33 90.67C303.33 85.59 307.46 81.45 312.57 81.45C317.66 81.45 321.81 85.57 321.81 90.67C321.79 95.77 317.66 99.9 312.57 99.9C307.48 99.9 303.33 95.77 303.33 90.67Z" id="b29LVtg540"></path><path d="M542.52 633.6C542.52 628.52 546.65 624.38 551.76 624.38C556.85 624.38 561 628.5 561 633.6C560.98 638.7 556.85 642.83 551.76 642.83C546.67 642.83 542.52 638.7 542.52 633.6Z" id="b6vJOi7s2"></path><path d="M0 768.95C0 763.86 4.13 759.72 9.23 759.72C14.32 759.72 18.47 763.84 18.47 768.95C18.45 774.05 14.32 778.17 9.23 778.17C4.14 778.17 0 774.05 0 768.95Z" id="c1UTEPW7BG"></path><path d="M188.47 6.69C190.32 6.69 191.82 5.19 191.82 3.35C191.82 1.5 190.32 0 188.47 0C186.62 0 185.13 1.5 185.13 3.35C185.13 5.19 186.62 6.69 188.47 6.69Z" id="c2Hua3Xi4y"></path><path d="M188.47 30.03C190.32 30.03 191.82 28.53 191.82 26.68C191.82 24.84 190.32 23.34 188.47 23.34C186.62 23.34 185.13 24.84 185.13 26.68C185.13 28.53 186.62 30.03 188.47 30.03Z" id="m4iqjxSZy"></path><path d="M188.47 53.35C190.32 53.35 191.82 51.85 191.82 50.01C191.82 48.16 190.32 46.66 188.47 46.66C186.62 46.66 185.13 48.16 185.13 50.01C185.13 51.85 186.62 53.35 188.47 53.35Z" id="deCQoAgVp"></path><path d="M188.47 76.69C190.32 76.69 191.82 75.19 191.82 73.34C191.82 71.5 190.32 70 188.47 70C186.62 70 185.13 71.5 185.13 73.34C185.13 75.19 186.62 76.69 188.47 76.69Z" id="e8BcaoWKo"></path><path d="M188.47 100.01C190.32 100.01 191.82 98.51 191.82 96.66C191.82 94.82 190.32 93.32 188.47 93.32C186.62 93.32 185.13 94.82 185.13 96.66C185.13 98.51 186.62 100.01 188.47 100.01Z" id="gb4BnkwmA"></path><path d="M188.47 123.34C190.32 123.34 191.82 121.85 191.82 120C191.82 118.16 190.32 116.66 188.47 116.66C186.62 116.66 185.13 118.16 185.13 120C185.13 121.85 186.62 123.34 188.47 123.34Z" id="a35hmYwXRI"></path><path d="M165.12 6.69C166.97 6.69 168.47 5.19 168.47 3.35C168.47 1.5 166.97 0 165.12 0C163.27 0 161.77 1.5 161.77 3.35C161.77 5.19 163.27 6.69 165.12 6.69Z" id="bZCaDQlm"></path><path d="M165.12 30.03C166.97 30.03 168.47 28.53 168.47 26.68C168.47 24.84 166.97 23.34 165.12 23.34C163.27 23.34 161.77 24.84 161.77 26.68C161.77 28.53 163.27 30.03 165.12 30.03Z" id="bsEhys9wg"></path><path d="M165.12 53.35C166.97 53.35 168.47 51.85 168.47 50.01C168.47 48.16 166.97 46.66 165.12 46.66C163.27 46.66 161.77 48.16 161.77 50.01C161.77 51.85 163.27 53.35 165.12 53.35Z" id="e177pz2wIm"></path><path d="M165.12 76.69C166.97 76.69 168.47 75.19 168.47 73.34C168.47 71.5 166.97 70 165.12 70C163.27 70 161.77 71.5 161.77 73.34C161.77 75.19 163.27 76.69 165.12 76.69Z" id="hpwoHufAA"></path><path d="M165.12 100.01C166.97 100.01 168.47 98.51 168.47 96.66C168.47 94.82 166.97 93.32 165.12 93.32C163.27 93.32 161.77 94.82 161.77 96.66C161.77 98.51 163.27 100.01 165.12 100.01Z" id="c46FzfhtZ"></path><path d="M165.12 123.34C166.97 123.34 168.47 121.85 168.47 120C168.47 118.16 166.97 116.66 165.12 116.66C163.27 116.66 161.77 118.16 161.77 120C161.77 121.85 163.27 123.34 165.12 123.34Z" id="khulWc0wY"></path><path d="M141.75 6.69C143.6 6.69 145.09 5.19 145.09 3.35C145.09 1.5 143.6 0 141.75 0C139.9 0 138.4 1.5 138.4 3.35C138.4 5.19 139.9 6.69 141.75 6.69Z" id="a9h7xhrbfV"></path><path d="M141.75 30.03C143.6 30.03 145.09 28.53 145.09 26.68C145.09 24.84 143.6 23.34 141.75 23.34C139.9 23.34 138.4 24.84 138.4 26.68C138.4 28.53 139.9 30.03 141.75 30.03Z" id="arxndXNy"></path><path d="M141.75 53.35C143.6 53.35 145.09 51.85 145.09 50.01C145.09 48.16 143.6 46.66 141.75 46.66C139.9 46.66 138.4 48.16 138.4 50.01C138.4 51.85 139.9 53.35 141.75 53.35Z" id="be4bEDFWP"></path><path d="M141.75 76.69C143.6 76.69 145.09 75.19 145.09 73.34C145.09 71.5 143.6 70 141.75 70C139.9 70 138.4 71.5 138.4 73.34C138.4 75.19 139.9 76.69 141.75 76.69Z" id="a1SYsbQ49I"></path><path d="M141.75 100.01C143.6 100.01 145.09 98.51 145.09 96.66C145.09 94.82 143.6 93.32 141.75 93.32C139.9 93.32 138.4 94.82 138.4 96.66C138.4 98.51 139.9 100.01 141.75 100.01Z" id="g1fI8PEje"></path><path d="M141.75 123.34C143.6 123.34 145.09 121.85 145.09 120C145.09 118.16 143.6 116.66 141.75 116.66C139.9 116.66 138.4 118.16 138.4 120C138.4 121.85 139.9 123.34 141.75 123.34Z" id="l1YroyG566"></path><path d="M118.4 6.69C120.24 6.69 121.74 5.19 121.74 3.35C121.74 1.5 120.24 0 118.4 0C116.55 0 115.05 1.5 115.05 3.35C115.05 5.19 116.55 6.69 118.4 6.69Z" id="fkz9QbUjj"></path><path d="M118.4 30.03C120.24 30.03 121.74 28.53 121.74 26.68C121.74 24.84 120.24 23.34 118.4 23.34C116.55 23.34 115.05 24.84 115.05 26.68C115.05 28.53 116.55 30.03 118.4 30.03Z" id="bN9e1i8Zj"></path><path d="M118.4 53.35C120.24 53.35 121.74 51.85 121.74 50.01C121.74 48.16 120.24 46.66 118.4 46.66C116.55 46.66 115.05 48.16 115.05 50.01C115.05 51.85 116.55 53.35 118.4 53.35Z" id="b4aPuzndVb"></path><path d="M118.4 76.69C120.24 76.69 121.74 75.19 121.74 73.34C121.74 71.5 120.24 70 118.4 70C116.55 70 115.05 71.5 115.05 73.34C115.05 75.19 116.55 76.69 118.4 76.69Z" id="a3oueFe90"></path><path d="M118.4 100.01C120.24 100.01 121.74 98.51 121.74 96.66C121.74 94.82 120.24 93.32 118.4 93.32C116.55 93.32 115.05 94.82 115.05 96.66C115.05 98.51 116.55 100.01 118.4 100.01Z" id="b7g8WbYB9"></path><path d="M118.4 123.34C120.24 123.34 121.74 121.85 121.74 120C121.74 118.16 120.24 116.66 118.4 116.66C116.55 116.66 115.05 118.16 115.05 120C115.05 121.85 116.55 123.34 118.4 123.34Z" id="b1vw6Ethb1"></path><path d="M421.55 776.52C423.39 776.52 424.89 775.02 424.89 773.18C424.89 771.33 423.39 769.84 421.55 769.84C419.7 769.84 418.2 771.33 418.2 773.18C418.2 775.02 419.7 776.52 421.55 776.52Z" id="g14ujgU7qK"></path><path d="M421.55 799.84C423.39 799.84 424.89 798.34 424.89 796.5C424.89 794.65 423.39 793.16 421.55 793.16C419.7 793.16 418.2 794.65 418.2 796.5C418.2 798.34 419.7 799.84 421.55 799.84Z" id="a499R7Ix1k"></path><path d="M421.55 823.18C423.39 823.18 424.89 821.68 424.89 819.84C424.89 817.99 423.39 816.49 421.55 816.49C419.7 816.49 418.2 817.99 418.2 819.84C418.2 821.68 419.7 823.18 421.55 823.18Z" id="b68qGdlBU"></path><path d="M398.18 776.52C400.02 776.52 401.52 775.02 401.52 773.18C401.52 771.33 400.02 769.84 398.18 769.84C396.33 769.84 394.83 771.33 394.83 773.18C394.83 775.02 396.33 776.52 398.18 776.52Z" id="a1qHIqb9SM"></path><path d="M398.18 799.84C400.02 799.84 401.52 798.34 401.52 796.5C401.52 794.65 400.02 793.16 398.18 793.16C396.33 793.16 394.83 794.65 394.83 796.5C394.83 798.34 396.33 799.84 398.18 799.84Z" id="aMGvAWkjZ"></path><path d="M398.18 823.18C400.02 823.18 401.52 821.68 401.52 819.84C401.52 817.99 400.02 816.49 398.18 816.49C396.33 816.49 394.83 817.99 394.83 819.84C394.83 821.68 396.33 823.18 398.18 823.18Z" id="aGuwnsTy1"></path><path d="M543.73 264.25C545.58 264.25 547.08 262.75 547.08 260.91C547.08 259.06 545.58 257.56 543.73 257.56C541.88 257.56 540.39 259.06 540.39 260.91C540.39 262.75 541.88 264.25 543.73 264.25Z" id="j494Mimyk2"></path><path d="M543.73 287.57C545.58 287.57 547.08 286.07 547.08 284.23C547.08 282.38 545.58 280.88 543.73 280.88C541.88 280.88 540.39 282.38 540.39 284.23C540.39 286.07 541.88 287.57 543.73 287.57Z" id="i9HTYfC2b"></path><path d="M543.73 310.9C545.58 310.9 547.08 309.41 547.08 307.56C547.08 305.72 545.58 304.22 543.73 304.22C541.88 304.22 540.39 305.72 540.39 307.56C540.39 309.41 541.88 310.9 543.73 310.9Z" id="a3Ymg0tQ3"></path><path d="M520.36 264.25C522.21 264.25 523.71 262.75 523.71 260.9C523.71 259.06 522.21 257.56 520.36 257.56C518.51 257.56 517.01 259.06 517.01 260.9C517.01 262.75 518.51 264.25 520.36 264.25Z" id="ar3i1eeY"></path><path d="M520.36 287.57C522.21 287.57 523.71 286.07 523.71 284.23C523.71 282.38 522.21 280.88 520.36 280.88C518.51 280.88 517.01 282.38 517.01 284.23C517.01 286.07 518.51 287.57 520.36 287.57Z" id="a3mcNJS0KB"></path><path d="M520.36 310.91C522.21 310.91 523.71 309.41 523.71 307.57C523.71 305.72 522.21 304.22 520.36 304.22C518.51 304.22 517.01 305.72 517.01 307.57C517.01 309.41 518.51 310.91 520.36 310.91Z" id="g9wJVIqmlr"></path><path d="M188.47 1119.2C190.32 1119.2 191.82 1117.7 191.82 1115.86C191.82 1114.01 190.32 1112.52 188.47 1112.52C186.62 1112.52 185.13 1114.01 185.13 1115.86C185.13 1117.7 186.62 1119.2 188.47 1119.2Z" id="a1FCNBxfMd"></path><path d="M165.1 1119.2C166.95 1119.2 168.45 1117.7 168.45 1115.86C168.45 1114.01 166.95 1112.52 165.1 1112.52C163.25 1112.52 161.76 1114.01 161.76 1115.86C161.76 1117.7 163.25 1119.2 165.1 1119.2Z" id="g6z6k7W4dQ"></path><path d="M141.75 1119.2C143.6 1119.2 145.1 1117.7 145.1 1115.86C145.1 1114.01 143.6 1112.52 141.75 1112.52C139.9 1112.52 138.4 1114.01 138.4 1115.86C138.4 1117.7 139.9 1119.2 141.75 1119.2Z" id="f25tjmhIu"></path><path d="M118.38 1119.2C120.23 1119.2 121.72 1117.7 121.72 1115.86C121.72 1114.01 120.23 1112.52 118.38 1112.52C116.53 1112.52 115.03 1114.01 115.03 1115.86C115.03 1117.7 116.53 1119.2 118.38 1119.2Z" id="h1jUp9l5xX"></path><path d="M95.03 1119.2C96.87 1119.2 98.37 1117.7 98.37 1115.86C98.37 1114.01 96.87 1112.52 95.03 1112.52C93.18 1112.52 91.68 1114.01 91.68 1115.86C91.68 1117.7 93.18 1119.2 95.03 1119.2Z" id="afcPqMN4k"></path><path d="M71.66 1119.2C73.5 1119.2 75 1117.7 75 1115.86C75 1114.01 73.5 1112.52 71.66 1112.52C69.81 1112.52 68.31 1114.01 68.31 1115.86C68.31 1117.7 69.81 1119.2 71.66 1119.2Z" id="i940RR1PK5"></path><path d="M48.3 1119.2C50.15 1119.2 51.65 1117.7 51.65 1115.86C51.65 1114.01 50.15 1112.52 48.3 1112.52C46.45 1112.52 44.96 1114.01 44.96 1115.86C44.96 1117.7 46.45 1119.2 48.3 1119.2Z" id="a1yz6nmVda"></path><path d="M188.47 1095.86C190.32 1095.86 191.82 1094.37 191.82 1092.52C191.82 1090.68 190.32 1089.18 188.47 1089.18C186.62 1089.18 185.13 1090.68 185.13 1092.52C185.13 1094.37 186.62 1095.86 188.47 1095.86Z" id="dmV1sf7yR"></path><path d="M165.1 1095.86C166.95 1095.86 168.45 1094.37 168.45 1092.52C168.45 1090.68 166.95 1089.18 165.1 1089.18C163.25 1089.18 161.76 1090.68 161.76 1092.52C161.76 1094.37 163.25 1095.86 165.1 1095.86Z" id="a8da3pORj"></path><path d="M141.75 1095.86C143.6 1095.86 145.1 1094.37 145.1 1092.52C145.1 1090.68 143.6 1089.18 141.75 1089.18C139.9 1089.18 138.4 1090.68 138.4 1092.52C138.4 1094.37 139.9 1095.86 141.75 1095.86Z" id="c2qT8HHo5F"></path><path d="M118.38 1095.86C120.23 1095.86 121.72 1094.37 121.72 1092.52C121.72 1090.68 120.23 1089.18 118.38 1089.18C116.53 1089.18 115.03 1090.68 115.03 1092.52C115.03 1094.37 116.53 1095.86 118.38 1095.86Z" id="a9jn6vRS9"></path><path d="M95.03 1095.86C96.87 1095.86 98.37 1094.37 98.37 1092.52C98.37 1090.68 96.87 1089.18 95.03 1089.18C93.18 1089.18 91.68 1090.68 91.68 1092.52C91.68 1094.37 93.18 1095.86 95.03 1095.86Z" id="baLkYl3FZ"></path><path d="M71.66 1095.86C73.5 1095.86 75 1094.37 75 1092.52C75 1090.68 73.5 1089.18 71.66 1089.18C69.81 1089.18 68.31 1090.68 68.31 1092.52C68.31 1094.37 69.81 1095.86 71.66 1095.86Z" id="bp6W4ufCF"></path><path d="M48.3 1095.86C50.15 1095.86 51.65 1094.37 51.65 1092.52C51.65 1090.68 50.15 1089.18 48.3 1089.18C46.45 1089.18 44.96 1090.68 44.96 1092.52C44.96 1094.37 46.45 1095.86 48.3 1095.86Z" id="b1XTVaoCkk"></path><path d="M188.47 1072.54C190.32 1072.54 191.82 1071.04 191.82 1069.2C191.82 1067.35 190.32 1065.86 188.47 1065.86C186.62 1065.86 185.13 1067.35 185.13 1069.2C185.13 1071.04 186.62 1072.54 188.47 1072.54Z" id="e10CmRJxKe"></path><path d="M165.1 1072.54C166.95 1072.54 168.45 1071.04 168.45 1069.2C168.45 1067.35 166.95 1065.86 165.1 1065.86C163.25 1065.86 161.76 1067.35 161.76 1069.2C161.76 1071.04 163.25 1072.54 165.1 1072.54Z" id="cvk7pAKUM"></path><path d="M141.75 1072.54C143.6 1072.54 145.1 1071.04 145.1 1069.2C145.1 1067.35 143.6 1065.86 141.75 1065.86C139.9 1065.86 138.4 1067.35 138.4 1069.2C138.4 1071.04 139.9 1072.54 141.75 1072.54Z" id="bwIFni9mZ"></path><path d="M118.38 1072.54C120.23 1072.54 121.72 1071.04 121.72 1069.2C121.72 1067.35 120.23 1065.86 118.38 1065.86C116.53 1065.86 115.03 1067.35 115.03 1069.2C115.03 1071.04 116.53 1072.54 118.38 1072.54Z" id="b1veC2wPnu"></path><path d="M95.03 1072.54C96.87 1072.54 98.37 1071.04 98.37 1069.2C98.37 1067.35 96.87 1065.86 95.03 1065.86C93.18 1065.86 91.68 1067.35 91.68 1069.2C91.68 1071.04 93.18 1072.54 95.03 1072.54Z" id="b9C0JVAHf"></path><path d="M71.66 1072.54C73.5 1072.54 75 1071.04 75 1069.2C75 1067.35 73.5 1065.86 71.66 1065.86C69.81 1065.86 68.31 1067.35 68.31 1069.2C68.31 1071.04 69.81 1072.54 71.66 1072.54Z" id="a3lp5Eu3MN"></path><path d="M48.3 1072.54C50.15 1072.54 51.65 1071.04 51.65 1069.2C51.65 1067.35 50.15 1065.86 48.3 1065.86C46.45 1065.86 44.96 1067.35 44.96 1069.2C44.96 1071.04 46.45 1072.54 48.3 1072.54Z" id="ctBIDvVm"></path><path d="M188.47 1049.2C190.32 1049.2 191.82 1047.71 191.82 1045.86C191.82 1044.02 190.32 1042.52 188.47 1042.52C186.62 1042.52 185.13 1044.02 185.13 1045.86C185.13 1047.71 186.62 1049.2 188.47 1049.2Z" id="k2H5dop247"></path><path d="M165.1 1049.2C166.95 1049.2 168.45 1047.71 168.45 1045.86C168.45 1044.01 166.95 1042.52 165.1 1042.52C163.25 1042.52 161.76 1044.01 161.76 1045.86C161.76 1047.71 163.25 1049.2 165.1 1049.2Z" id="a4VyIch1c"></path><path d="M141.75 1049.2C143.6 1049.2 145.09 1047.71 145.09 1045.86C145.09 1044.01 143.6 1042.52 141.75 1042.52C139.9 1042.52 138.4 1044.01 138.4 1045.86C138.4 1047.71 139.9 1049.2 141.75 1049.2Z" id="by9kjiJIJ"></path><path d="M118.38 1049.2C120.23 1049.2 121.72 1047.71 121.72 1045.86C121.72 1044.01 120.23 1042.52 118.38 1042.52C116.53 1042.52 115.03 1044.01 115.03 1045.86C115.03 1047.71 116.53 1049.2 118.38 1049.2Z" id="ahagMz5NL"></path><path d="M95.03 1049.2C96.87 1049.2 98.37 1047.71 98.37 1045.86C98.37 1044.01 96.87 1042.52 95.03 1042.52C93.18 1042.52 91.68 1044.01 91.68 1045.86C91.68 1047.71 93.18 1049.2 95.03 1049.2Z" id="d4LZXvnekR"></path><path d="M71.66 1049.2C73.5 1049.2 75 1047.71 75 1045.86C75 1044.01 73.5 1042.52 71.66 1042.52C69.81 1042.52 68.31 1044.01 68.31 1045.86C68.31 1047.71 69.81 1049.2 71.66 1049.2Z" id="b2ODyj7D"></path><path d="M48.3 1049.2C50.15 1049.2 51.65 1047.71 51.65 1045.86C51.65 1044.01 50.15 1042.52 48.3 1042.52C46.45 1042.52 44.96 1044.01 44.96 1045.86C44.96 1047.71 46.45 1049.2 48.3 1049.2Z" id="a3MlmSzuRm"></path></defs><g><g><g><use xlink:href="#a4cEk0T7FF" opacity="1" fill="#000000" fill-opacity="0"></use><g><use xlink:href="#a4cEk0T7FF" opacity="1" fill-opacity="0" stroke="#04d361" stroke-width="3" stroke-opacity="1"></use></g></g><g><use xlink:href="#a2S0TXcQX" opacity="1" fill="#000000" fill-opacity="0"></use><g><use xlink:href="#a2S0TXcQX" opacity="1" fill-opacity="0" stroke="#04d361" stroke-width="3" stroke-opacity="1"></use></g></g><g><use xlink:href="#cwkySXxU7" opacity="1" fill="#000000" fill-opacity="0"></use><g><use xlink:href="#cwkySXxU7" opacity="1" fill-opacity="0" stroke="#04d361" stroke-width="3" stroke-opacity="1"></use></g></g><g><use xlink:href="#ih5UhwibX" opacity="1" fill="#000000" fill-opacity="0"></use><g><use xlink:href="#ih5UhwibX" opacity="1" fill-opacity="0" stroke="#04d361" stroke-width="3" stroke-opacity="1"></use></g></g><g><use xlink:href="#epmsNdy48" opacity="1" fill="#000000" fill-opacity="0"></use><g><use xlink:href="#epmsNdy48" opacity="1" fill-opacity="0" stroke="#04d361" stroke-width="3" stroke-opacity="1"></use></g></g><g><use xlink:href="#b1dAEJX9H7" opacity="1" fill="#000000" fill-opacity="0"></use><g><use xlink:href="#b1dAEJX9H7" opacity="1" fill-opacity="0" stroke="#04d361" stroke-width="3" stroke-opacity="1"></use></g></g><g><use xlink:href="#f9tbjGI3zD" opacity="1" fill="#000000" fill-opacity="0"></use><g><use xlink:href="#f9tbjGI3zD" opacity="1" fill-opacity="0" stroke="#04d361" stroke-width="3" stroke-opacity="1"></use></g></g><g><use xlink:href="#bZG03JpQc" opacity="1" fill="#000000" fill-opacity="0"></use><g><use xlink:href="#bZG03JpQc" opacity="1" fill-opacity="0" stroke="#04d361" stroke-width="3" stroke-opacity="1"></use></g></g><g><use xlink:href="#b29LVtg540" opacity="1" fill="#000000" fill-opacity="0"></use><g><use xlink:href="#b29LVtg540" opacity="1" fill-opacity="0" stroke="#04d361" stroke-width="3" stroke-opacity="1"></use></g></g><g><use xlink:href="#b6vJOi7s2" opacity="1" fill="#000000" fill-opacity="0"></use><g><use xlink:href="#b6vJOi7s2" opacity="1" fill-opacity="0" stroke="#04d361" stroke-width="3" stroke-opacity="1"></use></g></g><g><use xlink:href="#c1UTEPW7BG" opacity="1" fill="#000000" fill-opacity="0"></use><g><use xlink:href="#c1UTEPW7BG" opacity="1" fill-opacity="0" stroke="#04d361" stroke-width="3" stroke-opacity="1"></use></g></g><g><use xlink:href="#c2Hua3Xi4y" opacity="1" fill="#9871f5" fill-opacity="1"></use><g><use xlink:href="#c2Hua3Xi4y" opacity="1" fill-opacity="0" stroke="#000000" stroke-width="1" stroke-opacity="0"></use></g></g><g><use xlink:href="#m4iqjxSZy" opacity="1" fill="#9871f5" fill-opacity="1"></use><g><use xlink:href="#m4iqjxSZy" opacity="1" fill-opacity="0" stroke="#000000" stroke-width="1" stroke-opacity="0"></use></g></g><g><use xlink:href="#deCQoAgVp" opacity="1" fill="#9871f5" fill-opacity="1"></use><g><use xlink:href="#deCQoAgVp" opacity="1" fill-opacity="0" stroke="#000000" stroke-width="1" stroke-opacity="0"></use></g></g><g><use xlink:href="#e8BcaoWKo" opacity="1" fill="#9871f5" fill-opacity="1"></use><g><use xlink:href="#e8BcaoWKo" opacity="1" fill-opacity="0" stroke="#000000" stroke-width="1" stroke-opacity="0"></use></g></g><g><use xlink:href="#gb4BnkwmA" opacity="1" fill="#9871f5" fill-opacity="1"></use><g><use xlink:href="#gb4BnkwmA" opacity="1" fill-opacity="0" stroke="#000000" stroke-width="1" stroke-opacity="0"></use></g></g><g><use xlink:href="#a35hmYwXRI" opacity="1" fill="#9871f5" fill-opacity="1"></use><g><use xlink:href="#a35hmYwXRI" opacity="1" fill-opacity="0" stroke="#000000" stroke-width="1" stroke-opacity="0"></use></g></g><g><use xlink:href="#bZCaDQlm" opacity="1" fill="#9871f5" fill-opacity="1"></use><g><use xlink:href="#bZCaDQlm" opacity="1" fill-opacity="0" stroke="#000000" stroke-width="1" stroke-opacity="0"></use></g></g><g><use xlink:href="#bsEhys9wg" opacity="1" fill="#9871f5" fill-opacity="1"></use><g><use xlink:href="#bsEhys9wg" opacity="1" fill-opacity="0" stroke="#000000" stroke-width="1" stroke-opacity="0"></use></g></g><g><use xlink:href="#e177pz2wIm" opacity="1" fill="#9871f5" fill-opacity="1"></use><g><use xlink:href="#e177pz2wIm" opacity="1" fill-opacity="0" stroke="#000000" stroke-width="1" stroke-opacity="0"></use></g></g><g><use xlink:href="#hpwoHufAA" opacity="1" fill="#9871f5" fill-opacity="1"></use><g><use xlink:href="#hpwoHufAA" opacity="1" fill-opacity="0" stroke="#000000" stroke-width="1" stroke-opacity="0"></use></g></g><g><use xlink:href="#c46FzfhtZ" opacity="1" fill="#9871f5" fill-opacity="1"></use><g><use xlink:href="#c46FzfhtZ" opacity="1" fill-opacity="0" stroke="#000000" stroke-width="1" stroke-opacity="0"></use></g></g><g><use xlink:href="#khulWc0wY" opacity="1" fill="#9871f5" fill-opacity="1"></use><g><use xlink:href="#khulWc0wY" opacity="1" fill-opacity="0" stroke="#000000" stroke-width="1" stroke-opacity="0"></use></g></g><g><use xlink:href="#a9h7xhrbfV" opacity="1" fill="#9871f5" fill-opacity="1"></use><g><use xlink:href="#a9h7xhrbfV" opacity="1" fill-opacity="0" stroke="#000000" stroke-width="1" stroke-opacity="0"></use></g></g><g><use xlink:href="#arxndXNy" opacity="1" fill="#9871f5" fill-opacity="1"></use><g><use xlink:href="#arxndXNy" opacity="1" fill-opacity="0" stroke="#000000" stroke-width="1" stroke-opacity="0"></use></g></g><g><use xlink:href="#be4bEDFWP" opacity="1" fill="#9871f5" fill-opacity="1"></use><g><use xlink:href="#be4bEDFWP" opacity="1" fill-opacity="0" stroke="#000000" stroke-width="1" stroke-opacity="0"></use></g></g><g><use xlink:href="#a1SYsbQ49I" opacity="1" fill="#9871f5" fill-opacity="1"></use><g><use xlink:href="#a1SYsbQ49I" opacity="1" fill-opacity="0" stroke="#000000" stroke-width="1" stroke-opacity="0"></use></g></g><g><use xlink:href="#g1fI8PEje" opacity="1" fill="#9871f5" fill-opacity="1"></use><g><use xlink:href="#g1fI8PEje" opacity="1" fill-opacity="0" stroke="#000000" stroke-width="1" stroke-opacity="0"></use></g></g><g><use xlink:href="#l1YroyG566" opacity="1" fill="#9871f5" fill-opacity="1"></use><g><use xlink:href="#l1YroyG566" opacity="1" fill-opacity="0" stroke="#000000" stroke-width="1" stroke-opacity="0"></use></g></g><g><use xlink:href="#fkz9QbUjj" opacity="1" fill="#9871f5" fill-opacity="1"></use><g><use xlink:href="#fkz9QbUjj" opacity="1" fill-opacity="0" stroke="#000000" stroke-width="1" stroke-opacity="0"></use></g></g><g><use xlink:href="#bN9e1i8Zj" opacity="1" fill="#9871f5" fill-opacity="1"></use><g><use xlink:href="#bN9e1i8Zj" opacity="1" fill-opacity="0" stroke="#000000" stroke-width="1" stroke-opacity="0"></use></g></g><g><use xlink:href="#b4aPuzndVb" opacity="1" fill="#9871f5" fill-opacity="1"></use><g><use xlink:href="#b4aPuzndVb" opacity="1" fill-opacity="0" stroke="#000000" stroke-width="1" stroke-opacity="0"></use></g></g><g><use xlink:href="#a3oueFe90" opacity="1" fill="#9871f5" fill-opacity="1"></use><g><use xlink:href="#a3oueFe90" opacity="1" fill-opacity="0" stroke="#000000" stroke-width="1" stroke-opacity="0"></use></g></g><g><use xlink:href="#b7g8WbYB9" opacity="1" fill="#9871f5" fill-opacity="1"></use><g><use xlink:href="#b7g8WbYB9" opacity="1" fill-opacity="0" stroke="#000000" stroke-width="1" stroke-opacity="0"></use></g></g><g><use xlink:href="#b1vw6Ethb1" opacity="1" fill="#9871f5" fill-opacity="1"></use><g><use xlink:href="#b1vw6Ethb1" opacity="1" fill-opacity="0" stroke="#000000" stroke-width="1" stroke-opacity="0"></use></g></g><g><use xlink:href="#g14ujgU7qK" opacity="1" fill="#9871f5" fill-opacity="1"></use><g><use xlink:href="#g14ujgU7qK" opacity="1" fill-opacity="0" stroke="#000000" stroke-width="1" stroke-opacity="0"></use></g></g><g><use xlink:href="#a499R7Ix1k" opacity="1" fill="#9871f5" fill-opacity="1"></use><g><use xlink:href="#a499R7Ix1k" opacity="1" fill-opacity="0" stroke="#000000" stroke-width="1" stroke-opacity="0"></use></g></g><g><use xlink:href="#b68qGdlBU" opacity="1" fill="#9871f5" fill-opacity="1"></use><g><use xlink:href="#b68qGdlBU" opacity="1" fill-opacity="0" stroke="#000000" stroke-width="1" stroke-opacity="0"></use></g></g><g><use xlink:href="#a1qHIqb9SM" opacity="1" fill="#9871f5" fill-opacity="1"></use><g><use xlink:href="#a1qHIqb9SM" opacity="1" fill-opacity="0" stroke="#000000" stroke-width="1" stroke-opacity="0"></use></g></g><g><use xlink:href="#aMGvAWkjZ" opacity="1" fill="#9871f5" fill-opacity="1"></use><g><use xlink:href="#aMGvAWkjZ" opacity="1" fill-opacity="0" stroke="#000000" stroke-width="1" stroke-opacity="0"></use></g></g><g><use xlink:href="#aGuwnsTy1" opacity="1" fill="#9871f5" fill-opacity="1"></use><g><use xlink:href="#aGuwnsTy1" opacity="1" fill-opacity="0" stroke="#000000" stroke-width="1" stroke-opacity="0"></use></g></g><g><use xlink:href="#j494Mimyk2" opacity="1" fill="#9871f5" fill-opacity="1"></use><g><use xlink:href="#j494Mimyk2" opacity="1" fill-opacity="0" stroke="#000000" stroke-width="1" stroke-opacity="0"></use></g></g><g><use xlink:href="#i9HTYfC2b" opacity="1" fill="#9871f5" fill-opacity="1"></use><g><use xlink:href="#i9HTYfC2b" opacity="1" fill-opacity="0" stroke="#000000" stroke-width="1" stroke-opacity="0"></use></g></g><g><use xlink:href="#a3Ymg0tQ3" opacity="1" fill="#9871f5" fill-opacity="1"></use><g><use xlink:href="#a3Ymg0tQ3" opacity="1" fill-opacity="0" stroke="#000000" stroke-width="1" stroke-opacity="0"></use></g></g><g><use xlink:href="#ar3i1eeY" opacity="1" fill="#9871f5" fill-opacity="1"></use><g><use xlink:href="#ar3i1eeY" opacity="1" fill-opacity="0" stroke="#000000" stroke-width="1" stroke-opacity="0"></use></g></g><g><use xlink:href="#a3mcNJS0KB" opacity="1" fill="#9871f5" fill-opacity="1"></use><g><use xlink:href="#a3mcNJS0KB" opacity="1" fill-opacity="0" stroke="#000000" stroke-width="1" stroke-opacity="0"></use></g></g><g><use xlink:href="#g9wJVIqmlr" opacity="1" fill="#9871f5" fill-opacity="1"></use><g><use xlink:href="#g9wJVIqmlr" opacity="1" fill-opacity="0" stroke="#000000" stroke-width="1" stroke-opacity="0"></use></g></g><g><use xlink:href="#a1FCNBxfMd" opacity="1" fill="#9871f5" fill-opacity="1"></use><g><use xlink:href="#a1FCNBxfMd" opacity="1" fill-opacity="0" stroke="#000000" stroke-width="1" stroke-opacity="0"></use></g></g><g><use xlink:href="#g6z6k7W4dQ" opacity="1" fill="#9871f5" fill-opacity="1"></use><g><use xlink:href="#g6z6k7W4dQ" opacity="1" fill-opacity="0" stroke="#000000" stroke-width="1" stroke-opacity="0"></use></g></g><g><use xlink:href="#f25tjmhIu" opacity="1" fill="#9871f5" fill-opacity="1"></use><g><use xlink:href="#f25tjmhIu" opacity="1" fill-opacity="0" stroke="#000000" stroke-width="1" stroke-opacity="0"></use></g></g><g><use xlink:href="#h1jUp9l5xX" opacity="1" fill="#9871f5" fill-opacity="1"></use><g><use xlink:href="#h1jUp9l5xX" opacity="1" fill-opacity="0" stroke="#000000" stroke-width="1" stroke-opacity="0"></use></g></g><g><use xlink:href="#afcPqMN4k" opacity="1" fill="#9871f5" fill-opacity="1"></use><g><use xlink:href="#afcPqMN4k" opacity="1" fill-opacity="0" stroke="#000000" stroke-width="1" stroke-opacity="0"></use></g></g><g><use xlink:href="#i940RR1PK5" opacity="1" fill="#9871f5" fill-opacity="1"></use><g><use xlink:href="#i940RR1PK5" opacity="1" fill-opacity="0" stroke="#000000" stroke-width="1" stroke-opacity="0"></use></g></g><g><use xlink:href="#a1yz6nmVda" opacity="1" fill="#9871f5" fill-opacity="1"></use><g><use xlink:href="#a1yz6nmVda" opacity="1" fill-opacity="0" stroke="#000000" stroke-width="1" stroke-opacity="0"></use></g></g><g><use xlink:href="#dmV1sf7yR" opacity="1" fill="#9871f5" fill-opacity="1"></use><g><use xlink:href="#dmV1sf7yR" opacity="1" fill-opacity="0" stroke="#000000" stroke-width="1" stroke-opacity="0"></use></g></g><g><use xlink:href="#a8da3pORj" opacity="1" fill="#9871f5" fill-opacity="1"></use><g><use xlink:href="#a8da3pORj" opacity="1" fill-opacity="0" stroke="#000000" stroke-width="1" stroke-opacity="0"></use></g></g><g><use xlink:href="#c2qT8HHo5F" opacity="1" fill="#9871f5" fill-opacity="1"></use><g><use xlink:href="#c2qT8HHo5F" opacity="1" fill-opacity="0" stroke="#000000" stroke-width="1" stroke-opacity="0"></use></g></g><g><use xlink:href="#a9jn6vRS9" opacity="1" fill="#9871f5" fill-opacity="1"></use><g><use xlink:href="#a9jn6vRS9" opacity="1" fill-opacity="0" stroke="#000000" stroke-width="1" stroke-opacity="0"></use></g></g><g><use xlink:href="#baLkYl3FZ" opacity="1" fill="#9871f5" fill-opacity="1"></use><g><use xlink:href="#baLkYl3FZ" opacity="1" fill-opacity="0" stroke="#000000" stroke-width="1" stroke-opacity="0"></use></g></g><g><use xlink:href="#bp6W4ufCF" opacity="1" fill="#9871f5" fill-opacity="1"></use><g><use xlink:href="#bp6W4ufCF" opacity="1" fill-opacity="0" stroke="#000000" stroke-width="1" stroke-opacity="0"></use></g></g><g><use xlink:href="#b1XTVaoCkk" opacity="1" fill="#9871f5" fill-opacity="1"></use><g><use xlink:href="#b1XTVaoCkk" opacity="1" fill-opacity="0" stroke="#000000" stroke-width="1" stroke-opacity="0"></use></g></g><g><use xlink:href="#e10CmRJxKe" opacity="1" fill="#9871f5" fill-opacity="1"></use><g><use xlink:href="#e10CmRJxKe" opacity="1" fill-opacity="0" stroke="#000000" stroke-width="1" stroke-opacity="0"></use></g></g><g><use xlink:href="#cvk7pAKUM" opacity="1" fill="#9871f5" fill-opacity="1"></use><g><use xlink:href="#cvk7pAKUM" opacity="1" fill-opacity="0" stroke="#000000" stroke-width="1" stroke-opacity="0"></use></g></g><g><use xlink:href="#bwIFni9mZ" opacity="1" fill="#9871f5" fill-opacity="1"></use><g><use xlink:href="#bwIFni9mZ" opacity="1" fill-opacity="0" stroke="#000000" stroke-width="1" stroke-opacity="0"></use></g></g><g><use xlink:href="#b1veC2wPnu" opacity="1" fill="#9871f5" fill-opacity="1"></use><g><use xlink:href="#b1veC2wPnu" opacity="1" fill-opacity="0" stroke="#000000" stroke-width="1" stroke-opacity="0"></use></g></g><g><use xlink:href="#b9C0JVAHf" opacity="1" fill="#9871f5" fill-opacity="1"></use><g><use xlink:href="#b9C0JVAHf" opacity="1" fill-opacity="0" stroke="#000000" stroke-width="1" stroke-opacity="0"></use></g></g><g><use xlink:href="#a3lp5Eu3MN" opacity="1" fill="#9871f5" fill-opacity="1"></use><g><use xlink:href="#a3lp5Eu3MN" opacity="1" fill-opacity="0" stroke="#000000" stroke-width="1" stroke-opacity="0"></use></g></g><g><use xlink:href="#ctBIDvVm" opacity="1" fill="#9871f5" fill-opacity="1"></use><g><use xlink:href="#ctBIDvVm" opacity="1" fill-opacity="0" stroke="#000000" stroke-width="1" stroke-opacity="0"></use></g></g><g><use xlink:href="#k2H5dop247" opacity="1" fill="#9871f5" fill-opacity="1"></use><g><use xlink:href="#k2H5dop247" opacity="1" fill-opacity="0" stroke="#000000" stroke-width="1" stroke-opacity="0"></use></g></g><g><use xlink:href="#a4VyIch1c" opacity="1" fill="#9871f5" fill-opacity="1"></use><g><use xlink:href="#a4VyIch1c" opacity="1" fill-opacity="0" stroke="#000000" stroke-width="1" stroke-opacity="0"></use></g></g><g><use xlink:href="#by9kjiJIJ" opacity="1" fill="#9871f5" fill-opacity="1"></use><g><use xlink:href="#by9kjiJIJ" opacity="1" fill-opacity="0" stroke="#000000" stroke-width="1" stroke-opacity="0"></use></g></g><g><use xlink:href="#ahagMz5NL" opacity="1" fill="#9871f5" fill-opacity="1"></use><g><use xlink:href="#ahagMz5NL" opacity="1" fill-opacity="0" stroke="#000000" stroke-width="1" stroke-opacity="0"></use></g></g><g><use xlink:href="#d4LZXvnekR" opacity="1" fill="#9871f5" fill-opacity="1"></use><g><use xlink:href="#d4LZXvnekR" opacity="1" fill-opacity="0" stroke="#000000" stroke-width="1" stroke-opacity="0"></use></g></g><g><use xlink:href="#b2ODyj7D" opacity="1" fill="#9871f5" fill-opacity="1"></use><g><use xlink:href="#b2ODyj7D" opacity="1" fill-opacity="0" stroke="#000000" stroke-width="1" stroke-opacity="0"></use></g></g><g><use xlink:href="#a3MlmSzuRm" opacity="1" fill="#9871f5" fill-opacity="1"></use><g><use xlink:href="#a3MlmSzuRm" opacity="1" fill-opacity="0" stroke="#000000" stroke-width="1" stroke-opacity="0"></use></g></g></g></g></svg>