<svg width="80" height="80" viewBox="0 0 80 80" fill="none" xmlns="http://www.w3.org/2000/svg">
<circle cx="40" cy="40" r="40" fill="#DCDCE6"/>
<path fill-rule="evenodd" clip-rule="evenodd" d="M48.2005 24.1979C46.3299 24.2918 44.8641 24.5636 43.9455 24.9867C43.8877 25.0133 43.8303 25.035 43.8181 25.035C43.8057 25.035 43.6061 25.1257 43.3743 25.2364C42.4747 25.6661 41.8083 26.146 40.5859 27.2443C39.4515 28.2634 38.2603 29.3053 36.8339 30.5264C35.1043 32.0068 33.0729 33.696 31.9821 34.561C31.9097 34.6185 31.5261 34.9228 31.1295 35.2376C30.7329 35.5522 30.2171 35.9581 29.9831 36.1397C29.7491 36.3211 29.5409 36.4844 29.5205 36.5026C29.4999 36.5208 29.3857 36.6097 29.2667 36.7004C29.1479 36.7911 29.0279 36.8834 29.0005 36.9056C28.9233 36.9679 28.4413 37.335 28.0999 37.5916C27.9309 37.7187 27.7755 37.8377 27.7549 37.8562C27.7185 37.8884 25.7233 39.3655 25.4505 39.5621C25.3771 39.615 25.2413 39.713 25.1485 39.7799C25.0557 39.8469 24.9385 39.9314 24.8881 39.9676C24.8375 40.0039 24.7245 40.0856 24.6367 40.1492C24.5491 40.2126 24.3619 40.3462 24.2207 40.4462C23.9685 40.6248 23.8451 40.7125 23.4325 41.0071C23.2309 41.1511 23.0055 41.3069 22.4505 41.6861C22.3039 41.7863 22.0217 41.9791 21.8235 42.1145C21.6253 42.25 21.3027 42.468 21.1067 42.5989C20.9109 42.7297 20.7355 42.8491 20.7171 42.864C20.6713 42.9014 18.8309 44.0989 18.3269 44.4191C17.3641 45.0313 16.5427 45.5358 15.5839 46.1041C15.4371 46.1908 15.2647 46.2949 15.2005 46.3353C15.0891 46.4056 14.2639 46.8873 13.9839 47.0457C13.9105 47.0871 13.7979 47.1513 13.7339 47.1881C13.6697 47.2251 13.5197 47.3091 13.4005 47.375C13.0151 47.5879 12.6979 47.7807 12.7113 47.7938C12.7183 47.8009 12.9101 47.7752 13.1373 47.7368C14.8579 47.4455 16.7367 47.1905 18.4581 47.0147C18.9755 46.9616 19.4631 46.9097 19.5413 46.8992C19.7759 46.8673 21.8563 46.7171 22.7505 46.6674C27.0623 46.4274 32.6861 46.5115 36.8671 46.879C37.0597 46.8959 37.6521 46.9475 38.1839 46.9941C38.7155 47.0404 39.1955 47.0863 39.2505 47.0962C39.3055 47.1061 39.6955 47.1507 40.1171 47.1954C42.5157 47.4491 45.6361 47.8902 48.2671 48.3476C48.5329 48.3937 48.7639 48.4317 48.7801 48.4317C48.7963 48.4319 48.6989 48.3228 48.5635 48.1892C48.3483 47.9771 48.1811 47.7601 47.9497 47.3926C47.8747 47.2736 47.6005 46.728 47.6005 46.6979C47.6005 46.6862 47.5785 46.6297 47.5515 46.5727C47.2771 45.9906 46.9473 44.4634 46.8485 43.3172C46.8211 42.9996 46.7879 42.6509 46.7745 42.5424L46.7505 42.3452L46.4311 42.1795C46.0567 41.9851 45.6979 41.7869 45.5339 41.6837C45.4697 41.6435 45.3197 41.5493 45.2005 41.4744C44.8861 41.2768 44.8869 41.2774 44.5199 41.0075C44.0985 40.6975 43.9785 40.5981 43.5053 40.1656C42.5641 39.3055 41.8493 38.0753 41.5783 36.8491C41.2711 35.4602 41.6751 33.2673 42.4473 32.1302C43.5717 30.4747 45.2567 29.2202 47.2315 28.5682C47.9259 28.3389 48.3095 28.2555 49.5095 28.0726C49.8095 28.0268 51.3639 28.028 51.7839 28.0742C53.6655 28.2817 54.7459 28.5111 56.4505 29.0649C56.8515 29.1954 57.2591 29.3382 57.3839 29.3922C57.4205 29.4081 57.6455 29.4968 57.8839 29.5891C58.1221 29.6813 58.3621 29.7774 58.4171 29.8023C58.4721 29.8272 58.6557 29.908 58.8253 29.9817C59.3115 30.193 59.5345 30.2981 60.3172 30.685C61.3047 31.1729 61.3781 31.214 62.3075 31.7979C62.8855 32.1611 63.2683 32.3941 63.2869 32.3941C63.2953 32.3941 63.3583 32.4311 63.4273 32.4763C64.8109 33.3827 65.3446 31.6991 64.1125 30.3145C63.0224 29.0895 60.8499 27.6795 58.2005 26.4779C57.0625 25.9617 55.3139 25.3368 54.1171 25.0186C53.4759 24.8481 52.7683 24.6693 52.4339 24.5935C52.0907 24.5157 51.9107 24.4848 51.1385 24.3723C50.4899 24.2777 48.7125 24.1722 48.2005 24.1979ZM53.8005 38.5187C53.4383 38.561 53.1365 38.606 53.0339 38.6325C52.9697 38.649 52.7835 38.6943 52.6199 38.7329C52.1907 38.8343 51.3431 39.1853 51.0339 39.3899C50.9881 39.4202 50.8382 39.518 50.7007 39.6073C48.9879 40.7202 48.2569 42.982 48.9045 45.1651C48.9609 45.3556 49.0177 45.5265 49.0303 45.5447C49.0431 45.5627 49.0891 45.6657 49.1327 45.7734C49.6661 47.0919 50.9865 48.3727 52.5013 49.0414C52.6567 49.1099 52.8289 49.1859 52.8839 49.2103C56.4205 50.7719 61.4615 48.9604 62.0499 45.9164C62.5519 43.3186 61.1229 40.857 58.3099 39.4746C58.0677 39.3556 57.8573 39.2582 57.8427 39.2582C57.8281 39.2582 57.7639 39.2307 57.7001 39.197C57.6361 39.1634 57.5239 39.117 57.4505 39.0941C57.3771 39.0711 57.2721 39.0327 57.2171 39.0087C56.4198 38.6606 54.6963 38.4133 53.8005 38.5187ZM34.0339 47.7722C33.1613 47.8383 32.0437 48.1644 31.3847 48.5452C29.9571 49.3701 29.5647 51.6378 30.6213 52.957C31.1811 53.6558 31.7439 53.8771 33.5023 54.0892C34.5811 54.2193 35.2287 54.5494 35.1943 54.9513C35.1657 55.2879 34.2981 55.2998 33.5651 54.9737C33.4837 54.9374 33.1997 54.8226 32.9339 54.7185C32.6679 54.6145 32.3605 54.488 32.2505 54.4377C31.0209 53.8744 30.4141 53.7257 29.9555 53.8756C29.5043 54.0229 29.0957 55.7675 29.3833 56.3181C29.4787 56.5009 30.3125 56.9852 30.9001 57.199C31.0195 57.2426 31.1471 57.2915 31.1839 57.3077C31.5901 57.4885 32.8731 57.8114 33.6839 57.9371C35.7959 58.2644 37.8819 57.3984 38.6629 55.8696C39.2221 54.7753 39.1865 53.875 38.5525 53.0792C38.2297 52.6739 37.2427 52.0641 36.4505 51.7805C36.3589 51.7477 36.2689 51.7104 36.2505 51.698C36.0955 51.5916 34.7959 51.2473 34.3781 51.2022C33.6579 51.1242 33.5929 50.9365 34.1809 50.6329C34.7067 50.3617 35.3811 50.5001 36.2505 51.0576C36.6057 51.2855 37.2181 51.6142 37.3839 51.6661C37.4571 51.689 37.5321 51.7189 37.5505 51.7328C38.1205 52.1607 39.0005 51.258 39.0005 50.2454C39.0005 49.4168 38.7715 49.1091 37.7671 48.5886C36.5333 47.9492 35.2891 47.677 34.0339 47.7722ZM70.3839 48.7951C69.8848 48.8464 69.1882 49.0412 68.924 49.2039C68.3636 49.5487 68.1222 49.7407 67.7323 50.1528L67.481 50.4187L67.2587 50.268C65.8911 49.3412 64.4649 49.4336 63.0581 50.5403L62.8131 50.7331L62.7597 50.6408C62.5419 50.265 61.6311 50.2383 60.5672 50.5767C59.5669 50.8947 59.5855 50.8808 59.6355 51.259C59.6545 51.4012 59.7065 51.8294 59.7513 52.2106C60.1685 55.7627 60.5773 58.0702 61.0579 59.5861C61.2169 60.0874 61.1955 60.0694 61.5749 60.0237C62.3359 59.9316 63.9177 59.5621 64.2381 59.4016C64.4241 59.3083 64.4582 58.0524 64.2974 57.2101C64.2784 57.1103 64.2277 56.843 64.1847 56.6161C64.1015 56.1753 63.9594 55.5744 63.8181 55.0652C63.3507 53.3814 63.3403 53.1855 63.7039 52.9458C64.6897 52.2957 65.4507 53.256 65.7493 55.5271C65.7793 55.754 65.818 56.0288 65.8352 56.1377C65.88 56.4183 65.9276 57.1986 65.9544 58.0948L65.9776 58.8638L66.0641 58.9073C66.3689 59.061 66.97 59.1051 67.4172 59.0071C68.0484 58.8687 69.2063 58.392 69.3116 58.2272C69.4843 57.9565 69.6189 56.6353 69.5396 55.9892C69.3941 54.8066 69.3629 54.5672 69.3341 54.4216C69.1969 53.7237 69.0527 53.2723 68.837 52.8644L68.7113 52.6274L68.9478 52.3963C70.1603 51.2099 71.129 52.6218 70.7982 55.0935C70.7282 55.6166 70.6982 55.7696 70.5622 56.3027C70.4738 56.6488 70.4464 57.8219 70.5234 57.9548C70.5984 58.0839 71.9693 58.1595 72.5941 58.0688C73.8881 57.8809 74.0091 57.8494 74.0977 57.6778C74.4874 56.9214 74.5449 55.3536 74.2368 53.8936C74.1226 53.353 73.8897 52.4218 73.6754 51.6493C73.0931 49.5501 72.0281 48.6266 70.3839 48.7951ZM40.3505 49.0444C40.3139 49.0529 40.2047 49.0756 40.1081 49.095C39.7253 49.1717 39.6721 49.3321 39.7473 50.1811C39.7755 50.4989 39.8361 51.1893 39.8819 51.7156C39.9279 52.2421 39.9743 52.7321 39.9853 52.8046C39.9963 52.8772 40.0411 53.2855 40.0849 53.7122C40.4239 57.017 40.6573 58.2597 41.0063 58.6181C41.2513 58.8697 42.1883 58.9919 43.8743 58.9921C44.2681 58.9921 44.0925 59.2837 45.9581 55.5344C46.0779 55.2932 46.1805 55.1004 46.1857 55.1055C46.1909 55.1107 46.2119 55.4788 46.2319 55.9233C46.2521 56.368 46.2909 56.8578 46.3181 57.0121C46.3453 57.1663 46.4041 57.5303 46.4487 57.8207C46.6709 59.2643 47.1503 59.6954 48.7779 59.9142C49.4547 60.0051 49.7657 59.956 50.0025 59.7209C50.4367 59.2899 50.9181 58.6183 51.5857 57.5124C51.7791 57.1919 51.9511 56.9073 51.9679 56.8802C52.0115 56.8093 52.4199 56.0862 52.5925 55.7746C52.7795 55.4366 53.3597 54.2656 53.4997 53.9431C53.6411 53.618 53.8271 53.1952 53.8898 53.0576C53.9171 52.9972 53.9667 52.8561 54 52.7442C54.0331 52.6323 54.0919 52.4367 54.1305 52.3098C54.3203 51.6839 54.2093 51.4356 53.6505 51.2374C53.5405 51.1984 53.4205 51.1531 53.3839 51.1366C53.3471 51.1202 53.1671 51.0533 52.9839 50.9881C51.5651 50.483 51.3567 50.528 50.7545 51.4681C50.5765 51.7461 50.1005 52.6985 50.1005 52.7767C50.1005 52.7876 50.0639 52.88 50.0191 52.982C49.9231 53.2004 49.8241 53.4562 49.6343 53.9761C49.4933 54.3624 49.2967 54.8697 49.2187 55.0487C49.1951 55.1032 49.1491 55.2186 49.1165 55.3051C49.0307 55.5342 49.0329 55.5538 48.9831 54.07C48.9237 52.2931 48.8739 51.691 48.7335 51.0485C48.6199 50.5288 48.4303 50.3775 47.7295 50.2476C46.7875 50.073 46.1473 50.0498 45.8877 50.1809C45.7431 50.2539 45.5005 50.4917 45.5005 50.56C45.5005 50.587 45.2913 51.0012 45.0503 51.4516C44.9727 51.5968 44.7779 51.9607 44.6175 52.2601C44.4571 52.5597 44.2279 52.9903 44.1085 53.2172C43.9889 53.4441 43.8209 53.7558 43.7353 53.9102C43.6495 54.0645 43.5597 54.2393 43.5355 54.2989C43.4689 54.463 43.4697 54.4692 43.3655 53.0804C43.1101 49.675 43.1133 49.6932 42.7225 49.439C42.3445 49.1931 40.8111 48.9378 40.3505 49.0444ZM55.7119 51.2354C55.0297 51.2798 54.9147 51.3889 54.8638 52.0399C54.8479 52.2427 54.8121 52.5943 54.7843 52.8212C54.6853 53.6283 54.6531 54.6933 54.6965 55.7358C54.7451 56.9034 54.7859 57.3631 54.9981 59.1242C55.0341 59.4235 55.0799 59.816 55.0997 59.9962C55.1195 60.1763 55.1541 60.3615 55.1765 60.4076C55.3143 60.6919 56.7615 60.7965 57.4839 60.5743C57.5389 60.5573 57.6927 60.5131 57.8257 60.4759C58.1067 60.3973 58.1155 60.3842 58.2487 59.8506C58.5551 58.6222 58.5939 54.2347 58.3149 52.3426C58.3041 52.27 58.2833 52.0421 58.2685 51.8364C58.2379 51.4089 58.2319 51.3982 57.9567 51.3026C57.7347 51.2253 56.4555 51.1871 55.7119 51.2354Z" fill="#C1BCCC"/>
<path fill-rule="evenodd" clip-rule="evenodd" d="M66.0245 22.1448C65.5307 22.958 65.2129 23.565 64.9175 24.2596C64.6299 24.936 64.4113 25.7088 64.3025 26.4341C64.0091 28.3895 64.7017 30.0624 66.3169 31.2999C66.4637 31.4124 66.5987 31.5159 66.6169 31.5302C66.7449 31.6296 67.1385 31.866 67.1761 31.866C67.2233 31.866 67.2423 31.7436 67.4473 30.1171C67.4919 29.763 67.5441 29.3548 67.5635 29.2096C67.6725 28.3858 67.6945 26.4723 67.6021 25.827C67.5295 25.3197 67.4309 24.7548 67.3677 24.4846C67.1591 23.5914 67.0371 23.1199 67.0021 23.0716C66.9889 23.0534 66.9455 22.9471 66.9053 22.8354C66.8651 22.7237 66.7651 22.5018 66.6829 22.3426C66.5267 22.0393 66.4993 21.9688 66.5843 22.089C66.6427 22.1715 67.0669 23.0027 67.0669 23.0346C67.0669 23.0463 67.0963 23.1188 67.1323 23.1956C67.3171 23.5916 67.5693 24.3828 67.7135 25.0186C67.8841 25.7712 67.9799 26.951 67.9571 28.0183C67.9277 29.4041 67.8217 30.978 67.7339 31.3381C67.6689 31.6041 67.6591 31.8886 67.7175 31.8165C67.9365 31.5464 68.5173 30.457 68.8119 29.7642C70.0687 26.8065 69.4423 24.1763 67.0003 22.1567C66.2805 21.5615 66.3777 21.5627 66.0245 22.1448ZM72.2775 28.3713C71.1103 28.5059 70.0727 29.215 69.3027 30.4044C69.1317 30.6685 68.6445 31.6583 68.5831 31.866C68.5697 31.9116 68.5439 31.9672 68.5255 31.9898C68.4085 32.1345 68.6215 31.9969 68.7705 31.8316C68.9203 31.6652 69.7921 30.9002 70.2049 30.5727C71.4905 29.5524 72.3771 29.0851 73.5797 28.7932C73.7573 28.7501 73.7671 28.777 73.5921 28.8275C72.8669 29.0372 71.6449 29.6854 70.9169 30.2472C70.4021 30.6443 68.7003 32.2175 68.7003 32.2963C68.7003 32.3119 68.8685 32.3778 69.0741 32.443C70.9959 33.0512 72.5091 32.421 73.6803 30.5246C73.7831 30.3582 73.8669 30.2109 73.8669 30.1971C73.8669 30.1832 73.8873 30.1484 73.9121 30.1196C74.0033 30.0145 74.5669 28.74 74.5669 28.639C74.5669 28.5946 74.5409 28.5869 74.0503 28.4852C73.3661 28.3432 72.8229 28.3083 72.2775 28.3713ZM66.5003 32.9364C65.4409 33.3671 64.5519 33.9975 63.9321 34.7578C63.3377 35.487 63.0497 36.7942 63.2639 37.7896C63.5109 38.9368 63.4677 38.8889 64.0193 38.6319C64.1761 38.5588 64.3103 38.499 64.3177 38.499C64.5057 38.499 65.9711 37.5181 66.3169 37.1607C67.3887 36.0531 67.6365 34.921 67.1255 33.4666C66.9593 32.9936 66.9605 32.9946 66.7735 33.1972C66.6875 33.2906 66.5407 33.4486 66.4477 33.5488C66.3545 33.6488 66.1815 33.8345 66.0633 33.9616C65.0725 35.0255 64.3195 36.1701 63.9789 37.1297C63.9531 37.2021 63.9111 37.3061 63.8857 37.3605C63.8603 37.415 63.8065 37.568 63.7661 37.7007C63.6583 38.0547 63.6473 37.9648 63.7481 37.5528C63.8525 37.1261 63.9665 36.7976 64.1393 36.425C64.2095 36.2735 64.2669 36.1442 64.2669 36.1375C64.2669 36.0591 64.9223 35.0485 65.2673 34.5949C65.9415 33.7086 66.1265 33.4829 66.4575 33.1433C66.7461 32.8475 66.7485 32.8356 66.5003 32.9364ZM68.0025 32.9671C68.0129 32.978 68.2913 33.1265 68.6215 33.2972C68.9515 33.4676 69.3405 33.6827 69.4859 33.7747C69.6313 33.8668 69.8777 34.0226 70.0337 34.1212C70.7187 34.5543 71.0677 34.7786 71.3105 34.9417C71.5613 35.1104 72.3995 35.7209 72.4337 35.7599C72.4427 35.7704 72.4953 35.8131 72.5503 35.8549C73.6105 36.6608 74.6455 37.9385 75.3459 39.3063C75.5511 39.7068 75.5173 39.7031 75.2989 39.3011C74.6849 38.1709 73.1337 36.539 71.8001 35.6203C71.1853 35.1968 70.3015 34.6655 69.6121 34.3054C68.4529 33.6995 67.7705 33.351 67.7429 33.351C67.6995 33.351 67.6653 33.9807 67.6873 34.3737C67.8063 36.4941 68.7603 37.9535 70.6337 38.8802C71.0409 39.0815 71.6673 39.3257 71.9003 39.3736C71.9645 39.3869 72.0319 39.4088 72.0503 39.4225C72.2833 39.5965 75.4495 40.0474 75.6361 39.9331C75.6953 39.8969 75.6025 38.7329 75.5031 38.2682C74.9091 35.4882 73.4023 33.989 70.4955 33.2857C69.8423 33.1277 67.9217 32.8821 68.0025 32.9671ZM26.4257 46.5414C26.4671 46.5493 26.5271 46.5491 26.5591 46.5408C26.5909 46.5325 26.5569 46.5262 26.4837 46.5264C26.4103 46.5267 26.3843 46.5335 26.4257 46.5414ZM29.7253 46.5414C29.7665 46.5493 29.8341 46.5493 29.8753 46.5414C29.9165 46.5335 29.8827 46.5271 29.8003 46.5271C29.7177 46.5271 29.6841 46.5335 29.7253 46.5414ZM25.5169 47.9719C22.9227 48.048 22.0929 48.0898 21.6837 48.1646C18.5251 48.742 17.0793 51.3825 18.0837 54.7396L18.2009 55.1316L18.1037 55.3225C17.8251 55.8686 17.2183 56.4911 16.6413 56.8224C15.1157 57.6983 13.2151 57.1354 12.4631 55.5849C12.3693 55.3916 12.4101 55.3928 11.5737 55.5573C11.2125 55.6284 10.8457 55.6969 10.7587 55.7096C10.5585 55.7387 10.5585 55.7395 10.7957 56.1929C11.9775 58.4531 14.0333 59.3906 16.4157 58.756C16.6167 58.7024 16.7967 58.6465 16.8157 58.6317C16.8347 58.6168 16.9103 58.5858 16.9837 58.5624C17.3601 58.443 18.0249 58.0096 18.3997 57.6391C18.8257 57.2182 18.9883 57.0035 19.4185 56.2941C19.5093 56.1444 19.6321 55.9438 19.6915 55.8486C19.7949 55.6827 19.8605 55.5542 20.0073 55.23C21.1943 52.6085 22.9325 50.7622 25.8837 48.9871C26.3493 48.7071 26.2947 48.7384 26.8503 48.4333C27.8333 47.8933 27.8335 47.8933 26.9889 48.4515C26.6619 48.6677 26.3469 48.878 26.2889 48.919C26.2311 48.96 26.1311 49.0297 26.0669 49.074C25.8165 49.2469 25.3827 49.5633 25.3669 49.5845C25.3577 49.5967 25.2977 49.6431 25.2337 49.6872C25.0837 49.7906 25.1079 49.7712 24.4837 50.2848C23.6691 50.9548 22.5169 52.1169 22.0669 52.722C22.0211 52.7836 21.9443 52.8794 21.8963 52.9348C21.8131 53.0307 21.2913 53.7971 21.1421 54.042C20.9079 54.427 20.5845 55.0378 20.2687 55.6922C20.1943 55.8464 20.0573 56.0961 19.9641 56.2472C19.7529 56.5901 19.7353 56.5594 20.3053 56.8374C20.9711 57.1619 21.3251 57.3053 21.7587 57.4255C21.8549 57.4522 22.0123 57.4958 22.1087 57.5221C24.7057 58.2353 27.0605 56.9865 27.8475 54.4786C28.0291 53.8999 28.0609 52.6164 27.9367 50.8576C27.7999 48.9178 27.7403 47.9535 27.7555 47.9288C27.7639 47.9153 27.7137 47.9062 27.6439 47.9088C27.5741 47.9114 26.6169 47.9399 25.5169 47.9719ZM14.4837 48.8628C14.0051 48.9178 13.2115 49.0976 13.0409 49.1898C13.0093 49.2069 12.8851 49.2655 12.7649 49.3201C11.2127 50.0256 10.1163 51.6753 10.1183 53.3023L10.1189 53.833L9.55132 53.9219C9.23912 53.9706 8.72112 54.0535 8.40032 54.1062C7.59312 54.2385 6.58872 54.4042 6.35592 54.4436C6.09072 54.4885 6.15752 54.6945 5.78572 52.6873C5.74352 52.4596 5.69912 52.2426 5.68732 52.2054C5.66152 52.125 5.72212 52.11 6.60032 51.9775C6.90272 51.932 7.38272 51.8575 7.66692 51.8122C7.95112 51.7668 8.47612 51.6841 8.83372 51.628C9.93452 51.4556 9.95112 51.4522 9.94092 51.4059C9.92252 51.3213 9.72392 49.9965 9.70872 49.8569C9.68892 49.675 9.66832 49.669 9.27632 49.7336C8.95712 49.786 8.33512 49.8868 7.10032 50.0864C6.76112 50.1412 6.26612 50.2216 6.00032 50.2652C5.73452 50.3086 5.23192 50.3903 4.88372 50.4466C4.17412 50.5612 3.48552 50.6733 3.48012 50.6751C3.47812 50.6756 3.49752 50.7913 3.52332 50.9319C3.54892 51.0724 3.60812 51.4104 3.65452 51.6827C3.70112 51.9549 3.78292 52.4337 3.83632 52.7469C3.88992 53.06 3.97752 53.5722 4.03092 53.8854C4.08432 54.1985 4.17512 54.7293 4.23252 55.0651C4.28992 55.4009 4.38032 55.9355 4.43332 56.2531C4.53452 56.8594 4.56592 56.9756 4.75912 57.4576C5.48412 59.2677 6.73412 60.2147 8.17892 60.0484C8.36412 60.027 8.52612 60.0032 8.53872 59.9955C8.55132 59.9878 8.80672 59.9363 9.10592 59.8813C9.40532 59.8262 9.88292 59.7379 10.1669 59.6853C10.4511 59.6324 10.8561 59.5575 11.0669 59.5185C11.2777 59.4797 11.4545 59.4441 11.4595 59.4391C11.4725 59.4269 11.1779 57.8363 11.1595 57.8193C11.1545 57.8145 11.0677 57.8248 10.9669 57.8421C10.7653 57.8767 10.0313 57.9902 9.19192 58.1167C7.80632 58.3256 7.13412 58.0609 6.70152 57.1354C6.58712 56.8905 6.34172 56.0573 6.37772 56.0357C6.38092 56.0337 6.48872 56.0145 6.61692 55.9929C7.33312 55.8722 8.82152 55.6189 9.75032 55.4597C10.0803 55.4031 10.5977 55.315 10.9003 55.2639C12.5285 54.9893 12.3215 55.0627 12.2707 54.7768C12.0389 53.4734 12.1017 52.7319 12.5007 52.0614C12.6959 51.7334 13.0519 51.3423 13.2753 51.2108C13.3257 51.1811 13.3669 51.1453 13.3669 51.131C13.3669 51.1168 13.3813 51.1051 13.3989 51.1051C13.4163 51.1051 13.5027 51.0635 13.5905 51.0124C14.4449 50.5176 15.8289 50.5208 17.0243 51.0206C17.1749 51.0835 17.3047 51.1245 17.3123 51.1118C17.3201 51.099 17.3655 51.018 17.4133 50.9319C17.5249 50.7307 17.6401 50.5252 17.7233 50.379C17.7593 50.3155 17.8537 50.1448 17.9327 49.9997C18.0117 49.8543 18.0917 49.7163 18.1105 49.6928C18.2303 49.5421 17.0421 49.059 16.1837 48.9095C15.8235 48.8467 14.8545 48.8202 14.4837 48.8628Z" fill="#C1BCCC"/>
</svg>
