<svg width="369" height="201" viewBox="0 0 369 201" fill="none" xmlns="http://www.w3.org/2000/svg">
<path d="M330 192C330 194.122 329.157 196.157 327.657 197.657C326.157 199.157 324.122 200 322 200C319.878 200 317.843 199.157 316.343 197.657C314.843 196.157 314 194.122 314 192C314 189.878 314.843 187.843 316.343 186.343C317.843 184.843 319.878 184 322 184C324.122 184 326.157 184.843 327.657 186.343C329.157 187.843 330 189.878 330 192V192Z" stroke="#02C532" stroke-width="2" stroke-miterlimit="10"/>
<path d="M17 121C17 123.122 16.1571 125.157 14.6569 126.657C13.1566 128.157 11.1217 129 9 129C6.87827 129 4.84343 128.157 3.34314 126.657C1.84285 125.157 1 123.122 1 121C1 118.878 1.84285 116.843 3.34314 115.343C4.84343 113.843 6.87827 113 9 113C11.1217 113 13.1566 113.843 14.6569 115.343C16.1571 116.843 17 118.878 17 121V121Z" stroke="#02C532" stroke-width="2" stroke-miterlimit="10"/>
<path d="M32.506 11.9803C31.6072 11.9803 31.1541 11.2874 30.8199 10.7992C30.4856 10.311 30.311 10.0472 29.9471 10.0472C29.5831 10.0472 29.39 10.3189 29.0743 10.7992C28.7586 11.2795 28.2869 11.9803 27.3881 11.9803C26.4893 11.9803 26.0362 11.2874 25.7057 10.7992C25.3751 10.311 25.1968 10.0472 24.8329 10.0472C24.4689 10.0472 24.2721 10.3189 23.9601 10.7992C23.6481 11.2795 23.1727 11.9803 22.2739 11.9803C21.3751 11.9803 20.922 11.2874 20.5915 10.7992C20.2609 10.311 20.0789 10.0472 19.715 10.0472C19.351 10.0472 19.1579 10.3189 18.8459 10.7992C18.5339 11.2795 18.0585 11.9803 17.1597 11.9803C16.2609 11.9803 15.8078 11.2874 15.4773 10.7992C15.1467 10.311 14.9684 10.0472 14.6045 10.0472C14.2405 10.0472 14.0474 10.3189 13.7317 10.7992C13.416 11.2795 12.9443 11.9803 12.0492 11.9803C11.1541 11.9803 10.6973 11.2874 10.363 10.7992C10.0288 10.311 9.85423 10.0472 9.49397 10.0472C9.36296 10.0472 9.23732 9.99208 9.14468 9.89388C9.05205 9.79568 9 9.6625 9 9.52362C9 9.38475 9.05205 9.25156 9.14468 9.15336C9.23732 9.05516 9.36296 9 9.49397 9C10.389 9 10.8459 9.69685 11.1764 10.2008C11.507 10.7047 11.6852 10.9528 12.0492 10.9528C12.4132 10.9528 12.6063 10.6811 12.922 10.2008C13.2377 9.72047 13.7057 9 14.6045 9C15.5032 9 15.9564 9.69685 16.2869 10.2008C16.6175 10.7047 16.7957 10.9528 17.1597 10.9528C17.5237 10.9528 17.7205 10.6811 18.0325 10.2008C18.3445 9.72047 18.8199 9 19.715 9C20.61 9 21.0706 9.69685 21.4011 10.2008C21.7317 10.7047 21.9099 10.9528 22.2739 10.9528C22.6379 10.9528 22.8347 10.6811 23.1467 10.2008C23.4587 9.72047 23.9341 9 24.8329 9C25.7317 9 26.1848 9.69685 26.5153 10.2008C26.8459 10.7047 27.0241 10.9528 27.3881 10.9528C27.7521 10.9528 27.9489 10.6811 28.2646 10.2008C28.5803 9.72047 29.0483 9 29.9471 9C30.8459 9 31.299 9.69685 31.6332 10.2008C31.9675 10.7047 32.1421 10.9528 32.506 10.9528C32.637 10.9528 32.7627 11.0079 32.8553 11.1061C32.948 11.2043 33 11.3375 33 11.4764C33 11.6153 32.948 11.7484 32.8553 11.8466C32.7627 11.9448 32.637 12 32.506 12V11.9803Z" fill="#4EBDDB"/>
<path d="M44.506 19C43.611 19 43.1541 18.3077 42.8236 17.8031C42.493 17.2986 42.311 17.06 41.9471 17.06C41.5831 17.06 41.39 17.3299 41.0743 17.807C40.7586 18.2842 40.2869 18.9804 39.3918 18.9804C38.4967 18.9804 38.0362 18.2881 37.7057 17.7836C37.3751 17.279 37.1968 17.0404 36.8329 17.0404C36.4689 17.0404 36.2721 17.3103 35.9601 17.7836C35.6481 18.2568 35.1727 18.9804 34.2739 18.9804C33.3751 18.9804 32.922 18.2881 32.5915 17.7836C32.2609 17.279 32.0826 17.0404 31.7187 17.0404C31.3547 17.0404 31.1578 17.3103 30.8459 17.7836C30.5339 18.2568 30.0585 18.9804 29.1597 18.9804C28.2609 18.9804 27.8078 18.2881 27.4773 17.7836C27.1467 17.279 26.9684 17.0404 26.6045 17.0404C26.2405 17.0404 26.0474 17.3103 25.7317 17.7836C25.416 18.2568 24.948 18.9804 24.0492 18.9804C23.1504 18.9804 22.6973 18.2881 22.3668 17.7836C22.0362 17.279 21.8579 17.0404 21.494 17.0404C21.4291 17.0404 21.3649 17.027 21.3049 17.0008C21.245 16.9747 21.1905 16.9364 21.1447 16.8881C21.0988 16.8397 21.0624 16.7824 21.0376 16.7193C21.0128 16.6562 21 16.5885 21 16.5202C21 16.4519 21.0128 16.3842 21.0376 16.3211C21.0624 16.258 21.0988 16.2007 21.1447 16.1524C21.1905 16.1041 21.245 16.0657 21.3049 16.0396C21.3649 16.0135 21.4291 16 21.494 16C22.389 16 22.8459 16.6884 23.1764 17.1734C23.507 17.6584 23.6852 17.9205 24.0492 17.9205C24.4132 17.9205 24.6063 17.6506 24.922 17.1734C25.2377 16.6962 25.7094 16 26.6045 16C27.4995 16 27.9564 16.6884 28.2906 17.1734C28.6249 17.6584 28.7994 17.9205 29.1597 17.9205C29.52 17.9205 29.7205 17.6506 30.0325 17.1734C30.3445 16.6962 30.8199 16 31.7187 16C32.6175 16 33.0706 16.6884 33.4011 17.1734C33.7317 17.6584 33.9099 17.9205 34.2739 17.9205C34.6379 17.9205 34.8347 17.6506 35.1467 17.1734C35.4587 16.6962 35.9341 16 36.8329 16C37.7317 16 38.1848 16.6884 38.519 17.1734C38.8533 17.6584 39.0279 17.9205 39.3918 17.9205C39.7558 17.9205 39.9489 17.6506 40.2646 17.1734C40.5803 16.6962 41.052 16 41.9471 16C42.8422 16 43.3027 16.6884 43.6332 17.1734C43.9638 17.6584 44.1421 17.9205 44.506 17.9205C44.637 17.9205 44.7627 17.9753 44.8553 18.0728C44.948 18.1704 45 18.3027 45 18.4407C45 18.5786 44.948 18.711 44.8553 18.8085C44.7627 18.9061 44.637 18.9609 44.506 18.9609V19Z" fill="#4EBDDB"/>
<path d="M67 5.00001C67 5.5253 66.8965 6.04544 66.6955 6.53075C66.4945 7.01605 66.1999 7.45701 65.8284 7.82844C65.457 8.19988 65.016 8.49452 64.5307 8.69554C64.0454 8.89656 63.5253 9.00002 63 9.00002C62.4747 9.00002 61.9546 8.89656 61.4693 8.69554C60.984 8.49452 60.543 8.19988 60.1716 7.82844C59.8001 7.45701 59.5055 7.01605 59.3045 6.53075C59.1035 6.04544 59 5.5253 59 5.00001C59 3.93914 59.4214 2.92172 60.1716 2.17157C60.9217 1.42143 61.9391 1 63 1C64.0609 1 65.0783 1.42143 65.8284 2.17157C66.5786 2.92172 67 3.93914 67 5.00001V5.00001Z" stroke="#02C532" stroke-miterlimit="10"/>
<path d="M45 192C45 192.525 44.8965 193.045 44.6955 193.531C44.4945 194.016 44.1999 194.457 43.8284 194.828C43.457 195.2 43.016 195.495 42.5307 195.696C42.0454 195.897 41.5253 196 41 196C40.4747 196 39.9546 195.897 39.4693 195.696C38.984 195.495 38.543 195.2 38.1716 194.828C37.8001 194.457 37.5055 194.016 37.3045 193.531C37.1035 193.045 37 192.525 37 192C37 190.939 37.4214 189.922 38.1716 189.172C38.9217 188.421 39.9391 188 41 188C42.0609 188 43.0783 188.421 43.8284 189.172C44.5786 189.922 45 190.939 45 192V192Z" stroke="#02C532" stroke-miterlimit="10"/>
<path d="M113.506 57.9803C112.607 57.9803 112.154 57.2874 111.82 56.7992C111.486 56.311 111.311 56.0472 110.947 56.0472C110.583 56.0472 110.39 56.3189 110.074 56.7992C109.759 57.2795 109.287 57.9803 108.388 57.9803C107.489 57.9803 107.036 57.2874 106.706 56.7992C106.375 56.311 106.197 56.0472 105.833 56.0472C105.469 56.0472 105.272 56.3189 104.96 56.7992C104.648 57.2795 104.173 57.9803 103.274 57.9803C102.375 57.9803 101.922 57.2874 101.591 56.7992C101.261 56.311 101.079 56.0472 100.715 56.0472C100.351 56.0472 100.158 56.3189 99.8459 56.7992C99.5339 57.2795 99.0585 57.9803 98.1597 57.9803C97.2609 57.9803 96.8078 57.2874 96.4773 56.7992C96.1467 56.311 95.9684 56.0472 95.6045 56.0472C95.2405 56.0472 95.0474 56.3189 94.7317 56.7992C94.416 57.2795 93.9443 57.9803 93.0492 57.9803C92.1541 57.9803 91.6973 57.2874 91.363 56.7992C91.0288 56.311 90.8542 56.0472 90.494 56.0472C90.363 56.0472 90.2373 55.9921 90.1447 55.8939C90.052 55.7957 90 55.6625 90 55.5236C90 55.3847 90.052 55.2516 90.1447 55.1534C90.2373 55.0552 90.363 55 90.494 55C91.389 55 91.8459 55.6969 92.1764 56.2008C92.507 56.7047 92.6852 56.9528 93.0492 56.9528C93.4132 56.9528 93.6063 56.6811 93.922 56.2008C94.2377 55.7205 94.7057 55 95.6045 55C96.5032 55 96.9564 55.6969 97.2869 56.2008C97.6175 56.7047 97.7957 56.9528 98.1597 56.9528C98.5237 56.9528 98.7205 56.6811 99.0325 56.2008C99.3445 55.7205 99.8199 55 100.715 55C101.61 55 102.071 55.6969 102.401 56.2008C102.732 56.7047 102.91 56.9528 103.274 56.9528C103.638 56.9528 103.835 56.6811 104.147 56.2008C104.459 55.7205 104.934 55 105.833 55C106.732 55 107.185 55.6969 107.515 56.2008C107.846 56.7047 108.024 56.9528 108.388 56.9528C108.752 56.9528 108.949 56.6811 109.265 56.2008C109.58 55.7205 110.048 55 110.947 55C111.846 55 112.299 55.6969 112.633 56.2008C112.968 56.7047 113.142 56.9528 113.506 56.9528C113.637 56.9528 113.763 57.0079 113.855 57.1061C113.948 57.2043 114 57.3375 114 57.4764C114 57.6153 113.948 57.7484 113.855 57.8466C113.763 57.9448 113.637 58 113.506 58V57.9803Z" fill="#4EBDDB"/>
<path d="M125.506 65C124.611 65 124.154 64.3077 123.824 63.8031C123.493 63.2986 123.311 63.06 122.947 63.06C122.583 63.06 122.39 63.3299 122.074 63.807C121.759 64.2842 121.287 64.9804 120.392 64.9804C119.497 64.9804 119.036 64.2881 118.706 63.7836C118.375 63.279 118.197 63.0404 117.833 63.0404C117.469 63.0404 117.272 63.3103 116.96 63.7836C116.648 64.2568 116.173 64.9804 115.274 64.9804C114.375 64.9804 113.922 64.2881 113.591 63.7836C113.261 63.279 113.083 63.0404 112.719 63.0404C112.355 63.0404 112.158 63.3103 111.846 63.7836C111.534 64.2568 111.058 64.9804 110.16 64.9804C109.261 64.9804 108.808 64.2881 108.477 63.7836C108.147 63.279 107.968 63.0404 107.604 63.0404C107.24 63.0404 107.047 63.3103 106.732 63.7836C106.416 64.2568 105.948 64.9804 105.049 64.9804C104.15 64.9804 103.697 64.2881 103.367 63.7836C103.036 63.279 102.858 63.0404 102.494 63.0404C102.429 63.0404 102.365 63.027 102.305 63.0008C102.245 62.9747 102.191 62.9364 102.145 62.8881C102.099 62.8397 102.062 62.7824 102.038 62.7193C102.013 62.6562 102 62.5885 102 62.5202C102 62.4519 102.013 62.3842 102.038 62.3211C102.062 62.258 102.099 62.2007 102.145 62.1524C102.191 62.1041 102.245 62.0657 102.305 62.0396C102.365 62.0135 102.429 62 102.494 62C103.389 62 103.846 62.6884 104.176 63.1734C104.507 63.6584 104.685 63.9205 105.049 63.9205C105.413 63.9205 105.606 63.6506 105.922 63.1734C106.238 62.6962 106.709 62 107.604 62C108.5 62 108.956 62.6884 109.291 63.1734C109.625 63.6584 109.799 63.9205 110.16 63.9205C110.52 63.9205 110.721 63.6506 111.033 63.1734C111.344 62.6962 111.82 62 112.719 62C113.617 62 114.071 62.6884 114.401 63.1734C114.732 63.6584 114.91 63.9205 115.274 63.9205C115.638 63.9205 115.835 63.6506 116.147 63.1734C116.459 62.6962 116.934 62 117.833 62C118.732 62 119.185 62.6884 119.519 63.1734C119.853 63.6584 120.028 63.9205 120.392 63.9205C120.756 63.9205 120.949 63.6506 121.265 63.1734C121.58 62.6962 122.052 62 122.947 62C123.842 62 124.303 62.6884 124.633 63.1734C124.964 63.6584 125.142 63.9205 125.506 63.9205C125.637 63.9205 125.763 63.9753 125.855 64.0728C125.948 64.1704 126 64.3027 126 64.4407C126 64.5786 125.948 64.711 125.855 64.8085C125.763 64.9061 125.637 64.9609 125.506 64.9609V65Z" fill="#4EBDDB"/>
<path d="M228.506 14.9803C227.607 14.9803 227.154 14.2874 226.82 13.7992C226.486 13.311 226.311 13.0472 225.947 13.0472C225.583 13.0472 225.39 13.3189 225.074 13.7992C224.759 14.2795 224.287 14.9803 223.388 14.9803C222.489 14.9803 222.036 14.2874 221.706 13.7992C221.375 13.311 221.197 13.0472 220.833 13.0472C220.469 13.0472 220.272 13.3189 219.96 13.7992C219.648 14.2795 219.173 14.9803 218.274 14.9803C217.375 14.9803 216.922 14.2874 216.591 13.7992C216.261 13.311 216.079 13.0472 215.715 13.0472C215.351 13.0472 215.158 13.3189 214.846 13.7992C214.534 14.2795 214.058 14.9803 213.16 14.9803C212.261 14.9803 211.808 14.2874 211.477 13.7992C211.147 13.311 210.968 13.0472 210.604 13.0472C210.24 13.0472 210.047 13.3189 209.732 13.7992C209.416 14.2795 208.944 14.9803 208.049 14.9803C207.154 14.9803 206.697 14.2874 206.363 13.7992C206.029 13.311 205.854 13.0472 205.494 13.0472C205.363 13.0472 205.237 12.9921 205.145 12.8939C205.052 12.7957 205 12.6625 205 12.5236C205 12.3847 205.052 12.2516 205.145 12.1534C205.237 12.0552 205.363 12 205.494 12C206.389 12 206.846 12.6969 207.176 13.2008C207.507 13.7047 207.685 13.9528 208.049 13.9528C208.413 13.9528 208.606 13.6811 208.922 13.2008C209.238 12.7205 209.706 12 210.604 12C211.503 12 211.956 12.6969 212.287 13.2008C212.617 13.7047 212.796 13.9528 213.16 13.9528C213.524 13.9528 213.721 13.6811 214.033 13.2008C214.344 12.7205 214.82 12 215.715 12C216.61 12 217.071 12.6969 217.401 13.2008C217.732 13.7047 217.91 13.9528 218.274 13.9528C218.638 13.9528 218.835 13.6811 219.147 13.2008C219.459 12.7205 219.934 12 220.833 12C221.732 12 222.185 12.6969 222.515 13.2008C222.846 13.7047 223.024 13.9528 223.388 13.9528C223.752 13.9528 223.949 13.6811 224.265 13.2008C224.58 12.7205 225.048 12 225.947 12C226.846 12 227.299 12.6969 227.633 13.2008C227.968 13.7047 228.142 13.9528 228.506 13.9528C228.637 13.9528 228.763 14.0079 228.855 14.1061C228.948 14.2043 229 14.3375 229 14.4764C229 14.6153 228.948 14.7484 228.855 14.8466C228.763 14.9448 228.637 15 228.506 15V14.9803Z" fill="#4EBDDB"/>
<path d="M240.506 22C239.611 22 239.154 21.3077 238.824 20.8031C238.493 20.2986 238.311 20.06 237.947 20.06C237.583 20.06 237.39 20.3299 237.074 20.807C236.759 21.2842 236.287 21.9804 235.392 21.9804C234.497 21.9804 234.036 21.2881 233.706 20.7836C233.375 20.279 233.197 20.0404 232.833 20.0404C232.469 20.0404 232.272 20.3103 231.96 20.7836C231.648 21.2568 231.173 21.9804 230.274 21.9804C229.375 21.9804 228.922 21.2881 228.591 20.7836C228.261 20.279 228.083 20.0404 227.719 20.0404C227.355 20.0404 227.158 20.3103 226.846 20.7836C226.534 21.2568 226.058 21.9804 225.16 21.9804C224.261 21.9804 223.808 21.2881 223.477 20.7836C223.147 20.279 222.968 20.0404 222.604 20.0404C222.24 20.0404 222.047 20.3103 221.732 20.7836C221.416 21.2568 220.948 21.9804 220.049 21.9804C219.15 21.9804 218.697 21.2881 218.367 20.7836C218.036 20.279 217.858 20.0404 217.494 20.0404C217.429 20.0404 217.365 20.027 217.305 20.0008C217.245 19.9747 217.191 19.9364 217.145 19.8881C217.099 19.8397 217.062 19.7824 217.038 19.7193C217.013 19.6562 217 19.5885 217 19.5202C217 19.4519 217.013 19.3842 217.038 19.3211C217.062 19.258 217.099 19.2007 217.145 19.1524C217.191 19.1041 217.245 19.0657 217.305 19.0396C217.365 19.0135 217.429 19 217.494 19C218.389 19 218.846 19.6884 219.176 20.1734C219.507 20.6584 219.685 20.9205 220.049 20.9205C220.413 20.9205 220.606 20.6506 220.922 20.1734C221.238 19.6962 221.709 19 222.604 19C223.5 19 223.956 19.6884 224.291 20.1734C224.625 20.6584 224.799 20.9205 225.16 20.9205C225.52 20.9205 225.721 20.6506 226.033 20.1734C226.344 19.6962 226.82 19 227.719 19C228.617 19 229.071 19.6884 229.401 20.1734C229.732 20.6584 229.91 20.9205 230.274 20.9205C230.638 20.9205 230.835 20.6506 231.147 20.1734C231.459 19.6962 231.934 19 232.833 19C233.732 19 234.185 19.6884 234.519 20.1734C234.853 20.6584 235.028 20.9205 235.392 20.9205C235.756 20.9205 235.949 20.6506 236.265 20.1734C236.58 19.6962 237.052 19 237.947 19C238.842 19 239.303 19.6884 239.633 20.1734C239.964 20.6584 240.142 20.9205 240.506 20.9205C240.637 20.9205 240.763 20.9753 240.855 21.0728C240.948 21.1704 241 21.3027 241 21.4407C241 21.5786 240.948 21.711 240.855 21.8085C240.763 21.9061 240.637 21.9609 240.506 21.9609V22Z" fill="#4EBDDB"/>
<path d="M252 14C252 14.5304 251.789 15.0391 251.414 15.4142C251.039 15.7893 250.53 16 250 16C249.47 16 248.961 15.7893 248.586 15.4142C248.211 15.0391 248 14.5304 248 14C248 13.4696 248.211 12.9609 248.586 12.5858C248.961 12.2107 249.47 12 250 12C250.53 12 251.039 12.2107 251.414 12.5858C251.789 12.9609 252 13.4696 252 14V14Z" stroke="#02C532" stroke-miterlimit="10"/>
<path d="M134 47C134 48.0609 133.579 49.0783 132.828 49.8284C132.078 50.5786 131.061 51 130 51C128.939 51 127.922 50.5786 127.172 49.8284C126.421 49.0783 126 48.0609 126 47C126 45.9391 126.421 44.9217 127.172 44.1716C127.922 43.4214 128.939 43 130 43C131.061 43 132.078 43.4214 132.828 44.1716C133.579 44.9217 134 45.9391 134 47V47Z" stroke="#02C532" stroke-miterlimit="10"/>
<path d="M177 193C177 194.061 176.579 195.078 175.828 195.828C175.078 196.579 174.061 197 173 197C171.939 197 170.922 196.579 170.172 195.828C169.421 195.078 169 194.061 169 193C169 191.939 169.421 190.922 170.172 190.172C170.922 189.421 171.939 189 173 189C174.061 189 175.078 189.421 175.828 190.172C176.579 190.922 177 191.939 177 193V193Z" stroke="#02C532" stroke-miterlimit="10"/>
<path d="M368 34C368 34.7956 367.684 35.5587 367.121 36.1213C366.559 36.6839 365.796 37 365 37C364.204 37 363.441 36.6839 362.879 36.1213C362.316 35.5587 362 34.7956 362 34C362 33.2044 362.316 32.4413 362.879 31.8787C363.441 31.3161 364.204 31 365 31C365.796 31 366.559 31.3161 367.121 31.8787C367.684 32.4413 368 33.2044 368 34V34Z" stroke="#02C532" stroke-miterlimit="10"/>
<path d="M356.506 43.9803C355.607 43.9803 355.154 43.2874 354.82 42.7992C354.486 42.311 354.311 42.0472 353.947 42.0472C353.583 42.0472 353.39 42.3189 353.074 42.7992C352.759 43.2795 352.287 43.9803 351.388 43.9803C350.489 43.9803 350.036 43.2874 349.706 42.7992C349.375 42.311 349.197 42.0472 348.833 42.0472C348.469 42.0472 348.272 42.3189 347.96 42.7992C347.648 43.2795 347.173 43.9803 346.274 43.9803C345.375 43.9803 344.922 43.2874 344.591 42.7992C344.261 42.311 344.079 42.0472 343.715 42.0472C343.351 42.0472 343.158 42.3189 342.846 42.7992C342.534 43.2795 342.058 43.9803 341.16 43.9803C340.261 43.9803 339.808 43.2874 339.477 42.7992C339.147 42.311 338.968 42.0472 338.604 42.0472C338.24 42.0472 338.047 42.3189 337.732 42.7992C337.416 43.2795 336.944 43.9803 336.049 43.9803C335.154 43.9803 334.697 43.2874 334.363 42.7992C334.029 42.311 333.854 42.0472 333.494 42.0472C333.363 42.0472 333.237 41.9921 333.145 41.8939C333.052 41.7957 333 41.6625 333 41.5236C333 41.3847 333.052 41.2516 333.145 41.1534C333.237 41.0552 333.363 41 333.494 41C334.389 41 334.846 41.6969 335.176 42.2008C335.507 42.7047 335.685 42.9528 336.049 42.9528C336.413 42.9528 336.606 42.6811 336.922 42.2008C337.238 41.7205 337.706 41 338.604 41C339.503 41 339.956 41.6969 340.287 42.2008C340.617 42.7047 340.796 42.9528 341.16 42.9528C341.524 42.9528 341.721 42.6811 342.033 42.2008C342.344 41.7205 342.82 41 343.715 41C344.61 41 345.071 41.6969 345.401 42.2008C345.732 42.7047 345.91 42.9528 346.274 42.9528C346.638 42.9528 346.835 42.6811 347.147 42.2008C347.459 41.7205 347.934 41 348.833 41C349.732 41 350.185 41.6969 350.515 42.2008C350.846 42.7047 351.024 42.9528 351.388 42.9528C351.752 42.9528 351.949 42.6811 352.265 42.2008C352.58 41.7205 353.048 41 353.947 41C354.846 41 355.299 41.6969 355.633 42.2008C355.968 42.7047 356.142 42.9528 356.506 42.9528C356.637 42.9528 356.763 43.0079 356.855 43.1061C356.948 43.2043 357 43.3375 357 43.4764C357 43.6153 356.948 43.7484 356.855 43.8466C356.763 43.9448 356.637 44 356.506 44V43.9803Z" fill="#4EBDDB"/>
<path d="M368.506 51C367.611 51 367.154 50.3077 366.824 49.8031C366.493 49.2986 366.311 49.06 365.947 49.06C365.583 49.06 365.39 49.3299 365.074 49.807C364.759 50.2842 364.287 50.9804 363.392 50.9804C362.497 50.9804 362.036 50.2881 361.706 49.7836C361.375 49.279 361.197 49.0404 360.833 49.0404C360.469 49.0404 360.272 49.3103 359.96 49.7836C359.648 50.2568 359.173 50.9804 358.274 50.9804C357.375 50.9804 356.922 50.2881 356.591 49.7836C356.261 49.279 356.083 49.0404 355.719 49.0404C355.355 49.0404 355.158 49.3103 354.846 49.7836C354.534 50.2568 354.058 50.9804 353.16 50.9804C352.261 50.9804 351.808 50.2881 351.477 49.7836C351.147 49.279 350.968 49.0404 350.604 49.0404C350.24 49.0404 350.047 49.3103 349.732 49.7836C349.416 50.2568 348.948 50.9804 348.049 50.9804C347.15 50.9804 346.697 50.2881 346.367 49.7836C346.036 49.279 345.858 49.0404 345.494 49.0404C345.429 49.0404 345.365 49.027 345.305 49.0008C345.245 48.9747 345.191 48.9364 345.145 48.8881C345.099 48.8397 345.062 48.7824 345.038 48.7193C345.013 48.6562 345 48.5885 345 48.5202C345 48.4519 345.013 48.3842 345.038 48.3211C345.062 48.258 345.099 48.2007 345.145 48.1524C345.191 48.1041 345.245 48.0657 345.305 48.0396C345.365 48.0135 345.429 48 345.494 48C346.389 48 346.846 48.6884 347.176 49.1734C347.507 49.6584 347.685 49.9205 348.049 49.9205C348.413 49.9205 348.606 49.6506 348.922 49.1734C349.238 48.6962 349.709 48 350.604 48C351.5 48 351.956 48.6884 352.291 49.1734C352.625 49.6584 352.799 49.9205 353.16 49.9205C353.52 49.9205 353.721 49.6506 354.033 49.1734C354.344 48.6962 354.82 48 355.719 48C356.617 48 357.071 48.6884 357.401 49.1734C357.732 49.6584 357.91 49.9205 358.274 49.9205C358.638 49.9205 358.835 49.6506 359.147 49.1734C359.459 48.6962 359.934 48 360.833 48C361.732 48 362.185 48.6884 362.519 49.1734C362.853 49.6584 363.028 49.9205 363.392 49.9205C363.756 49.9205 363.949 49.6506 364.265 49.1734C364.58 48.6962 365.052 48 365.947 48C366.842 48 367.303 48.6884 367.633 49.1734C367.964 49.6584 368.142 49.9205 368.506 49.9205C368.637 49.9205 368.763 49.9753 368.855 50.0728C368.948 50.1704 369 50.3027 369 50.4407C369 50.5786 368.948 50.711 368.855 50.8085C368.763 50.9061 368.637 50.9609 368.506 50.9609V51Z" fill="#4EBDDB"/>
<path d="M72.506 181.98C71.6072 181.98 71.1541 181.287 70.8199 180.799C70.4856 180.311 70.311 180.047 69.9471 180.047C69.5831 180.047 69.39 180.319 69.0743 180.799C68.7586 181.28 68.2869 181.98 67.3881 181.98C66.4893 181.98 66.0362 181.287 65.7057 180.799C65.3751 180.311 65.1968 180.047 64.8329 180.047C64.4689 180.047 64.2721 180.319 63.9601 180.799C63.6481 181.28 63.1727 181.98 62.2739 181.98C61.3751 181.98 60.922 181.287 60.5915 180.799C60.2609 180.311 60.0789 180.047 59.715 180.047C59.351 180.047 59.1579 180.319 58.8459 180.799C58.5339 181.28 58.0585 181.98 57.1597 181.98C56.2609 181.98 55.8078 181.287 55.4773 180.799C55.1467 180.311 54.9684 180.047 54.6045 180.047C54.2405 180.047 54.0474 180.319 53.7317 180.799C53.416 181.28 52.9443 181.98 52.0492 181.98C51.1541 181.98 50.6973 181.287 50.363 180.799C50.0288 180.311 49.8542 180.047 49.494 180.047C49.363 180.047 49.2373 179.992 49.1447 179.894C49.052 179.796 49 179.662 49 179.524C49 179.385 49.052 179.252 49.1447 179.153C49.2373 179.055 49.363 179 49.494 179C50.389 179 50.8459 179.697 51.1764 180.201C51.507 180.705 51.6852 180.953 52.0492 180.953C52.4132 180.953 52.6063 180.681 52.922 180.201C53.2377 179.72 53.7057 179 54.6045 179C55.5032 179 55.9564 179.697 56.2869 180.201C56.6175 180.705 56.7957 180.953 57.1597 180.953C57.5237 180.953 57.7205 180.681 58.0325 180.201C58.3445 179.72 58.8199 179 59.715 179C60.61 179 61.0706 179.697 61.4011 180.201C61.7317 180.705 61.9099 180.953 62.2739 180.953C62.6379 180.953 62.8347 180.681 63.1467 180.201C63.4587 179.72 63.9341 179 64.8329 179C65.7317 179 66.1848 179.697 66.5153 180.201C66.8459 180.705 67.0241 180.953 67.3881 180.953C67.7521 180.953 67.9489 180.681 68.2646 180.201C68.5803 179.72 69.0483 179 69.9471 179C70.8459 179 71.299 179.697 71.6332 180.201C71.9675 180.705 72.1421 180.953 72.506 180.953C72.637 180.953 72.7627 181.008 72.8553 181.106C72.948 181.204 73 181.338 73 181.476C73 181.615 72.948 181.748 72.8553 181.847C72.7627 181.945 72.637 182 72.506 182V181.98Z" fill="#4EBDDB"/>
<path d="M84.506 189C83.611 189 83.1541 188.308 82.8236 187.803C82.493 187.299 82.311 187.06 81.9471 187.06C81.5831 187.06 81.39 187.33 81.0743 187.807C80.7586 188.284 80.2869 188.98 79.3918 188.98C78.4967 188.98 78.0362 188.288 77.7057 187.784C77.3751 187.279 77.1968 187.04 76.8329 187.04C76.4689 187.04 76.2721 187.31 75.9601 187.784C75.6481 188.257 75.1727 188.98 74.2739 188.98C73.3751 188.98 72.922 188.288 72.5915 187.784C72.2609 187.279 72.0826 187.04 71.7187 187.04C71.3547 187.04 71.1578 187.31 70.8459 187.784C70.5339 188.257 70.0585 188.98 69.1597 188.98C68.2609 188.98 67.8078 188.288 67.4773 187.784C67.1467 187.279 66.9684 187.04 66.6045 187.04C66.2405 187.04 66.0474 187.31 65.7317 187.784C65.416 188.257 64.948 188.98 64.0492 188.98C63.1504 188.98 62.6973 188.288 62.3668 187.784C62.0362 187.279 61.8579 187.04 61.494 187.04C61.4291 187.04 61.3649 187.027 61.3049 187.001C61.245 186.975 61.1905 186.936 61.1447 186.888C61.0988 186.84 61.0624 186.782 61.0376 186.719C61.0128 186.656 61 186.589 61 186.52C61 186.452 61.0128 186.384 61.0376 186.321C61.0624 186.258 61.0988 186.201 61.1447 186.152C61.1905 186.104 61.245 186.066 61.3049 186.04C61.3649 186.013 61.4291 186 61.494 186C62.389 186 62.8459 186.688 63.1764 187.173C63.507 187.658 63.6852 187.92 64.0492 187.92C64.4132 187.92 64.6063 187.651 64.922 187.173C65.2377 186.696 65.7094 186 66.6045 186C67.4995 186 67.9564 186.688 68.2906 187.173C68.6249 187.658 68.7994 187.92 69.1597 187.92C69.52 187.92 69.7205 187.651 70.0325 187.173C70.3445 186.696 70.8199 186 71.7187 186C72.6175 186 73.0706 186.688 73.4011 187.173C73.7317 187.658 73.9099 187.92 74.2739 187.92C74.6379 187.92 74.8347 187.651 75.1467 187.173C75.4587 186.696 75.9341 186 76.8329 186C77.7317 186 78.1848 186.688 78.519 187.173C78.8533 187.658 79.0279 187.92 79.3918 187.92C79.7558 187.92 79.9489 187.651 80.2646 187.173C80.5803 186.696 81.052 186 81.9471 186C82.8422 186 83.3027 186.688 83.6332 187.173C83.9638 187.658 84.1421 187.92 84.506 187.92C84.637 187.92 84.7627 187.975 84.8553 188.073C84.948 188.17 85 188.303 85 188.441C85 188.579 84.948 188.711 84.8553 188.809C84.7627 188.906 84.637 188.961 84.506 188.961V189Z" fill="#4EBDDB"/>
<path d="M36.506 95.9803C35.6072 95.9803 35.1541 95.2874 34.8199 94.7992C34.4856 94.311 34.311 94.0472 33.9471 94.0472C33.5831 94.0472 33.39 94.3189 33.0743 94.7992C32.7586 95.2795 32.2869 95.9803 31.3881 95.9803C30.4893 95.9803 30.0362 95.2874 29.7057 94.7992C29.3751 94.311 29.1968 94.0472 28.8329 94.0472C28.4689 94.0472 28.2721 94.3189 27.9601 94.7992C27.6481 95.2795 27.1727 95.9803 26.2739 95.9803C25.3751 95.9803 24.922 95.2874 24.5915 94.7992C24.2609 94.311 24.0789 94.0472 23.715 94.0472C23.351 94.0472 23.1579 94.3189 22.8459 94.7992C22.5339 95.2795 22.0585 95.9803 21.1597 95.9803C20.2609 95.9803 19.8078 95.2874 19.4773 94.7992C19.1467 94.311 18.9684 94.0472 18.6045 94.0472C18.2405 94.0472 18.0474 94.3189 17.7317 94.7992C17.416 95.2795 16.9443 95.9803 16.0492 95.9803C15.1541 95.9803 14.6973 95.2874 14.363 94.7992C14.0288 94.311 13.8542 94.0472 13.494 94.0472C13.363 94.0472 13.2373 93.9921 13.1447 93.8939C13.052 93.7957 13 93.6625 13 93.5236C13 93.3847 13.052 93.2516 13.1447 93.1534C13.2373 93.0552 13.363 93 13.494 93C14.389 93 14.8459 93.6969 15.1764 94.2008C15.507 94.7047 15.6852 94.9528 16.0492 94.9528C16.4132 94.9528 16.6063 94.6811 16.922 94.2008C17.2377 93.7205 17.7057 93 18.6045 93C19.5032 93 19.9564 93.6969 20.2869 94.2008C20.6175 94.7047 20.7957 94.9528 21.1597 94.9528C21.5237 94.9528 21.7205 94.6811 22.0325 94.2008C22.3445 93.7205 22.8199 93 23.715 93C24.61 93 25.0706 93.6969 25.4011 94.2008C25.7317 94.7047 25.9099 94.9528 26.2739 94.9528C26.6379 94.9528 26.8347 94.6811 27.1467 94.2008C27.4587 93.7205 27.9341 93 28.8329 93C29.7317 93 30.1848 93.6969 30.5153 94.2008C30.8459 94.7047 31.0241 94.9528 31.3881 94.9528C31.7521 94.9528 31.9489 94.6811 32.2646 94.2008C32.5803 93.7205 33.0483 93 33.9471 93C34.8459 93 35.299 93.6969 35.6332 94.2008C35.9675 94.7047 36.1421 94.9528 36.506 94.9528C36.637 94.9528 36.7627 95.0079 36.8553 95.1061C36.948 95.2043 37 95.3375 37 95.4764C37 95.6153 36.948 95.7484 36.8553 95.8466C36.7627 95.9448 36.637 96 36.506 96V95.9803Z" fill="#4EBDDB"/>
<path d="M48.506 103C47.611 103 47.1541 102.308 46.8236 101.803C46.493 101.299 46.311 101.06 45.9471 101.06C45.5831 101.06 45.39 101.33 45.0743 101.807C44.7586 102.284 44.2869 102.98 43.3918 102.98C42.4967 102.98 42.0362 102.288 41.7057 101.784C41.3751 101.279 41.1968 101.04 40.8329 101.04C40.4689 101.04 40.2721 101.31 39.9601 101.784C39.6481 102.257 39.1727 102.98 38.2739 102.98C37.3751 102.98 36.922 102.288 36.5915 101.784C36.2609 101.279 36.0826 101.04 35.7187 101.04C35.3547 101.04 35.1578 101.31 34.8459 101.784C34.5339 102.257 34.0585 102.98 33.1597 102.98C32.2609 102.98 31.8078 102.288 31.4773 101.784C31.1467 101.279 30.9684 101.04 30.6045 101.04C30.2405 101.04 30.0474 101.31 29.7317 101.784C29.416 102.257 28.948 102.98 28.0492 102.98C27.1504 102.98 26.6973 102.288 26.3668 101.784C26.0362 101.279 25.8579 101.04 25.494 101.04C25.4291 101.04 25.3649 101.027 25.3049 101.001C25.245 100.975 25.1905 100.936 25.1447 100.888C25.0988 100.84 25.0624 100.782 25.0376 100.719C25.0128 100.656 25 100.589 25 100.52C25 100.452 25.0128 100.384 25.0376 100.321C25.0624 100.258 25.0988 100.201 25.1447 100.152C25.1905 100.104 25.245 100.066 25.3049 100.04C25.3649 100.013 25.4291 100 25.494 100C26.389 100 26.8459 100.688 27.1764 101.173C27.507 101.658 27.6852 101.92 28.0492 101.92C28.4132 101.92 28.6063 101.651 28.922 101.173C29.2377 100.696 29.7094 100 30.6045 100C31.4995 100 31.9564 100.688 32.2906 101.173C32.6249 101.658 32.7994 101.92 33.1597 101.92C33.52 101.92 33.7205 101.651 34.0325 101.173C34.3445 100.696 34.8199 100 35.7187 100C36.6175 100 37.0706 100.688 37.4011 101.173C37.7317 101.658 37.9099 101.92 38.2739 101.92C38.6379 101.92 38.8347 101.651 39.1467 101.173C39.4587 100.696 39.9341 100 40.8329 100C41.7317 100 42.1848 100.688 42.519 101.173C42.8533 101.658 43.0279 101.92 43.3918 101.92C43.7558 101.92 43.9489 101.651 44.2646 101.173C44.5803 100.696 45.052 100 45.9471 100C46.8422 100 47.3027 100.688 47.6332 101.173C47.9638 101.658 48.1421 101.92 48.506 101.92C48.637 101.92 48.7627 101.975 48.8553 102.073C48.948 102.17 49 102.303 49 102.441C49 102.579 48.948 102.711 48.8553 102.809C48.7627 102.906 48.637 102.961 48.506 102.961V103Z" fill="#4EBDDB"/>
<path d="M353.506 170.98C352.607 170.98 352.154 170.287 351.82 169.799C351.486 169.311 351.311 169.047 350.947 169.047C350.583 169.047 350.39 169.319 350.074 169.799C349.759 170.28 349.287 170.98 348.388 170.98C347.489 170.98 347.036 170.287 346.706 169.799C346.375 169.311 346.197 169.047 345.833 169.047C345.469 169.047 345.272 169.319 344.96 169.799C344.648 170.28 344.173 170.98 343.274 170.98C342.375 170.98 341.922 170.287 341.591 169.799C341.261 169.311 341.079 169.047 340.715 169.047C340.351 169.047 340.158 169.319 339.846 169.799C339.534 170.28 339.058 170.98 338.16 170.98C337.261 170.98 336.808 170.287 336.477 169.799C336.147 169.311 335.968 169.047 335.604 169.047C335.24 169.047 335.047 169.319 334.732 169.799C334.416 170.28 333.944 170.98 333.049 170.98C332.154 170.98 331.697 170.287 331.363 169.799C331.029 169.311 330.854 169.047 330.494 169.047C330.363 169.047 330.237 168.992 330.145 168.894C330.052 168.796 330 168.662 330 168.524C330 168.385 330.052 168.252 330.145 168.153C330.237 168.055 330.363 168 330.494 168C331.389 168 331.846 168.697 332.176 169.201C332.507 169.705 332.685 169.953 333.049 169.953C333.413 169.953 333.606 169.681 333.922 169.201C334.238 168.72 334.706 168 335.604 168C336.503 168 336.956 168.697 337.287 169.201C337.617 169.705 337.796 169.953 338.16 169.953C338.524 169.953 338.721 169.681 339.033 169.201C339.344 168.72 339.82 168 340.715 168C341.61 168 342.071 168.697 342.401 169.201C342.732 169.705 342.91 169.953 343.274 169.953C343.638 169.953 343.835 169.681 344.147 169.201C344.459 168.72 344.934 168 345.833 168C346.732 168 347.185 168.697 347.515 169.201C347.846 169.705 348.024 169.953 348.388 169.953C348.752 169.953 348.949 169.681 349.265 169.201C349.58 168.72 350.048 168 350.947 168C351.846 168 352.299 168.697 352.633 169.201C352.968 169.705 353.142 169.953 353.506 169.953C353.637 169.953 353.763 170.008 353.855 170.106C353.948 170.204 354 170.338 354 170.476C354 170.615 353.948 170.748 353.855 170.847C353.763 170.945 353.637 171 353.506 171V170.98Z" fill="#4EBDDB"/>
<path d="M365.506 178C364.611 178 364.154 177.308 363.824 176.803C363.493 176.299 363.311 176.06 362.947 176.06C362.583 176.06 362.39 176.33 362.074 176.807C361.759 177.284 361.287 177.98 360.392 177.98C359.497 177.98 359.036 177.288 358.706 176.784C358.375 176.279 358.197 176.04 357.833 176.04C357.469 176.04 357.272 176.31 356.96 176.784C356.648 177.257 356.173 177.98 355.274 177.98C354.375 177.98 353.922 177.288 353.591 176.784C353.261 176.279 353.083 176.04 352.719 176.04C352.355 176.04 352.158 176.31 351.846 176.784C351.534 177.257 351.058 177.98 350.16 177.98C349.261 177.98 348.808 177.288 348.477 176.784C348.147 176.279 347.968 176.04 347.604 176.04C347.24 176.04 347.047 176.31 346.732 176.784C346.416 177.257 345.948 177.98 345.049 177.98C344.15 177.98 343.697 177.288 343.367 176.784C343.036 176.279 342.858 176.04 342.494 176.04C342.429 176.04 342.365 176.027 342.305 176.001C342.245 175.975 342.191 175.936 342.145 175.888C342.099 175.84 342.062 175.782 342.038 175.719C342.013 175.656 342 175.589 342 175.52C342 175.452 342.013 175.384 342.038 175.321C342.062 175.258 342.099 175.201 342.145 175.152C342.191 175.104 342.245 175.066 342.305 175.04C342.365 175.013 342.429 175 342.494 175C343.389 175 343.846 175.688 344.176 176.173C344.507 176.658 344.685 176.92 345.049 176.92C345.413 176.92 345.606 176.651 345.922 176.173C346.238 175.696 346.709 175 347.604 175C348.5 175 348.956 175.688 349.291 176.173C349.625 176.658 349.799 176.92 350.16 176.92C350.52 176.92 350.721 176.651 351.033 176.173C351.344 175.696 351.82 175 352.719 175C353.617 175 354.071 175.688 354.401 176.173C354.732 176.658 354.91 176.92 355.274 176.92C355.638 176.92 355.835 176.651 356.147 176.173C356.459 175.696 356.934 175 357.833 175C358.732 175 359.185 175.688 359.519 176.173C359.853 176.658 360.028 176.92 360.392 176.92C360.756 176.92 360.949 176.651 361.265 176.173C361.58 175.696 362.052 175 362.947 175C363.842 175 364.303 175.688 364.633 176.173C364.964 176.658 365.142 176.92 365.506 176.92C365.637 176.92 365.763 176.975 365.855 177.073C365.948 177.17 366 177.303 366 177.441C366 177.579 365.948 177.711 365.855 177.809C365.763 177.906 365.637 177.961 365.506 177.961V178Z" fill="#4EBDDB"/>
</svg>
