<svg width="659" height="799" viewBox="0 0 659 799" fill="none" xmlns="http://www.w3.org/2000/svg">
<path d="M92.5383 10.2003C90.5318 10.2003 89.5285 8.76558 88.8463 7.71214C88.164 6.6587 87.7226 6.16708 86.93 6.16708C86.1374 6.16708 85.696 6.72893 85.0137 7.72218C84.3315 8.71542 83.2881 10.2003 81.3217 10.2003C79.3553 10.2003 78.3119 8.76558 77.6296 7.71214C76.9474 6.6587 76.506 6.16708 75.7134 6.16708C74.9208 6.16708 74.4894 6.72892 73.7971 7.71214C73.1049 8.69535 72.0715 10.2003 70.1051 10.2003C68.1386 10.2003 67.1454 8.76558 66.413 7.71214C65.6806 6.6587 65.2994 6.16708 64.4967 6.16708C63.6941 6.16708 63.2727 6.72892 62.5905 7.71214C61.9083 8.69535 60.8649 10.2003 58.8985 10.2003C56.932 10.2003 55.8886 8.76558 55.2064 7.71214C54.5242 6.6587 54.0928 6.16708 53.2901 6.16708C52.4875 6.16708 52.0661 6.72892 51.3839 7.71214C50.7017 8.69535 49.6583 10.2003 47.6919 10.2003C45.7254 10.2003 44.682 8.76558 43.9998 7.71214C43.3176 6.6587 42.8862 6.16708 42.0835 6.16708C41.7962 6.16708 41.5206 6.05293 41.3174 5.84973C41.1141 5.64653 41 5.37093 41 5.08356C41 4.79618 41.1141 4.52058 41.3174 4.31738C41.5206 4.11418 41.7962 4 42.0835 4C44.0901 4 45.0934 5.43469 45.7756 6.47809C46.4578 7.5215 46.8892 8.03319 47.6919 8.03319C48.4945 8.03319 48.9158 7.47134 49.5981 6.47809C50.2803 5.48485 51.3237 4 53.2901 4C55.2566 4 56.3 5.43469 56.9822 6.47809C57.6644 7.5215 58.0958 8.03319 58.8985 8.03319C59.7011 8.03319 60.1224 7.47134 60.8047 6.47809C61.4869 5.48485 62.5303 4 64.4967 4C66.4632 4 67.5066 5.43469 68.1888 6.47809C68.871 7.5215 69.3125 8.03319 70.1051 8.03319C70.8976 8.03319 71.3291 7.47134 72.0213 6.47809C72.7136 5.48485 73.7469 4 75.7134 4C77.6798 4 78.7232 5.43469 79.4054 6.47809C80.0877 7.5215 80.5191 8.03319 81.3217 8.03319C82.1243 8.03319 82.5457 7.47134 83.2279 6.47809C83.9101 5.48485 84.9536 4 86.93 4C88.9065 4 89.8897 5.43469 90.6221 6.47809C91.3545 7.5215 91.7357 8.03319 92.5383 8.03319C92.8257 8.03319 93.1013 8.14734 93.3045 8.35054C93.5077 8.55375 93.6218 8.82934 93.6218 9.11672C93.6218 9.40409 93.5077 9.67969 93.3045 9.88289C93.1013 10.0861 92.8257 10.2003 92.5383 10.2003Z" fill="#4EBDDB"/>
<path d="M117.763 26.4034C115.756 26.4034 114.753 24.9687 114.071 23.9253C113.388 22.8819 112.947 22.3702 112.154 22.3702C111.362 22.3702 110.93 22.932 110.238 23.9253C109.546 24.9185 108.512 26.4034 106.546 26.4034C104.58 26.4034 103.536 24.9687 102.854 23.9253C102.172 22.8819 101.73 22.3702 100.938 22.3702C100.145 22.3702 99.7137 22.932 99.0215 23.9253C98.3292 24.9185 97.2958 26.4034 95.3294 26.4034C93.363 26.4034 92.3697 24.9687 91.6373 23.9253C90.905 22.8819 90.5237 22.3702 89.7211 22.3702C88.9185 22.3702 88.4971 22.932 87.8149 23.9253C87.1326 24.9185 86.0892 26.4034 84.1228 26.4034C82.1564 26.4034 81.113 24.9687 80.4307 23.9253C79.7485 22.8819 79.3171 22.3702 78.5145 22.3702C77.7119 22.3702 77.2905 22.932 76.6083 23.9253C75.926 24.9185 74.8826 26.4034 72.9162 26.4034C70.9498 26.4034 69.9565 24.9687 69.2241 23.9253C68.4917 22.8819 68.1105 22.3702 67.3179 22.3702C67.0305 22.3702 66.7549 22.256 66.5517 22.0528C66.3485 21.8496 66.2344 21.574 66.2344 21.2867C66.2344 20.9993 66.3485 20.7237 66.5517 20.5205C66.7549 20.3173 67.0305 20.2031 67.3179 20.2031C69.3245 20.2031 70.3277 21.6378 70.9999 22.6812C71.6721 23.7246 72.1236 24.2363 72.9162 24.2363C73.7088 24.2363 74.1402 23.6745 74.8224 22.6812C75.5046 21.688 76.5481 20.2031 78.5145 20.2031C80.4809 20.2031 81.5243 21.6378 82.2066 22.6812C82.8888 23.7246 83.3302 24.2363 84.1228 24.2363C84.9154 24.2363 85.3468 23.6745 86.029 22.6812C86.7113 21.688 87.7547 20.2031 89.7211 20.2031C91.6875 20.2031 92.7309 21.6378 93.4131 22.6812C94.0954 23.7246 94.5368 24.2363 95.3294 24.2363C96.122 24.2363 96.5534 23.6745 97.2457 22.6812C97.9379 21.688 98.9713 20.2031 100.938 20.2031C102.904 20.2031 103.948 21.6378 104.63 22.6812C105.312 23.7246 105.743 24.2363 106.546 24.2363C107.349 24.2363 107.77 23.6745 108.462 22.6812C109.155 21.688 110.188 20.2031 112.154 20.2031C114.121 20.2031 115.114 21.6378 115.846 22.6812C116.579 23.7246 116.96 24.2363 117.763 24.2363C118.05 24.2363 118.326 24.3504 118.529 24.5536C118.732 24.7568 118.846 25.0324 118.846 25.3198C118.846 25.6072 118.732 25.8828 118.529 26.086C118.326 26.2892 118.05 26.4034 117.763 26.4034Z" fill="#4EBDDB"/>
<path d="M254.538 608.2C252.532 608.2 251.528 606.766 250.836 605.722C250.144 604.679 249.723 604.167 248.92 604.167C248.117 604.167 247.696 604.729 247.014 605.722C246.332 606.715 245.288 608.2 243.312 608.2C241.335 608.2 240.352 606.766 239.62 605.722C238.887 604.679 238.506 604.167 237.713 604.167C236.921 604.167 236.489 604.729 235.797 605.722C235.105 606.715 234.071 608.2 232.105 608.2C230.139 608.2 229.095 606.766 228.413 605.722C227.731 604.679 227.299 604.167 226.497 604.167C225.694 604.167 225.273 604.729 224.591 605.722C223.908 606.715 222.865 608.2 220.898 608.2C218.932 608.2 217.889 606.766 217.206 605.722C216.524 604.679 216.083 604.167 215.29 604.167C214.498 604.167 214.066 604.729 213.384 605.722C212.702 606.715 211.658 608.2 209.692 608.2C207.725 608.2 206.682 606.766 206 605.722C205.318 604.679 204.886 604.167 204.084 604.167C203.796 604.167 203.521 604.053 203.317 603.85C203.114 603.647 203 603.371 203 603.084C203 602.796 203.114 602.521 203.317 602.317C203.521 602.114 203.796 602 204.084 602C206.09 602 207.093 603.435 207.776 604.478C208.458 605.522 208.889 606.033 209.692 606.033C210.494 606.033 210.916 605.471 211.598 604.478C212.28 603.485 213.324 602 215.29 602C217.257 602 218.3 603.435 218.982 604.478C219.664 605.522 220.096 606.033 220.898 606.033C221.701 606.033 222.122 605.471 222.805 604.478C223.487 603.485 224.53 602 226.497 602C228.463 602 229.507 603.435 230.189 604.478C230.871 605.522 231.302 606.033 232.105 606.033C232.908 606.033 233.329 605.471 234.021 604.478C234.714 603.485 235.747 602 237.713 602C239.68 602 240.673 603.435 241.405 604.478C242.138 605.522 242.519 606.033 243.312 606.033C244.104 606.033 244.546 605.471 245.228 604.478C245.91 603.485 246.954 602 248.92 602C250.886 602 251.93 603.435 252.622 604.478C253.314 605.522 253.736 606.033 254.538 606.033C254.826 606.033 255.101 606.147 255.304 606.351C255.508 606.554 255.622 606.829 255.622 607.117C255.622 607.404 255.508 607.68 255.304 607.883C255.101 608.086 254.826 608.2 254.538 608.2Z" fill="#4EBDDB"/>
<path d="M279.761 624.403C277.754 624.403 276.751 622.968 276.069 621.925C275.387 620.881 274.945 620.37 274.153 620.37C273.36 620.37 272.919 620.932 272.236 621.925C271.554 622.918 270.511 624.403 268.544 624.403C266.578 624.403 265.534 622.968 264.852 621.925C264.17 620.881 263.729 620.37 262.936 620.37C262.143 620.37 261.712 620.932 261.02 621.925C260.328 622.918 259.294 624.403 257.328 624.403C255.361 624.403 254.368 622.968 253.636 621.925C252.903 620.881 252.522 620.37 251.719 620.37C250.917 620.37 250.495 620.932 249.813 621.925C249.131 622.918 248.088 624.403 246.121 624.403C244.155 624.403 243.111 622.968 242.429 621.925C241.747 620.881 241.315 620.37 240.513 620.37C239.71 620.37 239.289 620.932 238.607 621.925C237.924 622.918 236.881 624.403 234.914 624.403C232.948 624.403 231.905 622.968 231.222 621.925C230.54 620.881 230.109 620.37 229.306 620.37C229.019 620.37 228.743 620.256 228.54 620.052C228.337 619.849 228.223 619.574 228.223 619.286C228.223 618.999 228.337 618.723 228.54 618.52C228.743 618.317 229.019 618.203 229.306 618.203C231.313 618.203 232.316 619.637 232.998 620.691C233.68 621.744 234.112 622.236 234.914 622.236C235.717 622.236 236.138 621.674 236.821 620.691C237.503 619.708 238.546 618.203 240.513 618.203C242.479 618.203 243.523 619.637 244.205 620.691C244.887 621.744 245.318 622.236 246.121 622.236C246.924 622.236 247.345 621.674 248.027 620.691C248.71 619.708 249.753 618.203 251.719 618.203C253.686 618.203 254.729 619.637 255.411 620.691C256.094 621.744 256.535 622.236 257.328 622.236C258.12 622.236 258.552 621.704 259.284 620.701C260.016 619.698 261.01 618.213 262.976 618.213C264.943 618.213 265.936 619.647 266.668 620.701C267.401 621.754 267.782 622.246 268.584 622.246C269.387 622.246 269.808 621.684 270.491 620.701C271.173 619.718 272.216 618.213 274.193 618.213C276.169 618.213 277.152 619.647 277.885 620.691C278.617 621.734 278.998 622.246 279.801 622.246C280.088 622.246 280.364 622.36 280.567 622.563C280.77 622.766 280.885 623.042 280.885 623.329C280.885 623.617 280.77 623.892 280.567 624.096C280.364 624.299 280.088 624.413 279.801 624.413L279.761 624.403Z" fill="#4EBDDB"/>
<path d="M94.7863 271.021C92.238 271.021 90.9438 269.165 90.0007 267.811C89.0576 266.456 88.556 265.804 87.5226 265.804C86.4892 265.804 85.9374 266.527 85.0445 267.811C84.1516 269.095 82.8172 271.021 80.2689 271.021C77.7206 271.021 76.4364 269.165 75.4933 267.811C74.5503 266.456 74.0486 265.804 73.0152 265.804C71.9819 265.804 71.4301 266.527 70.5371 267.811C69.6442 269.095 68.3099 271.021 65.7615 271.021C63.2132 271.021 61.929 269.165 60.9859 267.811C60.0429 266.456 59.5412 265.804 58.5079 265.804C57.4745 265.804 56.9327 266.527 56.0398 267.811C55.1469 269.095 53.8125 271.021 51.2642 271.021C48.7159 271.021 47.4317 269.165 46.4886 267.811C45.5455 266.456 45.0439 265.804 44.0105 265.804C42.9771 265.804 42.4354 266.527 41.5424 267.811C40.6495 269.095 39.3152 271.021 36.7668 271.021C34.2185 271.021 32.9343 269.165 31.9913 267.811C31.0482 266.456 30.5465 265.804 29.5232 265.804C29.3294 265.821 29.1344 265.797 28.9504 265.734C28.7664 265.671 28.5974 265.57 28.4543 265.439C28.3111 265.307 28.1968 265.147 28.1186 264.969C28.0404 264.791 28 264.599 28 264.405C28 264.21 28.0404 264.018 28.1186 263.84C28.1968 263.662 28.3111 263.502 28.4543 263.37C28.5974 263.239 28.7664 263.138 28.9504 263.075C29.1344 263.013 29.3294 262.989 29.5232 263.005C32.0615 263.005 33.3557 264.861 34.2888 266.215C35.2218 267.57 35.7335 268.222 36.7668 268.222C37.8002 268.222 38.352 267.5 39.2349 266.215C40.1178 264.931 41.4722 263.005 44.0105 263.005C46.5488 263.005 47.8531 264.861 48.7861 266.215C49.7192 267.57 50.2308 268.222 51.2642 268.222C52.2976 268.222 52.8494 267.5 53.7323 266.215C54.6151 264.931 55.9696 263.005 58.5079 263.005C61.0461 263.005 62.3504 264.861 63.2935 266.215C64.2366 267.57 64.7382 268.222 65.7615 268.222C66.7849 268.222 67.3467 267.5 68.2396 266.215C69.1326 264.931 70.4669 263.005 73.0152 263.005C75.5636 263.005 76.8478 264.861 77.7908 266.215C78.7339 267.57 79.2356 268.222 80.2689 268.222C81.3023 268.222 81.8541 267.5 82.747 266.215C83.6399 264.931 84.9743 263.005 87.5226 263.005C90.0709 263.005 91.3652 264.861 92.2982 266.215C93.2313 267.57 93.753 268.222 94.7863 268.222C95.1371 268.252 95.4639 268.412 95.702 268.671C95.9402 268.93 96.0723 269.27 96.0723 269.622C96.0723 269.974 95.9402 270.313 95.702 270.572C95.4639 270.831 95.1371 270.991 94.7863 271.021Z" fill="#4EBDDB"/>
<path d="M127.445 291.99C124.896 291.99 123.612 290.134 122.669 288.769C121.726 287.405 121.224 286.763 120.191 286.763C119.157 286.763 118.606 287.495 117.713 288.769C116.82 290.043 115.475 291.98 112.927 291.98C110.379 291.98 109.095 290.124 108.152 288.759C107.208 287.395 106.707 286.753 105.683 286.753C104.66 286.753 104.098 287.485 103.205 288.759C102.312 290.033 100.978 291.98 98.4298 291.98C95.8815 291.98 94.5973 290.124 93.6542 288.759C92.7111 287.395 92.2095 286.753 91.1761 286.753C90.1427 286.753 89.5909 287.485 88.698 288.759C87.8051 290.033 86.4707 291.98 83.9224 291.98C81.3741 291.98 80.0899 290.124 79.1468 288.759C78.2037 287.395 77.7021 286.753 76.6787 286.753C75.6554 286.753 75.0936 287.485 74.2006 288.759C73.3077 290.033 71.9734 291.98 69.425 291.98C66.8767 291.98 65.5925 290.124 64.6495 288.759C63.7064 287.395 63.2148 286.753 62.1814 286.753C61.9876 286.769 61.7926 286.745 61.6086 286.682C61.4246 286.619 61.2556 286.519 61.1125 286.387C60.9693 286.256 60.855 286.096 60.7768 285.918C60.6986 285.74 60.6582 285.548 60.6582 285.353C60.6582 285.159 60.6986 284.966 60.7768 284.788C60.855 284.61 60.9693 284.45 61.1125 284.319C61.2556 284.187 61.4246 284.087 61.6086 284.024C61.7926 283.961 61.9876 283.937 62.1814 283.954C64.7297 283.954 66.0139 285.81 66.957 287.164C67.9001 288.518 68.4017 289.171 69.425 289.171C70.4484 289.171 71.0102 288.438 71.9031 287.164C72.7961 285.89 74.1304 283.954 76.6787 283.954C79.2271 283.954 80.5113 285.81 81.4543 287.164C82.3974 288.518 82.8991 289.171 83.9224 289.171C84.9457 289.171 85.5076 288.438 86.4005 287.164C87.2934 285.89 88.6278 283.954 91.1761 283.954C93.7244 283.954 95.0086 285.81 95.9517 287.164C96.8948 288.518 97.3964 289.171 98.4298 289.171C99.4632 289.171 100.015 288.438 100.908 287.164C101.801 285.89 103.135 283.954 105.683 283.954C108.232 283.954 109.516 285.81 110.459 287.164C111.402 288.518 111.904 289.171 112.927 289.171C113.95 289.171 114.522 288.438 115.405 287.164C116.288 285.89 117.643 283.954 120.191 283.954C122.739 283.954 124.023 285.81 124.966 287.164C125.91 288.518 126.411 289.171 127.445 289.171C127.638 289.154 127.833 289.178 128.017 289.241C128.201 289.304 128.37 289.404 128.513 289.536C128.657 289.667 128.771 289.827 128.849 290.005C128.927 290.183 128.968 290.376 128.968 290.57C128.968 290.765 128.927 290.957 128.849 291.135C128.771 291.313 128.657 291.473 128.513 291.604C128.37 291.736 128.201 291.836 128.017 291.899C127.833 291.962 127.638 291.986 127.445 291.97V291.99Z" fill="#4EBDDB"/>
<path d="M626.632 694.21C624.626 694.21 623.623 692.776 622.94 691.722C622.258 690.669 621.817 690.167 621.024 690.167C620.232 690.167 619.8 690.729 619.108 691.722C618.416 692.715 617.382 694.21 615.416 694.21C613.449 694.21 612.406 692.776 611.724 691.722C611.042 690.669 610.6 690.167 609.807 690.167C609.015 690.167 608.583 690.729 607.891 691.722C607.199 692.715 606.166 694.21 604.199 694.21C602.233 694.21 601.189 692.776 600.507 691.722C599.825 690.669 599.393 690.167 598.591 690.167C597.788 690.167 597.367 690.729 596.685 691.722C596.002 692.715 594.959 694.21 592.993 694.21C591.026 694.21 589.983 692.776 589.301 691.722C588.618 690.669 588.187 690.167 587.384 690.167C586.582 690.167 586.16 690.729 585.478 691.722C584.796 692.715 583.752 694.21 581.786 694.21C579.82 694.21 578.826 692.776 578.094 691.722C577.362 690.669 576.98 690.167 576.188 690.167C576.037 690.182 575.886 690.164 575.742 690.117C575.599 690.069 575.467 689.992 575.355 689.891C575.243 689.789 575.154 689.665 575.093 689.527C575.032 689.389 575 689.24 575 689.089C575 688.937 575.032 688.788 575.093 688.65C575.154 688.512 575.243 688.388 575.355 688.286C575.467 688.185 575.599 688.108 575.742 688.06C575.886 688.013 576.037 687.995 576.188 688.01C578.194 688.01 579.147 689.445 579.87 690.488C580.592 691.532 580.993 692.033 581.836 692.033C582.679 692.033 583.06 691.471 583.742 690.478C584.425 689.485 585.468 688 587.434 688C589.401 688 590.444 689.435 591.126 690.478C591.809 691.522 592.25 692.033 593.043 692.033C593.835 692.033 594.267 691.471 594.949 690.478C595.631 689.485 596.675 688 598.641 688C600.607 688 601.651 689.435 602.333 690.478C603.015 691.522 603.457 692.033 604.249 692.033C605.042 692.033 605.473 691.471 606.166 690.478C606.858 689.485 607.891 688 609.858 688C611.824 688 612.817 689.435 613.55 690.478C614.282 691.522 614.663 692.033 615.466 692.033C616.269 692.033 616.69 691.471 617.382 690.478C618.074 689.485 619.108 688 621.074 688C623.041 688 624.034 689.435 624.766 690.478C625.499 691.522 625.88 692.033 626.683 692.033C626.97 692.033 627.246 692.147 627.449 692.351C627.652 692.554 627.766 692.829 627.766 693.117C627.766 693.404 627.652 693.68 627.449 693.883C627.246 694.086 626.97 694.2 626.683 694.2L626.632 694.21Z" fill="#4EBDDB"/>
<path d="M651.854 710.413C649.848 710.413 648.845 708.978 648.162 707.925C647.48 706.872 647.039 706.38 646.246 706.38C645.454 706.38 645.022 706.932 644.33 707.925C643.638 708.918 642.604 710.413 640.638 710.413C638.671 710.413 637.628 708.978 636.946 707.925C636.264 706.872 635.832 706.38 635.03 706.38C634.227 706.38 633.806 706.932 633.113 707.925C632.421 708.918 631.388 710.413 629.421 710.413C627.455 710.413 626.462 708.978 625.729 707.925C624.997 706.872 624.616 706.38 623.823 706.38C623.03 706.38 622.599 706.932 621.907 707.925C621.214 708.918 620.181 710.413 618.215 710.413C616.248 710.413 615.255 708.978 614.523 707.925C613.79 706.872 613.409 706.38 612.606 706.38C611.804 706.38 611.392 706.932 610.7 707.925C610.008 708.918 608.974 710.413 607.008 710.413C605.042 710.413 604.048 708.978 603.316 707.925C602.584 706.872 602.202 706.38 601.41 706.38C601.122 706.38 600.847 706.266 600.644 706.063C600.44 705.859 600.326 705.584 600.326 705.296C600.326 705.009 600.44 704.733 600.644 704.53C600.847 704.327 601.122 704.213 601.41 704.213C603.416 704.213 604.369 705.648 605.102 706.691C605.834 707.734 606.215 708.246 607.008 708.246C607.801 708.246 608.232 707.684 608.924 706.691C609.617 705.698 610.64 704.213 612.606 704.213C614.573 704.213 615.616 705.648 616.298 706.691C616.981 707.734 617.422 708.246 618.215 708.246C619.007 708.246 619.439 707.684 620.131 706.691C620.823 705.698 621.846 704.213 623.823 704.213C625.799 704.213 626.783 705.648 627.515 706.691C628.247 707.734 628.629 708.246 629.421 708.246C630.214 708.246 630.645 707.684 631.337 706.691C632.03 705.698 633.063 704.213 635.03 704.213C636.996 704.213 638.039 705.648 638.722 706.691C639.404 707.734 639.835 708.246 640.638 708.246C641.44 708.246 641.862 707.684 642.554 706.691C643.246 705.698 644.28 704.213 646.246 704.213C648.213 704.213 649.256 705.648 649.938 706.691C650.62 707.734 651.062 708.246 651.854 708.246C652.142 708.246 652.417 708.36 652.621 708.563C652.824 708.767 652.938 709.042 652.938 709.33C652.938 709.617 652.824 709.893 652.621 710.096C652.417 710.299 652.142 710.413 651.854 710.413Z" fill="#4EBDDB"/>
<path d="M67.1364 685.234C64.8389 685.234 63.6751 683.558 62.8223 682.344C61.9695 681.13 61.5181 680.528 60.595 680.528C59.672 680.528 59.1604 681.18 58.3577 682.344C57.5551 683.508 56.3512 685.234 54.0437 685.234C51.7361 685.234 50.5823 683.558 49.7396 682.344C48.8968 681.13 48.4353 680.528 47.5023 680.528C46.5692 680.528 46.0776 681.18 45.275 682.344C44.4724 683.508 43.2685 685.234 40.9609 685.234C38.6534 685.234 37.4996 683.558 36.6569 682.344C35.8141 681.13 35.3526 680.528 34.4196 680.528C33.4865 680.528 32.9949 681.18 32.1923 682.344C31.3897 683.508 30.1857 685.234 27.8782 685.234C25.5707 685.234 24.4169 683.558 23.5741 682.344C22.7314 681.13 22.2699 680.528 21.3368 680.528C20.4038 680.528 19.9122 681.18 19.1095 682.344C18.3069 683.508 17.103 685.234 14.8055 685.234C12.508 685.234 11.3442 683.558 10.4914 682.344C9.63862 681.13 9.19718 680.528 8.26413 680.528C7.92886 680.528 7.60733 680.395 7.37026 680.158C7.13319 679.921 7 679.599 7 679.264C7 678.929 7.13319 678.607 7.37026 678.37C7.60733 678.133 7.92886 678 8.26413 678C10.5616 678 11.7254 679.675 12.5682 680.899C13.4109 682.123 13.8724 682.715 14.8055 682.715C15.7385 682.715 16.2301 682.053 17.0328 680.899C17.8354 679.746 19.0393 678 21.3368 678C23.6343 678 24.7981 679.675 25.6509 680.899C26.5037 682.123 26.9552 682.715 27.8782 682.715C28.8012 682.715 29.3129 682.053 30.1155 680.899C30.9181 679.746 32.1221 678 34.4196 678C36.7171 678 37.8809 679.675 38.7236 680.899C39.5664 682.123 40.0279 682.715 40.9609 682.715C41.894 682.715 42.3956 682.053 43.1982 680.899C44.0008 679.746 45.2048 678 47.5023 678C49.7998 678 50.9636 679.675 51.8164 680.899C52.6692 682.123 53.1206 682.715 54.0437 682.715C54.9667 682.715 55.4783 682.053 56.281 680.899C57.0836 679.746 58.2875 678 60.595 678C62.9026 678 64.0563 679.675 64.8991 680.899C65.7419 682.123 66.2034 682.715 67.1364 682.715C67.3112 682.7 67.4873 682.721 67.6536 682.777C67.8199 682.833 67.9726 682.923 68.1021 683.042C68.2316 683.16 68.335 683.304 68.4057 683.465C68.4765 683.625 68.513 683.799 68.513 683.974C68.513 684.15 68.4765 684.324 68.4057 684.484C68.335 684.645 68.2316 684.789 68.1021 684.907C67.9726 685.026 67.8199 685.116 67.6536 685.172C67.4873 685.228 67.3112 685.249 67.1364 685.234Z" fill="#4EBDDB"/>
<path d="M96.5739 704.145C94.2764 704.145 93.1126 702.47 92.2598 701.246C91.407 700.022 90.9556 699.44 90.0325 699.44C89.1095 699.44 88.5979 700.092 87.7952 701.246C86.9926 702.4 85.7887 704.145 83.4811 704.145C81.1736 704.145 80.0198 702.47 79.1771 701.246C78.3343 700.022 77.8728 699.44 76.9398 699.44C76.0067 699.44 75.5151 700.092 74.7125 701.246C73.9099 702.4 72.7059 704.145 70.3984 704.145C68.0909 704.145 66.9371 702.47 66.0944 701.246C65.2516 700.022 64.7901 699.44 63.8571 699.44C62.924 699.44 62.4324 700.092 61.6298 701.246C60.8272 702.4 59.6232 704.145 57.3157 704.145C55.0082 704.145 53.8544 702.47 53.0116 701.246C52.1689 700.022 51.7074 699.44 50.7743 699.44C49.8413 699.44 49.3497 700.092 48.547 701.246C47.7444 702.4 46.5405 704.145 44.243 704.145C41.9455 704.145 40.7817 702.47 39.9289 701.246C39.0761 700.022 38.6347 699.44 37.7016 699.44C37.3664 699.44 37.0448 699.307 36.8078 699.07C36.5707 698.833 36.4375 698.511 36.4375 698.176C36.4375 697.84 36.5707 697.519 36.8078 697.282C37.0448 697.045 37.3664 696.912 37.7016 696.912C39.9991 696.912 41.1629 698.587 42.0057 699.811C42.8484 701.035 43.3099 701.617 44.243 701.617C45.176 701.617 45.6676 700.965 46.4703 699.811C47.2729 698.657 48.4768 696.912 50.7743 696.912C53.0718 696.912 54.2356 698.587 55.0884 699.811C55.9412 701.035 56.3927 701.617 57.3157 701.617C58.2387 701.617 58.7504 700.965 59.553 699.811C60.3556 698.657 61.5596 696.912 63.8571 696.912C66.1546 696.912 67.3183 698.587 68.1711 699.811C69.0239 701.035 69.4654 701.617 70.3984 701.617C71.3315 701.617 71.8331 700.965 72.6357 699.811C73.4383 698.657 74.6423 696.912 76.9398 696.912C79.2373 696.912 80.4011 698.587 81.2539 699.811C82.1067 701.035 82.5581 701.617 83.4811 701.617C84.4042 701.617 84.9158 700.965 85.7184 699.811C86.5211 698.657 87.725 696.912 90.0325 696.912C92.3401 696.912 93.4938 698.587 94.3366 699.811C95.1793 701.035 95.6409 701.617 96.5739 701.617C96.7399 701.617 96.9043 701.65 97.0577 701.713C97.211 701.777 97.3504 701.87 97.4678 701.987C97.5852 702.105 97.6783 702.244 97.7418 702.397C97.8053 702.551 97.838 702.715 97.838 702.881C97.838 703.047 97.8053 703.211 97.7418 703.365C97.6783 703.518 97.5852 703.658 97.4678 703.775C97.3504 703.892 97.211 703.985 97.0577 704.049C96.9043 704.113 96.7399 704.145 96.5739 704.145Z" fill="#4EBDDB"/>
<path d="M592.548 65.1802C590.542 65.1802 589.589 63.7455 588.856 62.6921C588.124 61.6386 587.743 61.137 586.94 61.137C586.137 61.137 585.716 61.6988 585.024 62.6921C584.332 63.6853 583.298 65.1802 581.332 65.1802C579.365 65.1802 578.372 63.7455 577.64 62.6921C576.907 61.6386 576.526 61.137 575.723 61.137C574.921 61.137 574.499 61.7189 573.797 62.7222C573.095 63.7254 572.071 65.2103 570.105 65.2103C568.139 65.2103 567.095 63.7756 566.413 62.7222C565.731 61.6687 565.289 61.1671 564.497 61.1671C563.704 61.1671 563.273 61.7289 562.58 62.7222C561.888 63.7154 560.855 65.2103 558.888 65.2103C556.922 65.2103 555.929 63.7756 555.196 62.7222C554.464 61.6687 554.083 61.1671 553.29 61.1671C552.498 61.1671 552.066 61.7289 551.374 62.7222C550.682 63.7154 549.648 65.2103 547.682 65.2103C545.715 65.2103 544.672 63.7756 543.99 62.7222C543.308 61.6687 542.876 61.1671 542.084 61.1671C541.796 61.1671 541.521 61.0529 541.317 60.8497C541.114 60.6465 541 60.3709 541 60.0835C541 59.7962 541.114 59.5206 541.317 59.3174C541.521 59.1142 541.796 59 542.084 59C544.09 59 545.093 60.4347 545.776 61.4881C546.458 62.5416 546.889 63.0432 547.682 63.0432C548.474 63.0432 548.906 62.4814 549.598 61.4881C550.29 60.4949 551.324 59 553.29 59C555.257 59 556.25 60.4347 556.982 61.4881C557.715 62.5416 558.096 63.0432 558.888 63.0432C559.681 63.0432 560.112 62.4814 560.805 61.4881C561.497 60.4949 562.53 59 564.497 59C566.463 59 567.456 60.4347 568.189 61.4881C568.921 62.5416 569.302 63.0432 570.105 63.0432C570.908 63.0432 571.329 62.4814 572.011 61.4881C572.694 60.4949 573.737 59 575.703 59C577.67 59 578.713 60.4347 579.395 61.4881C580.078 62.5416 580.519 63.0432 581.312 63.0432C582.104 63.0432 582.536 62.4814 583.228 61.4881C583.92 60.4949 584.954 59 586.92 59C588.886 59 589.93 60.4347 590.612 61.4881C591.294 62.5416 591.736 63.0432 592.528 63.0432C592.816 63.0432 593.091 63.1574 593.294 63.3606C593.498 63.5638 593.612 63.8394 593.612 64.1267C593.612 64.4141 593.498 64.6897 593.294 64.8929C593.091 65.0961 592.816 65.2103 592.528 65.2103L592.548 65.1802Z" fill="#4EBDDB"/>
<path d="M617.769 81.3833C615.763 81.3833 614.809 79.9486 614.077 78.8951C613.345 77.8417 612.963 77.34 612.161 77.34C611.358 77.34 610.937 77.9019 610.245 78.8951C609.552 79.8884 608.519 81.3833 606.553 81.3833C604.586 81.3833 603.593 79.9486 602.86 78.8951C602.128 77.8417 601.747 77.34 600.954 77.34C600.162 77.34 599.72 77.9019 599.038 78.8951C598.356 79.8884 597.312 81.3833 595.346 81.3833C593.38 81.3833 592.336 79.9486 591.654 78.8951C590.972 77.8417 590.53 77.34 589.738 77.34C588.945 77.34 588.514 77.9019 587.821 78.8951C587.129 79.8884 586.096 81.3833 584.129 81.3833C582.163 81.3833 581.119 79.9486 580.447 78.8951C579.775 77.8417 579.324 77.34 578.531 77.34C577.738 77.34 577.307 77.9019 576.615 78.8951C575.922 79.8884 574.889 81.3833 572.923 81.3833C570.956 81.3833 569.963 79.9486 569.241 78.8951C568.518 77.8417 568.117 77.34 567.324 77.34C567.174 77.3546 567.022 77.3375 566.879 77.2899C566.736 77.2423 566.604 77.1652 566.492 77.0637C566.38 76.9621 566.291 76.8383 566.229 76.7001C566.168 76.562 566.137 76.4126 566.137 76.2615C566.137 76.1104 566.168 75.961 566.229 75.8229C566.291 75.6848 566.38 75.5609 566.492 75.4594C566.604 75.3578 566.736 75.2808 566.879 75.2332C567.022 75.1856 567.174 75.1685 567.324 75.183C569.331 75.183 570.284 76.6177 571.016 77.6611C571.749 78.7045 572.13 79.2162 572.923 79.2162C573.715 79.2162 574.147 78.6543 574.839 77.6611C575.531 76.6678 576.565 75.183 578.531 75.183C580.497 75.183 581.491 76.6177 582.223 77.6611C582.955 78.7045 583.337 79.2162 584.129 79.2162C584.922 79.2162 585.353 78.6543 586.046 77.6611C586.738 76.6678 587.771 75.183 589.738 75.183C591.704 75.183 592.697 76.6177 593.43 77.6611C594.162 78.7045 594.543 79.2162 595.346 79.2162C596.149 79.2162 596.57 78.6543 597.252 77.6611C597.934 76.6678 598.978 75.183 600.954 75.183C602.931 75.183 603.914 76.6177 604.646 77.6611C605.379 78.7045 605.76 79.2162 606.553 79.2162C607.345 79.2162 607.777 78.6543 608.469 77.6611C609.161 76.6678 610.194 75.183 612.161 75.183C614.127 75.183 615.171 76.6177 615.853 77.6611C616.535 78.7045 616.977 79.2162 617.769 79.2162C618.057 79.2162 618.332 79.3303 618.535 79.5335C618.739 79.7367 618.853 80.0123 618.853 80.2997C618.853 80.5871 618.739 80.8627 618.535 81.0659C618.332 81.2691 618.057 81.3833 617.769 81.3833Z" fill="#4EBDDB"/>
<path d="M540.928 14.464C540.928 18.0348 539.509 21.4595 536.984 23.9844C534.459 26.5094 531.035 27.9279 527.464 27.9279C523.893 27.9279 520.468 26.5094 517.943 23.9844C515.419 21.4595 514 18.0348 514 14.464C514 10.8931 515.419 7.46848 517.943 4.9435C520.468 2.41851 523.893 1 527.464 1C531.035 1 534.459 2.41851 536.984 4.9435C539.509 7.46848 540.928 10.8931 540.928 14.464V14.464Z" stroke="#02C532" stroke-width="2" stroke-miterlimit="10"/>
<path d="M77.928 72.464C77.928 74.2321 77.5797 75.9829 76.9031 77.6164C76.2264 79.2499 75.2347 80.7342 73.9844 81.9844C72.7342 83.2347 71.2499 84.2264 69.6164 84.9031C67.9829 85.5797 66.2321 85.9279 64.464 85.9279C60.8931 85.9279 57.4685 84.5094 54.9435 81.9844C52.4185 79.4595 51 76.0348 51 72.464C51 68.8931 52.4185 65.4685 54.9435 62.9435C57.4685 60.4185 60.8931 59 64.464 59C68.0348 59 71.4595 60.4185 73.9844 62.9435C76.5094 65.4685 77.928 68.8931 77.928 72.464V72.464Z" stroke="#02C532" stroke-width="2" stroke-miterlimit="10"/>
<path d="M480.872 692.936C480.872 695.041 480.036 697.059 478.547 698.547C477.059 700.036 475.041 700.872 472.936 700.872C470.831 700.872 468.813 700.036 467.324 698.547C465.836 697.059 465 695.041 465 692.936C465 690.831 465.836 688.813 467.324 687.324C468.813 685.836 470.831 685 472.936 685C475.041 685 477.059 685.836 478.547 687.324C480.036 688.813 480.872 690.831 480.872 692.936V692.936Z" stroke="#02C532" stroke-width="2" stroke-miterlimit="10"/>
<path d="M19.4202 788.21C19.4202 790.653 18.4498 792.995 16.7226 794.723C14.9954 796.45 12.6527 797.42 10.2101 797.42C7.76742 797.42 5.42479 796.45 3.69757 794.723C1.97034 792.995 1 790.653 1 788.21C1 785.767 1.97034 783.425 3.69757 781.698C5.42479 779.97 7.76742 779 10.2101 779C12.6527 779 14.9954 779.97 16.7226 781.698C18.4498 783.425 19.4202 785.767 19.4202 788.21Z" stroke="#02C532" stroke-width="2" stroke-miterlimit="10"/>
<path d="M137.42 218.21C137.42 220.653 136.45 222.995 134.723 224.723C132.995 226.45 130.653 227.42 128.21 227.42C125.767 227.42 123.425 226.45 121.698 224.723C119.97 222.995 119 220.653 119 218.21C119 215.767 119.97 213.425 121.698 211.698C123.425 209.97 125.767 209 128.21 209C130.653 209 132.995 209.97 134.723 211.698C136.45 213.425 137.42 215.767 137.42 218.21Z" stroke="#02C532" stroke-width="2" stroke-miterlimit="10"/>
<path d="M657.687 776.344C657.687 779.883 656.281 783.276 653.779 785.779C651.276 788.281 647.883 789.687 644.344 789.687C640.805 789.687 637.411 788.281 634.908 785.779C632.406 783.276 631 779.883 631 776.344C631 772.805 632.406 769.411 634.908 766.908C637.411 764.406 640.805 763 644.344 763C647.883 763 651.276 764.406 653.779 766.908C656.281 769.411 657.687 772.805 657.687 776.344V776.344Z" stroke="#02C532" stroke-width="2" stroke-miterlimit="10"/>
<path d="M351.193 72.0966C351.193 72.7659 351.061 73.4287 350.805 74.047C350.549 74.6654 350.174 75.2272 349.701 75.7005C349.227 76.1738 348.665 76.5492 348.047 76.8053C347.429 77.0615 346.766 77.1933 346.097 77.1933C345.427 77.1933 344.765 77.0615 344.146 76.8053C343.528 76.5492 342.966 76.1738 342.493 75.7005C342.019 75.2272 341.644 74.6654 341.388 74.047C341.132 73.4287 341 72.7659 341 72.0966C341 70.7449 341.537 69.4486 342.493 68.4928C343.449 67.537 344.745 67 346.097 67C347.448 67 348.745 67.537 349.701 68.4928C350.656 69.4486 351.193 70.7449 351.193 72.0966V72.0966Z" stroke="#02C532" stroke-width="2" stroke-miterlimit="10"/>
</svg>
