<svg width="44" height="44" viewBox="0 0 44 44" fill="none" xmlns="http://www.w3.org/2000/svg">
<circle cx="22" cy="22" r="22" fill="#02C532"/>
<path d="M24.6394 20.3205C26.0667 21.7477 26.0667 24.0618 24.6394 25.489C23.2122 26.9163 20.8981 26.9163 19.4708 25.489C18.0436 24.0618 18.0436 21.7477 19.4708 20.3205C20.8981 18.8932 23.2122 18.8932 24.6394 20.3205" stroke="white" stroke-linecap="round" stroke-linejoin="round"/>
<path d="M30.25 19.2503V27.5003C30.25 28.5132 29.4296 29.3337 28.4167 29.3337H15.5833C14.5704 29.3337 13.75 28.5132 13.75 27.5003V19.2503C13.75 18.2374 14.5704 17.417 15.5833 17.417H17.4167L18.7568 15.1217C18.9209 14.8402 19.2225 14.667 19.5488 14.667H24.4108C24.7326 14.667 25.0305 14.8357 25.1964 15.1107L26.5833 17.417H28.4167C29.4296 17.417 30.25 18.2374 30.25 19.2503Z" stroke="white" stroke-linecap="round" stroke-linejoin="round"/>
</svg>
