<svg width="31" height="40" viewBox="0 0 31 40" fill="none" xmlns="http://www.w3.org/2000/svg">
<path d="M1.512 36.334H3.708V37H0.693V30.727H1.512V36.334ZM6.72877 37.081C6.26677 37.081 5.84677 36.976 5.46877 36.766C5.09677 36.556 4.80277 36.259 4.58677 35.875C4.37677 35.485 4.27177 35.035 4.27177 34.525C4.27177 34.021 4.37977 33.577 4.59577 33.193C4.81777 32.803 5.11777 32.506 5.49577 32.302C5.87377 32.092 6.29677 31.987 6.76477 31.987C7.23277 31.987 7.65577 32.092 8.03377 32.302C8.41177 32.506 8.70877 32.8 8.92477 33.184C9.14677 33.568 9.25777 34.015 9.25777 34.525C9.25777 35.035 9.14377 35.485 8.91577 35.875C8.69377 36.259 8.39077 36.556 8.00677 36.766C7.62277 36.976 7.19677 37.081 6.72877 37.081ZM6.72877 36.361C7.02277 36.361 7.29877 36.292 7.55677 36.154C7.81477 36.016 8.02177 35.809 8.17777 35.533C8.33977 35.257 8.42077 34.921 8.42077 34.525C8.42077 34.129 8.34277 33.793 8.18677 33.517C8.03077 33.241 7.82677 33.037 7.57477 32.905C7.32277 32.767 7.04977 32.698 6.75577 32.698C6.45577 32.698 6.17977 32.767 5.92777 32.905C5.68177 33.037 5.48377 33.241 5.33377 33.517C5.18377 33.793 5.10877 34.129 5.10877 34.525C5.10877 34.927 5.18077 35.266 5.32477 35.542C5.47477 35.818 5.67277 36.025 5.91877 36.163C6.16477 36.295 6.43477 36.361 6.72877 36.361ZM12.3686 31.987C12.7946 31.987 13.1666 32.08 13.4846 32.266C13.8086 32.452 14.0486 32.686 14.2046 32.968V32.068H15.0326V37.108C15.0326 37.558 14.9366 37.957 14.7446 38.305C14.5526 38.659 14.2766 38.935 13.9166 39.133C13.5626 39.331 13.1486 39.43 12.6746 39.43C12.0266 39.43 11.4866 39.277 11.0546 38.971C10.6226 38.665 10.3676 38.248 10.2896 37.72H11.0996C11.1896 38.02 11.3756 38.26 11.6576 38.44C11.9396 38.626 12.2786 38.719 12.6746 38.719C13.1246 38.719 13.4906 38.578 13.7726 38.296C14.0606 38.014 14.2046 37.618 14.2046 37.108V36.073C14.0426 36.361 13.8026 36.601 13.4846 36.793C13.1666 36.985 12.7946 37.081 12.3686 37.081C11.9306 37.081 11.5316 36.973 11.1716 36.757C10.8176 36.541 10.5386 36.238 10.3346 35.848C10.1306 35.458 10.0286 35.014 10.0286 34.516C10.0286 34.012 10.1306 33.571 10.3346 33.193C10.5386 32.809 10.8176 32.512 11.1716 32.302C11.5316 32.092 11.9306 31.987 12.3686 31.987ZM14.2046 34.525C14.2046 34.153 14.1296 33.829 13.9796 33.553C13.8296 33.277 13.6256 33.067 13.3676 32.923C13.1156 32.773 12.8366 32.698 12.5306 32.698C12.2246 32.698 11.9456 32.77 11.6936 32.914C11.4416 33.058 11.2406 33.268 11.0906 33.544C10.9406 33.82 10.8656 34.144 10.8656 34.516C10.8656 34.894 10.9406 35.224 11.0906 35.506C11.2406 35.782 11.4416 35.995 11.6936 36.145C11.9456 36.289 12.2246 36.361 12.5306 36.361C12.8366 36.361 13.1156 36.289 13.3676 36.145C13.6256 35.995 13.8296 35.782 13.9796 35.506C14.1296 35.224 14.2046 34.897 14.2046 34.525ZM18.5676 37.081C18.1056 37.081 17.6856 36.976 17.3076 36.766C16.9356 36.556 16.6416 36.259 16.4256 35.875C16.2156 35.485 16.1106 35.035 16.1106 34.525C16.1106 34.021 16.2186 33.577 16.4346 33.193C16.6566 32.803 16.9566 32.506 17.3346 32.302C17.7126 32.092 18.1356 31.987 18.6036 31.987C19.0716 31.987 19.4946 32.092 19.8726 32.302C20.2506 32.506 20.5476 32.8 20.7636 33.184C20.9856 33.568 21.0966 34.015 21.0966 34.525C21.0966 35.035 20.9826 35.485 20.7546 35.875C20.5326 36.259 20.2296 36.556 19.8456 36.766C19.4616 36.976 19.0356 37.081 18.5676 37.081ZM18.5676 36.361C18.8616 36.361 19.1376 36.292 19.3956 36.154C19.6536 36.016 19.8606 35.809 20.0166 35.533C20.1786 35.257 20.2596 34.921 20.2596 34.525C20.2596 34.129 20.1816 33.793 20.0256 33.517C19.8696 33.241 19.6656 33.037 19.4136 32.905C19.1616 32.767 18.8886 32.698 18.5946 32.698C18.2946 32.698 18.0186 32.767 17.7666 32.905C17.5206 33.037 17.3226 33.241 17.1726 33.517C17.0226 33.793 16.9476 34.129 16.9476 34.525C16.9476 34.927 17.0196 35.266 17.1636 35.542C17.3136 35.818 17.5116 36.025 17.7576 36.163C18.0036 36.295 18.2736 36.361 18.5676 36.361ZM26.5475 32.068V37H25.7285V36.271C25.5725 36.523 25.3535 36.721 25.0715 36.865C24.7955 37.003 24.4895 37.072 24.1535 37.072C23.7695 37.072 23.4245 36.994 23.1185 36.838C22.8125 36.676 22.5695 36.436 22.3895 36.118C22.2155 35.8 22.1285 35.413 22.1285 34.957V32.068H22.9385V34.849C22.9385 35.335 23.0615 35.71 23.3075 35.974C23.5535 36.232 23.8895 36.361 24.3155 36.361C24.7535 36.361 25.0985 36.226 25.3505 35.956C25.6025 35.686 25.7285 35.293 25.7285 34.777V32.068H26.5475ZM28.9293 32.743V35.65C28.9293 35.89 28.9803 36.061 29.0823 36.163C29.1843 36.259 29.3613 36.307 29.6133 36.307H30.2163V37H29.4783C29.0223 37 28.6803 36.895 28.4523 36.685C28.2243 36.475 28.1103 36.13 28.1103 35.65V32.743H27.4713V32.068H28.1103V30.826H28.9293V32.068H30.2163V32.743H28.9293Z" fill="#C1BCCC"/>
<path d="M12.5 24.5H7.83333C7.21449 24.5 6.621 24.2542 6.18342 23.8166C5.74583 23.379 5.5 22.7855 5.5 22.1667V5.83333C5.5 5.21449 5.74583 4.621 6.18342 4.18342C6.621 3.74583 7.21449 3.5 7.83333 3.5H12.5" stroke="#02C532" stroke-width="2.33333" stroke-linecap="round" stroke-linejoin="round"/>
<path d="M20.6665 19.8334L26.4998 14L20.6665 8.16669" stroke="#02C532" stroke-width="2.33333" stroke-linecap="round" stroke-linejoin="round"/>
<path d="M26.5 14H12.5" stroke="#02C532" stroke-width="2.33333" stroke-linecap="round" stroke-linejoin="round"/>
</svg>
