<svg width="35" height="37" viewBox="0 0 35 37" fill="none" xmlns="http://www.w3.org/2000/svg">
<g clip-path="url(#clip0)">
<path d="M33.068 6.51083e-08H1.93035C0.864105 0.000562231 -0.000266967 0.91099 6.18528e-08 2.03364V34.8102C0.000534119 35.9325 0.86544 36.8424 1.93195 36.8421H33.068C34.1348 36.8424 34.9997 35.9322 35 34.8093C35 34.809 35 34.8088 35 34.8085V2.03195C34.9995 0.909584 34.1346 -0.000281018 33.068 6.51083e-08Z" fill="#F2F2F2"/>
<path d="M24.165 36.842V22.5945H28.728L29.4116 17.0178H24.165V13.4661C24.165 11.8552 24.5899 10.7575 26.7843 10.7575H29.5654V5.78321C29.0816 5.71547 27.4215 5.56396 25.4898 5.56396C21.4566 5.56396 18.6963 8.15443 18.6963 12.9137V17.0178H14.1504V22.5945H18.6963V36.842H24.165Z" fill="#16348C"/>
</g>
<defs>
<clipPath id="clip0">
<rect width="35" height="36.8421" fill="white"/>
</clipPath>
</defs>
</svg>
