<svg width="35" height="37" viewBox="0 0 35 37" fill="none" xmlns="http://www.w3.org/2000/svg">
<g clip-path="url(#clip0)">
<path d="M17.5 3.31918C22.1727 3.31918 22.7261 3.3379 24.5714 3.42652C26.2777 3.50849 27.2043 3.80858 27.821 4.06078C28.6378 4.39495 29.2208 4.7942 29.8332 5.43878C30.4455 6.08335 30.8248 6.69707 31.1422 7.55684C31.3818 8.20602 31.6669 9.18141 31.7448 10.9774C31.829 12.9199 31.8468 13.5024 31.8468 18.4211C31.8468 23.3397 31.829 23.9223 31.7448 25.8647C31.6669 27.6608 31.3818 28.6362 31.1422 29.2853C30.8248 30.1451 30.4455 30.7588 29.8332 31.4034C29.2208 32.048 28.6378 32.4472 27.821 32.7813C27.2043 33.0336 26.2777 33.3337 24.5714 33.4157C22.7264 33.5043 22.173 33.523 17.5 33.523C12.827 33.523 12.2735 33.5043 10.4285 33.4157C8.72227 33.3337 7.79565 33.0336 7.179 32.7813C6.36215 32.4472 5.77912 32.048 5.16677 31.4034C4.55442 30.7588 4.17514 30.1451 3.85774 29.2853C3.61809 28.6362 3.333 27.6608 3.25512 25.8648C3.17093 23.9223 3.15315 23.3397 3.15315 18.4211C3.15315 13.5024 3.17093 12.9199 3.25512 10.9774C3.333 9.18141 3.61809 8.20602 3.85774 7.55684C4.17514 6.69707 4.55442 6.08335 5.16677 5.43878C5.77912 4.7942 6.36215 4.39495 7.179 4.06078C7.79565 3.80858 8.72227 3.50849 10.4284 3.42652C12.2738 3.3379 12.8272 3.31918 17.5 3.31918ZM17.5 0C12.7472 0 12.1513 0.0212055 10.2848 0.110854C8.42203 0.200356 7.14996 0.511711 6.03677 0.967118C4.88599 1.43788 3.91005 2.06776 2.93718 3.09184C1.9643 4.11592 1.36592 5.14322 0.918693 6.35456C0.486056 7.52635 0.190268 8.86537 0.105242 10.8261C0.0200758 12.7909 0 13.4182 0 18.4211C0 23.424 0.0200758 24.0513 0.105242 26.016C0.190268 27.9768 0.486056 29.3158 0.918693 30.4876C1.36592 31.6989 1.9643 32.7263 2.93718 33.7503C3.91005 34.7744 4.88599 35.4043 6.03677 35.8751C7.14996 36.3305 8.42203 36.6418 10.2848 36.7313C12.1513 36.821 12.7472 36.8421 17.5 36.8421C22.2527 36.8421 22.8487 36.821 24.7152 36.7313C26.5779 36.6418 27.85 36.3305 28.9632 35.8751C30.1139 35.4043 31.0899 34.7744 32.0628 33.7503C33.0356 32.7263 33.634 31.699 34.0812 30.4876C34.5139 29.3158 34.8097 27.9768 34.8947 26.016C34.9799 24.0513 35 23.424 35 18.4211C35 13.4182 34.9799 12.7909 34.8947 10.8261C34.8097 8.86537 34.5139 7.52635 34.0812 6.35456C33.634 5.14322 33.0356 4.11592 32.0628 3.09184C31.0899 2.06776 30.1139 1.43788 28.9632 0.967118C27.85 0.511711 26.5779 0.200356 24.7152 0.110854C22.8487 0.0212055 22.2527 0 17.5 0ZM17.5 8.9616C12.5369 8.9616 8.51345 13.1968 8.51345 18.4211C8.51345 23.6454 12.5369 27.8806 17.5 27.8806C22.4631 27.8806 26.4865 23.6454 26.4865 18.4211C26.4865 13.1968 22.4631 8.9616 17.5 8.9616ZM17.5 24.5615C14.2783 24.5615 11.6666 21.8123 11.6666 18.4211C11.6666 15.0299 14.2783 12.2807 17.5 12.2807C20.7216 12.2807 23.3333 15.0299 23.3333 18.4211C23.3333 21.8123 20.7216 24.5615 17.5 24.5615ZM28.9415 8.58787C28.9415 9.80872 28.0013 10.7984 26.8415 10.7984C25.6817 10.7984 24.7415 9.80872 24.7415 8.58787C24.7415 7.36702 25.6817 6.37738 26.8415 6.37738C28.0013 6.37738 28.9415 7.36702 28.9415 8.58787Z" fill="#F2F2F2"/>
</g>
<defs>
<clipPath id="clip0">
<rect width="35" height="36.8421" fill="white"/>
</clipPath>
</defs>
</svg>
