<svg width="91" height="64" viewBox="0 0 91 64" fill="none" xmlns="http://www.w3.org/2000/svg">
<path fill-rule="evenodd" clip-rule="evenodd" d="M54.4869 13.9403C52.3723 14.0476 50.7153 14.3583 49.6769 14.8419C49.6115 14.8722 49.5466 14.8971 49.5328 14.8971C49.5188 14.8971 49.2932 15.0007 49.0312 15.1272C48.0142 15.6183 47.2609 16.1668 45.879 17.422C44.5967 18.5867 43.2501 19.7774 41.6377 21.1729C39.6825 22.8648 37.3861 24.7953 36.153 25.7839C36.0712 25.8496 35.6375 26.1974 35.1892 26.5572C34.7409 26.9167 34.1578 27.3806 33.8933 27.5881C33.6287 27.7954 33.3934 27.9821 33.3703 28.0029C33.347 28.0237 33.2179 28.1253 33.0834 28.229C32.9491 28.3326 32.8135 28.438 32.7825 28.4634C32.6952 28.5347 32.1504 28.9542 31.7644 29.2475C31.5734 29.3927 31.3977 29.5287 31.3744 29.5498C31.3333 29.5867 29.0778 31.2748 28.7695 31.4995C28.6865 31.5599 28.533 31.6719 28.4281 31.7484C28.3232 31.8249 28.1907 31.9215 28.1337 31.9629C28.0765 32.0043 27.9488 32.0978 27.8495 32.1704C27.7505 32.2428 27.5389 32.3956 27.3793 32.5098C27.0942 32.7139 26.9547 32.8142 26.4882 33.1509C26.2603 33.3154 26.0055 33.4935 25.3782 33.9268C25.2124 34.0413 24.8934 34.2617 24.6694 34.4165C24.4453 34.5713 24.0806 34.8204 23.8591 34.97C23.6377 35.1196 23.4395 35.256 23.4187 35.273C23.3669 35.3158 21.2864 36.6844 20.7167 37.0503C19.6283 37.7499 18.6998 38.3265 17.6159 38.976C17.45 39.0751 17.2551 39.1941 17.1825 39.2403C17.0566 39.3206 16.1237 39.8712 15.8072 40.0522C15.7242 40.0995 15.597 40.1728 15.5246 40.2149C15.452 40.2572 15.2825 40.3531 15.1477 40.4285C14.7121 40.6718 14.3535 40.8922 14.3686 40.9071C14.3765 40.9152 14.5934 40.8858 14.8502 40.8419C16.7952 40.5091 18.9191 40.2176 20.865 40.0167C21.4499 39.956 22.0011 39.8967 22.0895 39.8847C22.3547 39.8483 24.7065 39.6765 25.7173 39.6198C30.5915 39.3455 36.9488 39.4417 41.6752 39.8617C41.8929 39.8809 42.5626 39.9399 43.1637 39.9931C43.7647 40.0461 44.3073 40.0986 44.3695 40.1099C44.4316 40.1212 44.8725 40.1721 45.3491 40.2233C48.0606 40.5131 51.588 41.0173 54.5621 41.54C54.8626 41.5927 55.1237 41.6362 55.1421 41.6362C55.1604 41.6364 55.0503 41.5117 54.8972 41.359C54.6539 41.1166 54.4649 40.8686 54.2033 40.4486C54.1186 40.3126 53.8086 39.689 53.8086 39.6546C53.8086 39.6412 53.7837 39.5768 53.7532 39.5116C53.443 38.8463 53.0702 37.101 52.9585 35.791C52.9275 35.428 52.89 35.0295 52.8749 34.9055L52.8477 34.6801L52.4867 34.4907C52.0634 34.2685 51.6578 34.042 51.4724 33.9241C51.3999 33.8782 51.2303 33.7705 51.0955 33.6849C50.7401 33.4591 50.741 33.4598 50.3262 33.1514C49.8498 32.797 49.7142 32.6834 49.1792 32.1892C48.1153 31.2062 47.3072 29.8003 47.0009 28.3989C46.6536 26.8115 47.1103 24.3054 47.9832 23.0058C49.2543 21.1138 51.1591 19.6801 53.3915 18.9349C54.1764 18.6729 54.6101 18.5776 55.9666 18.3685C56.3057 18.3163 58.0629 18.3176 58.5377 18.3703C60.6647 18.6075 61.886 18.8698 63.8129 19.5027C64.2662 19.6518 64.727 19.815 64.8681 19.8767C64.9095 19.8948 65.1638 19.9962 65.4333 20.1017C65.7026 20.2071 65.9739 20.3169 66.0361 20.3454C66.0982 20.3739 66.3058 20.4662 66.4975 20.5504C67.0471 20.7918 67.2992 20.912 68.1839 21.3542C69.3003 21.9117 69.3833 21.9588 70.4339 22.6261C71.0873 23.0411 71.52 23.3075 71.541 23.3075C71.5505 23.3075 71.6218 23.3498 71.6998 23.4014C73.2638 24.4373 73.867 22.5132 72.4743 20.9308C71.2419 19.5307 68.7862 17.9194 65.7912 16.546C64.5048 15.9561 62.5281 15.2419 61.1752 14.8783C60.4504 14.6835 59.6505 14.4791 59.2724 14.3925C58.8845 14.3035 58.681 14.2682 57.8081 14.1397C57.0749 14.0315 55.0656 13.9109 54.4869 13.9403ZM60.8173 30.3069C60.4078 30.3554 60.0667 30.4067 59.9507 30.4371C59.8781 30.4558 59.6676 30.5077 59.4827 30.5518C58.9975 30.6676 58.0394 31.0688 57.6898 31.3026C57.6381 31.3372 57.4685 31.449 57.3132 31.5511C55.377 32.823 54.5506 35.4079 55.2827 37.9029C55.3464 38.1206 55.4106 38.3159 55.4249 38.3367C55.4394 38.3573 55.4914 38.475 55.5406 38.5981C56.1436 40.1049 57.6362 41.5688 59.3486 42.3329C59.5243 42.4112 59.719 42.4981 59.7811 42.5259C63.779 44.3107 69.4776 42.2404 70.1427 38.7614C70.7102 35.7926 69.0948 32.9794 65.9149 31.3995C65.6411 31.2635 65.4032 31.1521 65.3867 31.1521C65.3702 31.1521 65.2976 31.1207 65.2255 31.0822C65.1532 31.0437 65.0263 30.9908 64.9434 30.9645C64.8604 30.9383 64.7417 30.8944 64.6795 30.867C63.7781 30.4692 61.8299 30.1866 60.8173 30.3069ZM38.4724 40.8824C37.486 40.958 36.2226 41.3307 35.4777 41.7658C33.8639 42.7086 33.4203 45.3002 34.6147 46.808C35.2475 47.6065 35.8837 47.8595 37.8715 48.1019C39.091 48.2505 39.8231 48.6277 39.7842 49.0871C39.7519 49.4718 38.7711 49.4854 37.9425 49.1127C37.8505 49.0713 37.5294 48.94 37.229 48.821C36.9283 48.7022 36.5808 48.5576 36.4564 48.5001C35.0664 47.8563 34.3805 47.6864 33.8621 47.8577C33.352 48.0261 32.8901 50.0199 33.2152 50.6492C33.3231 50.858 34.2656 51.4115 34.9299 51.6559C35.0649 51.7057 35.2091 51.7616 35.2507 51.7801C35.7099 51.9867 37.1602 52.3558 38.0768 52.4995C40.4643 52.8736 42.8223 51.8838 43.7052 50.1366C44.3374 48.8859 44.2971 47.857 43.5804 46.9476C43.2155 46.4844 42.0998 45.7874 41.2042 45.4634C41.1007 45.4258 40.999 45.3833 40.9782 45.369C40.8029 45.2475 39.3338 44.854 38.8615 44.8024C38.0474 44.7132 37.9739 44.4987 38.6386 44.1518C39.233 43.8418 39.9954 44 40.9782 44.6372C41.3797 44.8976 42.072 45.2733 42.2594 45.3326C42.3421 45.3588 42.4269 45.393 42.4477 45.4088C43.0921 45.8978 44.0869 44.8662 44.0869 43.709C44.0869 42.762 43.828 42.4103 42.6926 41.8154C41.2978 41.0847 39.8914 40.7736 38.4724 40.8824ZM79.5637 42.0514C78.9994 42.11 78.212 42.3327 77.9133 42.5187C77.2798 42.9127 77.0069 43.1322 76.5663 43.6031L76.2821 43.907L76.0309 43.7348C74.4849 42.6755 72.8727 42.7812 71.2824 44.0459L71.0054 44.2663L70.9451 44.1609C70.6989 43.7314 69.6693 43.7008 68.4665 44.0875C67.3358 44.451 67.3568 44.4351 67.4134 44.8673C67.4348 45.0298 67.4936 45.5193 67.5443 45.9549C68.0159 50.0144 68.478 52.6516 69.0213 54.384C69.201 54.957 69.1769 54.9364 69.6057 54.8841C70.466 54.7789 72.2541 54.3566 72.6163 54.1731C72.8266 54.0665 72.865 52.6312 72.6832 51.6686C72.6618 51.5545 72.6046 51.249 72.556 50.9897C72.4619 50.486 72.3012 49.7992 72.1415 49.2172C71.6132 47.2929 71.6014 47.0691 72.0124 46.7951C73.1268 46.0522 73.9871 47.1496 74.3246 49.7451C74.3585 50.0045 74.4022 50.3186 74.4216 50.443C74.4723 50.7637 74.5261 51.6555 74.5564 52.6796L74.5826 53.5585L74.6805 53.6083C75.025 53.7839 75.7044 53.8344 76.21 53.7224C76.9235 53.5642 78.2325 53.0193 78.3515 52.831C78.5468 52.5217 78.699 51.0117 78.6092 50.2733C78.4448 48.9217 78.4096 48.6481 78.377 48.4818C78.2219 47.6841 78.0589 47.1682 77.815 46.7021L77.673 46.4312L77.9402 46.1671C79.311 44.8112 80.4059 46.4249 80.032 49.2496C79.9528 49.8474 79.9189 50.0224 79.7652 50.6315C79.6653 51.0271 79.6343 52.3678 79.7213 52.5196C79.8061 52.6672 81.3559 52.7536 82.0622 52.65C83.525 52.4352 83.6618 52.3993 83.7619 52.2031C84.2024 51.3387 84.2675 49.5469 83.9191 47.8783C83.79 47.2605 83.5268 46.1963 83.2845 45.3133C82.6263 42.9142 81.4224 41.8588 79.5637 42.0514ZM45.6129 42.3363C45.5716 42.346 45.4481 42.3721 45.3389 42.3942C44.9062 42.4818 44.8461 42.6651 44.9311 43.6354C44.9629 43.9986 45.0314 44.7877 45.0832 45.3891C45.1352 45.9908 45.1877 46.5509 45.2001 46.6337C45.2125 46.7168 45.2632 47.1834 45.3127 47.671C45.6959 51.448 45.9598 52.8681 46.3543 53.2777C46.6312 53.5653 47.6905 53.7049 49.5964 53.7052C50.0415 53.7052 49.843 54.0385 51.952 49.7535C52.0874 49.4779 52.2034 49.2575 52.2093 49.2634C52.2151 49.2693 52.2389 49.6899 52.2615 50.1979C52.2843 50.7062 52.3282 51.266 52.3589 51.4423C52.3897 51.6186 52.4561 52.0345 52.5066 52.3665C52.7577 54.0163 53.2997 54.5089 55.1396 54.759C55.9046 54.8628 56.2562 54.8067 56.5239 54.5381C57.0147 54.0455 57.5589 53.2779 58.3136 52.0141C58.5322 51.6478 58.7267 51.3226 58.7457 51.2916C58.7949 51.2106 59.2566 50.3842 59.4517 50.028C59.6631 49.6417 60.319 48.3035 60.4773 47.9349C60.6371 47.5633 60.8474 47.0802 60.9181 46.9229C60.9491 46.8539 61.0052 46.6926 61.0427 46.5647C61.0802 46.4368 61.1467 46.2133 61.1903 46.0682C61.4049 45.3529 61.2794 45.0692 60.6477 44.8427C60.5234 44.7981 60.3877 44.7463 60.3463 44.7275C60.3047 44.7087 60.1013 44.6322 59.8942 44.5578C58.2903 43.9805 58.0547 44.0319 57.374 45.1063C57.1728 45.424 56.6347 46.5124 56.6347 46.6018C56.6347 46.6143 56.5933 46.7199 56.5427 46.8365C56.4341 47.0861 56.3222 47.3784 56.1077 47.9726C55.9483 48.4141 55.726 48.9939 55.6379 49.1984C55.6112 49.2607 55.5592 49.3926 55.5223 49.4915C55.4253 49.7533 55.4278 49.7757 55.3715 48.0799C55.3044 46.0492 55.2481 45.3611 55.0894 44.6268C54.961 44.0328 54.7466 43.8599 53.9544 43.7115C52.8895 43.5119 52.1658 43.4854 51.8724 43.6352C51.7089 43.7187 51.4347 43.9905 51.4347 44.0685C51.4347 44.0993 51.1982 44.5727 50.9258 45.0875C50.838 45.2534 50.6178 45.6693 50.4365 46.0114C50.2552 46.3538 49.9961 46.846 49.8611 47.1053C49.7259 47.3646 49.536 47.7208 49.4392 47.8973C49.3422 48.0736 49.2407 48.2734 49.2134 48.3415C49.1381 48.5291 49.139 48.5361 49.0212 46.9489C48.7325 43.057 48.7361 43.0779 48.2943 42.7873C47.867 42.5063 46.1336 42.2146 45.6129 42.3363ZM62.978 44.8404C62.2068 44.8911 62.0768 45.0158 62.0192 45.7598C62.0013 45.9915 61.9608 46.3934 61.9294 46.6527C61.8175 47.5751 61.7811 48.7923 61.8302 49.9837C61.8851 51.3181 61.9312 51.8435 62.1711 53.8561C62.2118 54.1982 62.2636 54.6467 62.2859 54.8527C62.3083 55.0586 62.3474 55.2702 62.3728 55.3229C62.5285 55.6478 64.1645 55.7673 64.9811 55.5134C65.0433 55.4939 65.2172 55.4435 65.3675 55.4009C65.6852 55.3111 65.6951 55.2962 65.8457 54.6863C66.1921 53.2825 66.2359 48.2682 65.9205 46.1058C65.9083 46.0227 65.8848 45.7623 65.8681 45.5272C65.8335 45.0386 65.8267 45.0264 65.5156 44.9171C65.2646 44.8289 63.8186 44.7852 62.978 44.8404Z" fill="#F2F2F2"/>
<path fill-rule="evenodd" clip-rule="evenodd" d="M74.6361 11.594C74.0779 12.5233 73.7187 13.2171 73.3847 14.0109C73.0596 14.7839 72.8125 15.6671 72.6895 16.496C72.3578 18.7308 73.1408 20.6427 74.9667 22.057C75.1326 22.1855 75.2852 22.3039 75.3058 22.3202C75.4505 22.4338 75.8954 22.7039 75.9379 22.7039C75.9913 22.7039 76.0128 22.5641 76.2445 20.7052C76.2949 20.3006 76.3539 19.834 76.3759 19.6681C76.4991 18.7265 76.524 16.5397 76.4195 15.8022C76.3374 15.2225 76.226 14.5769 76.1545 14.268C75.9187 13.2472 75.7808 12.7084 75.7412 12.6532C75.7263 12.6324 75.6773 12.5109 75.6318 12.3833C75.5864 12.2556 75.4733 12.002 75.3804 11.82C75.2038 11.4734 75.1729 11.3928 75.2689 11.5302C75.335 11.6245 75.8145 12.5745 75.8145 12.6109C75.8145 12.6243 75.8477 12.7071 75.8884 12.7949C76.0973 13.2474 76.3824 14.1517 76.5454 14.8783C76.7383 15.7384 76.8466 17.0868 76.8208 18.3065C76.7876 19.8903 76.6677 21.689 76.5685 22.1007C76.495 22.4046 76.4839 22.7297 76.5499 22.6474C76.7975 22.3387 77.4541 21.0937 77.7871 20.3019C79.2078 16.9217 78.4997 13.9157 75.7392 11.6076C74.9255 10.9273 75.0354 10.9287 74.6361 11.594ZM81.7047 18.71C80.3853 18.8639 79.2123 19.6742 78.3419 21.0335C78.1486 21.3354 77.5979 22.4666 77.5285 22.7039C77.5133 22.756 77.4841 22.8196 77.4633 22.8454C77.3311 23.0108 77.5719 22.8535 77.7403 22.6646C77.9096 22.4745 78.8952 21.6001 79.3618 21.2258C80.8151 20.0598 81.8173 19.5258 83.1768 19.1922C83.3776 19.1429 83.3886 19.1737 83.1908 19.2314C82.371 19.471 80.9896 20.2119 80.1667 20.8538C79.5847 21.3078 77.6609 23.1056 77.6609 23.1957C77.6609 23.2135 77.8511 23.2889 78.0835 23.3633C80.256 24.0585 81.9665 23.3382 83.2905 21.1709C83.4067 20.9808 83.5014 20.8124 83.5014 20.7966C83.5014 20.7807 83.5245 20.7409 83.5525 20.7081C83.6556 20.5879 84.2928 19.1313 84.2928 19.0159C84.2928 18.9652 84.2634 18.9564 83.7088 18.8401C82.9353 18.6779 82.3213 18.638 81.7047 18.71ZM75.174 23.9272C73.9764 24.4194 72.9714 25.1399 72.2708 26.0089C71.5989 26.8423 71.2733 28.3362 71.5154 29.4737C71.7947 30.7848 71.7458 30.7301 72.3694 30.4364C72.5466 30.3529 72.6983 30.2845 72.7067 30.2845C72.9192 30.2845 74.5758 29.1635 74.9667 28.7551C76.1783 27.4892 76.4584 26.1953 75.8807 24.5332C75.6929 23.9926 75.6942 23.9938 75.4828 24.2253C75.3856 24.3321 75.2197 24.5126 75.1145 24.6271C75.0092 24.7414 74.8136 24.9537 74.68 25.099C73.56 26.3148 72.7087 27.623 72.3237 28.7195C72.2945 28.8024 72.2471 28.9212 72.2184 28.9834C72.1896 29.0456 72.1288 29.2205 72.0832 29.3721C71.9613 29.7767 71.9489 29.674 72.0628 29.2031C72.1808 28.7155 72.3097 28.3401 72.505 27.9142C72.5844 27.7411 72.6493 27.5933 72.6493 27.5856C72.6493 27.496 73.3902 26.341 73.7802 25.8226C74.5423 24.8098 74.7514 24.5518 75.1256 24.1637C75.4519 23.8256 75.4546 23.8121 75.174 23.9272ZM76.8721 23.9623C76.8839 23.9748 77.1986 24.1445 77.5719 24.3395C77.9449 24.5344 78.3847 24.7801 78.549 24.8853C78.7134 24.9906 78.9919 25.1687 79.1683 25.2813C79.9426 25.7762 80.3371 26.0326 80.6116 26.2191C80.8951 26.4119 81.8426 27.1095 81.8813 27.1541C81.8915 27.1661 81.9509 27.215 82.0131 27.2627C83.2116 28.1837 84.3816 29.6439 85.1734 31.2071C85.4053 31.6649 85.3671 31.6606 85.1202 31.2012C84.4261 29.9096 82.6726 28.0445 81.1651 26.9946C80.4701 26.5105 79.471 25.9034 78.6917 25.4918C77.3813 24.7994 76.6099 24.4011 76.5787 24.4011C76.5296 24.4011 76.4909 25.1207 76.5158 25.5699C76.6503 27.9932 77.7288 29.6611 79.8465 30.7201C80.3068 30.9503 81.0149 31.2293 81.2783 31.284C81.3509 31.2992 81.4271 31.3243 81.4479 31.3399C81.7113 31.5388 85.2905 32.0541 85.5014 31.9235C85.5683 31.8821 85.4634 30.5518 85.3511 30.0207C84.6796 26.8436 82.9762 25.1302 79.6903 24.3264C78.9519 24.1458 76.7808 23.8652 76.8721 23.9623ZM29.8723 39.4758C29.9191 39.4849 29.9869 39.4846 30.0231 39.4751C30.059 39.4656 30.0206 39.4584 29.9378 39.4586C29.8549 39.4591 29.8255 39.4668 29.8723 39.4758ZM33.6022 39.4758C33.6488 39.4849 33.7252 39.4849 33.7718 39.4758C33.8184 39.4668 33.7802 39.4595 33.687 39.4595C33.5937 39.4595 33.5557 39.4668 33.6022 39.4758ZM28.8449 41.1107C25.9123 41.1976 24.9743 41.2454 24.5117 41.3309C20.9411 41.9908 19.3068 45.0085 20.4422 48.8452L20.5747 49.2932L20.4648 49.5114C20.1498 50.1355 19.4639 50.8469 18.8116 51.2255C17.087 52.2266 14.9385 51.5833 14.0884 49.8112C13.9824 49.5904 14.0285 49.5917 13.083 49.7798C12.6747 49.861 12.2601 49.9393 12.1617 49.9538C11.9354 49.987 11.9354 49.9879 12.2036 50.5061C13.5395 53.0892 15.8635 54.1607 18.5566 53.4354C18.7838 53.3741 18.9873 53.3103 19.0088 53.2933C19.0303 53.2763 19.1157 53.2408 19.1987 53.2141C19.6242 53.0776 20.3757 52.5823 20.7994 52.1589C21.281 51.6778 21.4648 51.4325 21.9511 50.6218C22.0537 50.4507 22.1925 50.2215 22.2597 50.1126C22.3766 49.923 22.4507 49.7761 22.6167 49.4057C23.9585 46.4097 25.9234 44.2996 29.2596 42.2709C29.7859 41.9509 29.7242 41.9867 30.3522 41.638C31.4635 41.0209 31.4637 41.0209 30.5089 41.6588C30.1393 41.9059 29.7832 42.1462 29.7176 42.1931C29.6523 42.2399 29.5392 42.3196 29.4667 42.3702C29.1836 42.5678 28.6932 42.9294 28.6754 42.9536C28.665 42.9676 28.5971 43.0206 28.5248 43.071C28.3552 43.1892 28.3826 43.167 27.677 43.754C26.7561 44.5197 25.4536 45.8478 24.9449 46.5393C24.8931 46.6097 24.8063 46.7192 24.7521 46.7826C24.658 46.8921 24.0682 47.7681 23.8995 48.048C23.6347 48.4879 23.2692 49.186 22.9122 49.9339C22.8281 50.1101 22.6732 50.3955 22.5678 50.5681C22.3291 50.9601 22.3092 50.925 22.9535 51.2427C23.7062 51.6136 24.1064 51.7774 24.5965 51.9148C24.7053 51.9453 24.8832 51.9951 24.9922 52.0252C27.9279 52.8403 30.5899 51.4131 31.4795 48.5469C31.6848 47.8855 31.7207 46.4187 31.5803 44.4086C31.4257 42.1917 31.3583 41.0897 31.3755 41.0614C31.385 41.046 31.3283 41.0356 31.2494 41.0385C31.1705 41.0415 30.0884 41.0741 28.8449 41.1107ZM16.3726 42.1288C15.8316 42.1917 14.9345 42.3972 14.7416 42.5026C14.7059 42.5221 14.5655 42.5891 14.4296 42.6515C12.675 43.4578 11.4355 45.3432 11.4378 47.2026L11.4385 47.809L10.7969 47.9106C10.4439 47.9663 9.85836 48.0611 9.49572 48.1213C8.58323 48.2725 7.44782 48.4619 7.18466 48.5069C6.88487 48.5583 6.96038 48.7936 6.54008 46.4997C6.49238 46.2395 6.44219 45.9915 6.42885 45.949C6.39968 45.8571 6.46819 45.8399 7.46094 45.6885C7.80278 45.6365 8.34539 45.5514 8.66666 45.4995C8.98793 45.4477 9.58141 45.3531 9.98565 45.2891C11.23 45.092 11.2488 45.0882 11.2373 45.0352C11.2165 44.9386 10.992 43.4245 10.9748 43.265C10.9524 43.057 10.9291 43.0502 10.486 43.124C10.1251 43.184 9.42202 43.2991 8.02615 43.5272C7.64271 43.5899 7.08315 43.6818 6.78268 43.7316C6.48221 43.7811 5.91405 43.8746 5.52043 43.9389C4.71828 44.0699 3.93986 44.198 3.93375 44.2C3.93149 44.2007 3.95342 44.3328 3.98259 44.4935C4.01153 44.6541 4.07845 45.0404 4.1309 45.3516C4.18358 45.6627 4.27605 46.2099 4.33641 46.5678C4.39701 46.9256 4.49603 47.511 4.5564 47.869C4.61676 48.2268 4.71941 48.8334 4.78429 49.2172C4.84918 49.601 4.95137 50.212 5.01128 50.5749C5.12568 51.2678 5.16118 51.4006 5.37958 51.9514C6.19915 54.0201 7.61219 55.1025 9.24544 54.9124C9.4548 54.8879 9.63793 54.8608 9.65217 54.852C9.66642 54.8431 9.95513 54.7843 10.2934 54.7214C10.6318 54.6585 11.1717 54.5576 11.4927 54.4974C11.814 54.4369 12.2718 54.3514 12.5101 54.3068C12.7484 54.2625 12.9483 54.2217 12.9539 54.2161C12.9686 54.2021 12.6356 52.3843 12.6148 52.3648C12.6092 52.3594 12.511 52.3712 12.3971 52.3909C12.1692 52.4305 11.3395 52.5601 10.3906 52.7047C8.82424 52.9435 8.06436 52.6409 7.57534 51.5833C7.44602 51.3033 7.16861 50.3511 7.2093 50.3265C7.21292 50.3242 7.33478 50.3022 7.4797 50.2776C8.28932 50.1395 9.97186 49.8501 11.0218 49.6682C11.3949 49.6035 11.9797 49.5028 12.3218 49.4444C14.1624 49.1305 13.9284 49.2145 13.871 48.8877C13.6089 47.3981 13.6799 46.5507 14.131 45.7844C14.3516 45.4095 14.7541 44.9626 15.0066 44.8123C15.0636 44.7784 15.1101 44.7374 15.1101 44.7211C15.1101 44.7048 15.1264 44.6915 15.1463 44.6915C15.166 44.6915 15.2636 44.644 15.3629 44.5856C16.3287 44.0201 17.8933 44.0237 19.2446 44.5949C19.4148 44.6668 19.5616 44.7137 19.5702 44.6992C19.579 44.6845 19.6303 44.5919 19.6843 44.4935C19.8105 44.2636 19.9407 44.0287 20.0348 43.8617C20.0755 43.7891 20.1822 43.594 20.2715 43.4281C20.3608 43.262 20.4512 43.1043 20.4725 43.0774C20.6079 42.9052 19.2647 42.353 18.2943 42.1822C17.8872 42.1105 16.7918 42.0801 16.3726 42.1288Z" fill="#02C532"/>
</svg>
