<svg width="567" height="437" viewBox="0 0 567 437" fill="none" xmlns="http://www.w3.org/2000/svg">
<g clip-path="url(#clip0)">
<path d="M186.8 2.2998C178.4 7.3998 174.2 16.1998 172.9 31.9998C171.8 45.3998 172.4 54.5998 175.1 64.7998C176.1 68.7998 177 72.3998 177 72.8998C177 75.0998 172.2 74.6998 166.6 72.0998C155.4 66.8998 134.2 62.9998 115.6 62.8998C102.9 62.6998 96.7002 64.2998 93.5002 68.5998C92.4002 70.0998 88.7002 74.7998 85.3002 78.9998C74.7002 92.1998 64.5002 109.9 57.5002 127C49.2002 147.5 47.8002 166.5 54.1002 173.5C55.1002 174.6 56.6002 177.7 57.5002 180.5C61.1002 191.1 67.4002 193.3 69.5002 184.7C70.2002 182.1 70.4002 182 71.9002 183.5C74.3002 185.6 76.3002 185.4 78.6002 182.9C80.1002 181.2 80.6002 178.9 80.9002 171.3C81.2002 161.7 81.2002 161.7 82.8002 165C85.6002 170.8 94.0002 174.1 97.0002 170.5C97.9002 169.5 98.0002 167.8 97.5002 165.2C97.0002 163.2 96.6002 158.1 96.5002 154C96.5002 149.9 95.6002 143.7 94.6002 140.2C93.7002 136.8 93.2002 133.1 93.5002 132C94.8002 127.9 99.2002 124.1 108.6 118.9C113.8 116 119.5 112 121.2 110.1C126.3 104.2 126.4 104.2 134.3 111.8C142.1 119.4 149.4 123.5 164.5 129C176.8 133.5 181.8 136.9 186.5 144.3C192.2 153.1 202.6 163.8 208.3 166.7C214.2 169.6 226.8 173 232.1 173C234.2 173 238.4 174.2 241.3 175.6C246.1 178 246.9 178.8 248.5 183.4C251 190.3 255.2 198.6 258.8 203.6C261.1 206.7 262.8 207.9 265.5 208.4C270.5 209.4 272.6 208.5 273.8 204.7C274.6 202.3 274.8 202 274.9 203.7C275.1 208.2 276 209 280.9 208.9C283.4 208.8 286.6 208.5 288 208.1C291.4 207.2 298.7 197.8 304 187.8C307.8 180.5 309 179.1 313.8 176.2C318 173.8 320.4 173 324.2 173C331 173 342.7 170.2 347.5 167.5C352.7 164.5 360.2 157.2 366.8 148.9C371.5 142.8 372.5 142.1 378 140.6C381.3 139.7 389 138.2 395.2 137.4C401.4 136.6 408.3 135.5 410.5 134.9C416.6 133.2 425.7 128.3 430.3 124.1C434.8 120.1 439 117 440.1 117C440.5 117 442.2 119.4 443.8 122.2C445.5 125.1 449.7 130.6 453.2 134.5C456.8 138.3 460.3 142.6 461 143.9C462.5 146.8 462.5 153.1 461 156C459.9 158.1 456.9 174.5 456.8 178.9C456.7 183.8 462.7 185.6 466.7 181.8L469 179.7L468.9 185.9C468.7 194.6 471.5 197.1 476.9 193.3C479.3 191.7 479.3 191.7 478.7 193.9C478.3 195.4 478.8 196.8 480.1 198.1C481.9 199.9 484 199.8 486.8 197.7C488.4 196.4 493 187.6 493 185.8C493 185.1 493.9 183.9 495 183.2C498 181.3 501.2 174.2 501.7 168.1C502.5 158.2 500.4 144.4 496 131C490 112.7 477.7 90.5998 467.3 79.1998C461.9 73.3998 461.1 72.8998 455.5 71.8998C442.7 69.5998 420.7 72.6998 398.7 79.9998C386.4 84.0998 383.4 84.1998 384.4 80.5998C386.7 72.4998 389.1 53.7998 389.3 42.9998L389.4 30.4998L384.8 21.4998C375.5 3.3998 365.2 -1.90019 352.1 4.59981C343 9.09981 328.3 25.7998 321.4 39.1998L319 43.8998L313.4 41.9998C293.4 35.0998 269.1 34.7998 247.8 41.2998L243.2 42.7998L241.4 38.0998C237.6 28.0998 230.1 18.5998 218.6 9.3998C214.2 5.8998 208.6 2.3998 206.2 1.4998C199.4 -0.800201 191.3 -0.500198 186.8 2.2998ZM204.9 2.4998C217.6 6.9998 237.4 27.3998 241.2 40.0998C242.2 43.4998 242.7 43.9998 244.4 43.4998C261.2 38.5998 262.2 38.4998 280.5 38.5998C297.3 38.5998 299.1 38.7998 307.5 41.3998C312.5 42.9998 317.2 44.3998 318 44.6998C319 44.9998 320.6 43.0998 322.9 38.8998C327.4 30.5998 336.7 18.4998 342.9 12.6998C348.9 6.9998 357 2.9998 362.3 2.9998C370.7 2.9998 378.7 10.4998 384.9 24.2998C387.8 30.6998 388 31.9998 388 42.4998C388 54.7998 385.5 71.5998 381.5 86.7998C374.8 111.8 363.2 128.5 348.9 133.5C343.9 135.3 340 135.4 340 133.8C340 133.2 339.7 132.9 339.4 133.3C339.1 133.6 339.4 136.1 340.1 138.9C342 146.3 339.8 150.9 329.7 161.3C320 171.2 311.3 177.3 301.2 181.3C291.1 185.2 288.4 184.6 294.7 180C300 176.1 304.9 169.4 307.6 162.4C309.2 158.3 309.2 157.5 307.9 155.2C305.5 151 301.9 149.2 291.5 146.9C275.7 143.5 254.4 145.2 246.3 150.6C238.3 155.8 243.9 169.5 258.5 180.3C264.2 184.5 260.3 183.2 244.5 175.6C233.1 170.1 230.4 168.3 222.9 161.2C212.4 151.3 209.7 146.3 209.6 137L209.5 130.5L205.8 129.9C200.6 129.1 197.4 126.6 193.4 120.4C188.4 112.6 186.7 108.2 183.1 92.9998C181.3 85.5998 178.5 73.8998 176.8 67.0998C173.9 55.1998 173.8 53.8998 174.2 38.0998C174.6 21.9998 174.7 21.2998 177.8 14.9998C181.1 8.09981 183.6 5.09981 188.5 2.59981C192.3 0.599808 199.5 0.599808 204.9 2.4998ZM135 65.4998C149.5 67.4998 158.4 69.6998 165.6 73.0998C169 74.6998 173.2 75.9998 174.8 75.9998C177.6 75.9998 178 76.3998 178.6 79.6998C183.5 108.6 193.2 127.9 204.5 131.3L208.5 132.5L208.6 138.6C208.7 147.1 212.3 153.3 223 163.1L231.5 171H227.8C225.8 171 220.4 169.8 215.8 168.4C208.5 166.1 206.8 165.1 200.7 159.1C196.9 155.5 191.2 148.9 188.1 144.5C181.7 135.5 176.2 131.5 165.1 127.9C152.7 123.8 142.5 118.1 134.9 110.8C131 107.1 127.4 104 127 104C126.5 104 123.4 106.4 120.2 109.3C116.9 112.2 110.5 116.6 106 119C97.6002 123.5 93.5002 127.4 92.4002 131.6C92.0002 133 92.6002 137.1 93.6002 140.8C94.6002 144.7 95.3002 150.1 95.2002 153.5C95.0002 156.8 95.4002 161.4 96.1002 163.7C97.0002 167.1 97.0002 168.3 96.0002 169.5C92.4002 173.8 83.6002 167.7 82.4002 160.1C82.0002 157.9 81.4002 156 80.9002 156C79.8002 156 79.7002 158.8 80.0002 169.1C80.3002 181.1 76.7002 187.2 72.3002 182C69.9002 179.2 69.3002 179.5 68.6002 183.4C66.8002 193 60.3002 188.8 57.5002 176.2C57.2002 174.5 56.3002 173 55.6002 173C52.1002 173 50.0002 159.6 52.0002 149.8C54.8002 135.1 63.5002 114.3 73.9002 97.1998C78.1002 90.1998 85.2002 80.5998 94.5002 69.2998C95.6002 67.9998 98.3002 66.2998 100.5 65.4998C105.8 63.5998 121.6 63.5998 135 65.4998ZM455.2 73.0998C461.9 74.4998 462.8 75.1998 469.1 83.0998C479.5 96.0998 489.5 115 495.2 132.5C501.7 152.6 502.4 172.3 496.7 179.7C495.5 181.2 494.2 182.7 493.8 183C493.4 183.3 491.6 186.5 489.8 190C486.3 196.8 484.3 198.7 481.6 197.7C480.5 197.2 480 195.8 480 192.9V188.8L476.9 191.4C473.4 194.4 472.7 194.5 471 192.5C470.1 191.4 469.9 188.8 470.2 184C470.5 180.1 470.4 177 470 177C469.7 177 468.3 178.1 467 179.5C464.3 182.3 459.3 182.9 458.4 180.5C457.5 178.3 459.9 163.6 462.3 156.2C465 147.7 463.9 144.2 455.7 135.2C449.2 128.2 443 119.9 443 118.2C443 117.7 442.4 116.7 441.6 116.1C440.1 114.8 435 117.8 429 123.5C423.9 128.4 411.9 133.7 403 135C373.7 139.3 372.1 139.8 365.1 149C359 157 351.2 164.4 346.1 166.9C341.8 169.1 329.2 172 324.2 172H320.6L329.1 163.5C339.8 152.7 342.3 148.3 341.7 141.4L341.2 136.2L345 135.7C354.1 134.5 364.6 126.3 371.4 115.2C375 109.3 381.1 94.2998 382.4 88.1998C383 85.6998 383.7 84.9998 385.6 84.9998C387 84.9998 392.5 83.4998 397.8 81.5998C420.3 73.7998 442.8 70.4998 455.2 73.0998ZM293 148.4C303.6 150.8 306.4 152.7 306.8 157.4C307.5 165.2 297.5 178.7 288.2 182.7C285.8 183.8 281.6 184.4 276.5 184.4C266.4 184.5 261 182 252.6 173.5C246.2 167.1 244 163 244 157.8C244 153.3 244.8 152.4 250.4 149.9C259.6 145.9 278.7 145.2 293 148.4ZM258 183.1C263 185.2 264.9 185.4 279 185.3C292.2 185.2 295.3 184.9 300 183.1C303 182 305.6 181 305.8 181C306.4 181 300.4 192 297 197C291.3 205.3 289.2 206.8 282.8 207.6L277.1 208.3L276.4 204.6C276.1 202.5 276 199.3 276.3 197.4C276.9 193.9 275.5 192.5 274.7 195.7C274.4 196.7 273.7 199.6 273 202.2C271.7 207 271.7 207 267.4 207C263.7 207 262.7 206.5 260.2 203.4C257.1 199.6 253.4 192.7 250.1 184.2L248.1 179.1L250.3 179.9C251.5 180.4 255 181.8 258 183.1Z" fill="#020928"/>
<path d="M236.1 77.4C234.5 79.1 233.6 81.8 232.9 87.2C231.7 96 232.4 101.4 235 105.8C237.2 109.3 243.8 113 248 112.9C249.7 112.9 248.7 112.3 245.1 111.1C242.2 110.1 238.6 108 237.1 106.6C234.8 104.2 234.5 103.1 234.2 95.2C233.7 84.4 235.2 78.3 238.5 76.8C242.5 75 246.9 78.4 251.3 86.8C257.7 98.9 265.3 102.5 282.7 101.8C295.6 101.3 299.2 99.4 308.6 88.7C316.3 79.8 318.9 78.5 323.1 81.9C325.3 83.7 325.5 84.5 325.5 92.7C325.5 105.6 321.9 110.8 310.8 113.6L305.5 115L310.5 114.5C321.5 113.4 326.5 106.7 326.5 92.8C326.5 85 326.3 83.9 324.1 81.6C322.5 79.9 320.6 79 318.5 79C315.2 79 312.3 81.6 304.6 91.3C299.4 97.9 294.7 100 284.1 100.7C266.8 101.8 257.7 97.5 252 85.4C247.3 75.7 240.8 72.4 236.1 77.4Z" fill="#020928"/>
<path d="M535 241.6C519.4 245.8 509.8 258.3 511.3 272.5C512.1 280.3 515.3 285.4 526.2 296.7C537.5 308.3 539.6 312.1 538 318C536.9 322.2 532.4 326.6 528.3 327.6C524.2 328.7 514.6 327.4 510.2 325.1C507.9 323.9 505.8 323 505.6 323C505.3 323 503.7 325.7 502 329L499 335L503 337C517 344.1 536.6 343.3 547.4 335C559.5 325.8 563.4 309.2 556.4 297.3C554.9 294.7 549.1 287.8 543.4 282C531.8 269.9 530.3 266.6 533.7 260.8C537.3 254.4 546.9 252.3 557.4 255.4L562.1 256.8L563.9 252.7C567.3 244.8 567.3 244.4 564.3 243.1C556.3 239.9 543.8 239.2 535 241.6Z" fill="#020928"/>
<path d="M1.00006 243.2C0.900055 246.7 8.10006 336.2 8.60006 338.7C9.00006 340.8 9.60005 341 15.4001 341C19.6001 341 22.0001 340.6 22.3001 339.7C27.4001 327.3 49.4001 277.2 50.1001 276.5C50.6001 276 51.0001 277.1 51.1001 279.5C51.1001 281.7 52.1001 296.3 53.3001 312L55.5001 340.5L61.6001 340.8C65.7001 341 68.0001 340.7 68.7001 339.8C69.8 338.4 111 245.6 111.8 242.7C112.2 241.2 111.4 241 104.6 241H96.9L95.6001 244.2C94.8 246 89.1001 260.1 82.9 275.4C76.7001 290.8 71.5001 302.9 71.3 302.4C71.0001 301.3 67.0001 246.9 67.0001 243.4C67.0001 241.1 66.7001 241 60.2001 241H53.4001L40.6001 271.2C33.5001 287.9 27.4001 301.9 26.9001 302.4C26.4001 303 26.0001 301.6 26.0001 298.9C26.0001 295.8 23.3001 243.7 23.0001 241.2C23.0001 241.1 18.1001 241 12.0001 241C1.30006 241 1.00006 241.1 1.00006 243.2Z" fill="#020928"/>
<path d="M126.5 243.2C125.9 245.7 107 340.2 107 340.7C107 340.9 119.8 341 135.4 341H163.7L165.2 333.5L166.7 326H150H133.3L136.3 311L139.3 296H153.5H167.7L168.9 290.3C169.5 287.2 170 284.1 170 283.3C170 282.3 167 282 155.9 282C143 282 141.9 281.9 142.4 280.2C142.7 279.3 143.9 273.4 145.1 267.3L147.3 256L162.8 255.8L178.4 255.5L179.7 249.5C180.4 246.2 180.9 242.9 181 242.2C181 241.3 175 241 154 241H127L126.5 243.2Z" fill="#020928"/>
<path d="M188.6 242.7C188.4 243.7 187.9 246.1 187.5 248C187.1 249.9 186.6 252.3 186.4 253.2C185.9 254.8 186.9 255 198.4 255C205.3 255 211 255.1 211 255.3C211 255.4 207.2 274.7 202.5 298C197.8 321.3 194 340.6 194 340.7C194 340.9 199.3 340.9 205.8 340.8L217.5 340.5L226.1 298L234.6 255.5L247.1 255.2L259.6 254.9L260.8 249.2C261.5 246 262 242.8 262 242.2C262 241.3 253.1 241 225.6 241C191.7 241 189.1 241.1 188.6 242.7Z" fill="#020928"/>
<path d="M274.1 246.2C264.8 292.5 256 338 256 339.3C256 340.8 257.3 341 266.5 341C276.5 341 277.1 340.9 277.9 338.7C278.3 337.5 280.4 327.8 282.5 317.2C286.3 298.1 286.3 298 288.9 298C291.4 298 291.9 299.1 299.5 319.3L307.5 340.5L328.2 340.8L349 341L355.2 328.5L361.5 316H375.6H389.7L390.9 325.2C391.5 330.3 392.3 336 392.6 337.7L393.2 341H404.1C413 341 415 340.7 415 339.5C415 338.3 399.8 250.8 398.4 243.7C397.8 240.9 397.7 240.9 391.2 241.2L384.6 241.5L358.5 290.2C344.2 317 332.2 339 331.9 339C331.2 339 312 294.8 312 293.2C312 292.7 313.2 291.9 314.8 291.5C322.9 289.5 331.9 280.4 334.6 271.2C337.3 262.3 336.1 254.9 331.2 249.7C324.8 242.9 315.6 241 289.8 241H275.1L274.1 246.2ZM305.2 255C307.3 255.6 309.6 257.1 310.5 258.3C312.4 261 312.4 267.3 310.5 273.6C307.9 282 303.7 285.4 294.8 286.4C290.3 286.9 289 286.7 289 285.7C289 284.9 290.4 277.6 292 269.5C293.7 261.4 295 254.5 295 254.3C295 253.6 301.7 254.1 305.2 255ZM385.4 286.7C386.4 293.8 387.4 300.5 387.7 301.7C388.2 304 388.1 304 378.1 304C372.5 304 368 303.8 368 303.5C368 302.4 382.5 274 383.1 274C383.4 274 384.5 279.7 385.4 286.7Z" fill="#020928"/>
<path d="M436.5 242.2C436.1 243.6 434 253.8 434 254.5C434 254.8 439.6 255 446.5 255C459 255 459 255 458.5 257.2C457.5 261.4 442 339.4 442 340.2C442 340.7 447.3 340.9 453.7 340.8L465.4 340.5L473.9 297.8L482.5 255.1L494.9 254.8L507.4 254.5L508.6 249C509.3 246 509.9 242.9 510 242.2C510 240.4 437.1 240.4 436.5 242.2Z" fill="#020928"/>
<path d="M380 362.3C380 362.5 377.5 374.9 374.5 390C371.5 405.1 369 418 369 418.7C369 419.5 370.3 420 372.4 420H375.7L381.4 391.8C384.5 376.2 387 363.2 387 362.7C387 362.3 385.4 362 383.5 362C381.6 362 380 362.1 380 362.3Z" fill="#020928"/>
<path d="M7.2 392.7C4.3 406.9 2 418.9 2 419.3C2 419.8 3.2 420 4.7 419.8C7.4 419.5 7.5 419.3 11 401.5C13 391.6 14.9 382.9 15.1 382.1C15.4 381.3 19.4 389.4 24.1 400.1C31.9 417.9 32.8 419.5 35.2 419.8C37.4 420.1 38 419.6 38.5 417.8C40.1 411 48 370.4 48 368.8C48 367.5 47.2 367 45.5 367C44.1 367 43 367.1 43 367.3C43 367.8 36.1 402.2 35.4 404.9C35 406.9 33 403.1 26.2 387.4C18.3 369.4 17.2 367.5 14.9 367.2L12.3 366.9L7.2 392.7Z" fill="#020928"/>
<path d="M298.5 369.1C298.2 370.4 295.8 382.4 293.1 395.7L288.3 420H292.1C294.8 420 296 419.5 296.4 418.2C297 416.2 301 397.3 301 396.5C301 396.2 304.2 396 308 396C319.7 396 326 392.2 328.5 383.8C329.6 379.8 329.7 378.2 328.7 375.3C326.8 369.4 322.6 367.6 309.8 367.2C299.2 366.8 299.1 366.8 298.5 369.1ZM319.4 374.2C322.7 378.8 320.1 387.8 314.9 390.5C311.9 392.1 302 392.6 302 391.1C302 390 305 375 305.5 373.2C305.8 372.4 308 372 311.9 372C317 372 318.1 372.3 319.4 374.2Z" fill="#020928"/>
<path d="M442 367.3C442 367.5 440.4 375.5 438.5 385C434.6 404.2 434.3 409.7 436.6 414.1C441.2 423.2 459.3 423 466.3 413.9C469.9 409.1 470.5 407.1 474.5 387.9C478.7 367.3 478.8 367 475.5 367C474.1 367 473 367.1 473 367.3C473 369.6 465.6 403.6 464.4 406.7C462.2 412.7 458 416 452.4 416C449 416 447.3 415.4 445.5 413.5C442.1 410.2 442.2 406.1 446.5 385C448.4 375.5 450 367.5 450 367.3C450 367.1 448.2 367 446 367C443.8 367 442 367.1 442 367.3Z" fill="#020928"/>
<path d="M494 368.9C487.4 372.4 484.4 379.7 486.9 386.3C487.4 387.6 491 392.1 494.9 396.3C503.2 405.3 503.9 408.2 499.1 413.1C496.7 415.4 495.3 416 491.7 416C489.3 416 485.8 415.5 484 414.9C481.4 414 480.6 414 479.9 415.1C478.5 417.4 478.8 417.8 483.5 419.6C495.7 424.2 509 416.9 509 405.5C509 400.6 507.2 397.5 500.1 390.6C496.8 387.3 493.8 383.5 493.5 382C491.7 373.9 499.8 369.4 510.9 372.1C512.8 372.6 513.6 369 511.8 367.9C509.3 366.3 497.7 366.9 494 368.9Z" fill="#020928"/>
<path d="M521.2 392.6C518.3 406.9 516 418.8 516 419.2C516 419.7 517.7 420 519.8 420H523.7L526.1 408.2L528.5 396.5L536.5 395.9C545.3 395.3 549.4 393.6 553.3 389C556.6 385.2 557.9 377.6 555.9 374.1C552.9 368.8 549.9 367.7 537.7 367.2L526.3 366.8L521.2 392.6ZM545.7 372.8C549 374.9 549 382.4 545.5 387.6C543.5 390.7 540.2 392 534.1 392H529.3L531.3 382L533.3 372H538.9C542 372 545 372.4 545.7 372.8Z" fill="#020928"/>
<path d="M103.5 371.2C103.3 371.9 102.8 374.3 102.3 376.5C101.5 380.1 101.1 380.5 98.2 380.8C95.8 381 95 381.6 95 383.1C95 384.5 95.7 385 97.5 385C98.9 385 100 385.6 100 386.4C100 387.1 98.9 393.2 97.5 400C96.1 406.8 95 413.5 95 415.1C95 420.2 100.8 422.3 107.8 419.9C110.4 419 110.8 418.5 110.1 417.1C109.4 415.8 108.2 415.5 105.5 415.8L101.8 416.2L102.5 411.9C102.9 409.5 104.2 402.5 105.4 396.5L107.6 385.5L111 385.2C114.2 384.9 115.9 383.7 116 381.7C116 381.3 114.4 381 112.5 381C108.6 381 108.4 380.3 109.9 373.7L110.8 370H107.4C105.5 370 103.8 370.6 103.5 371.2Z" fill="#020928"/>
<path d="M68.4 381.4C60.4 384.9 53.9 394.4 51.9 405.6C51 410.6 51.1 412.4 52.4 415.3C55.5 422.9 63.3 422.8 70 415.2L74.2 410.5L73.5 415.2L72.8 420H75.9C78.3 420 79.1 419.5 79.5 417.7C79.8 416.5 81.3 409 83 401C84.7 393 86.2 385.5 86.5 384.3C86.9 382.6 86.3 382 83.8 381.1C79.6 379.6 72.2 379.8 68.4 381.4ZM78.5 387.2C75.4 401.6 69.1 414.4 64.5 415.6C58.7 417 57.4 410.9 61.2 399.3C64.2 390.3 70 384 75.4 384C79.1 384 79.2 384 78.5 387.2Z" fill="#020928"/>
<path d="M132.3 382.1C123.7 386.3 117.9 396.4 117.2 408.2C116.8 415.4 116.9 416 119.3 418.4C121.2 420.3 123 421 125.6 421C128.9 421 130.1 420.2 134.5 415.7L139.7 410.3L138.9 413.9C137.6 419.6 137.7 420 141.3 420H144.6L148 402.7C149.8 393.3 151.5 384.8 151.8 383.9C152.8 379.9 139.2 378.7 132.3 382.1ZM143.5 387.7C142.1 395.4 137.5 407.5 134.5 411.4C128.2 419.7 122.6 416.4 124.8 405.6C127.4 392.5 133.7 384 140.6 384H144.2L143.5 387.7Z" fill="#020928"/>
<path d="M172.3 382.1C167.1 384.7 162.5 390.3 159.4 397.8C155.1 408.1 157.2 417.8 164.1 420.2C166.8 421.1 167 421.4 165.6 422.9C164.8 423.8 164.4 425.6 164.7 427C165 428.8 164.4 430.2 162.6 431.9C161.2 433.3 160 434.7 160 435.2C160 437 162.2 435.8 166.6 431.8C170.6 428.1 171.1 427.2 170.7 424.5C170.2 421.6 170.5 421.3 174.8 419.7C181.2 417.4 182.2 416.6 181.4 414.6C181 413.5 180.2 413.1 179.1 413.6C171.1 417 168 417 165.8 413.6C162.9 409.3 167.1 395 173.1 388.6C176.5 384.8 177.3 384.5 181.9 384.5C185.4 384.5 187.2 384 187.5 383.1C188.9 379.5 178.8 378.8 172.3 382.1Z" fill="#020928"/>
<path d="M202.4 382.9C194.2 387.6 188 399.2 188 409.7C188 414.6 190.1 419.4 192.5 420.4C197.6 422.3 204.4 419.3 208 413.4C210.4 409.7 211.4 409 210.6 411.7C210.4 412.7 209.9 415 209.5 416.7C208.9 419.9 208.9 420 212.3 420H215.7L219.4 401.7C221.4 391.7 223 383.2 223 382.8C223 381.6 216.7 380 212.1 380C208.9 380 206 380.9 202.4 382.9ZM215 385.7C215 388.2 210 404 208 408C204 415.7 197.3 418.5 196 413C194.4 406.2 198.9 392.7 204.6 387.3C208.6 383.5 215 382.5 215 385.7Z" fill="#020928"/>
<path d="M242.5 381.5C237.9 384 235 387 232.2 392.5C230 396.7 229.6 398.8 229.5 405.7C229.5 413.4 229.7 414 232.4 416.9C237.7 422.5 246.5 422.2 253 416.4C262.8 407.5 265.7 389.8 258.5 383C255.3 379.9 246.9 379.2 242.5 381.5ZM253.6 386.5C256.8 391.5 253.1 408.3 247.5 414.4C244.2 417.9 239.2 417.7 237.2 414C234.4 408.6 238.2 392.6 243.7 386.8C247.2 383.2 251.3 383 253.6 386.5Z" fill="#020928"/>
<path d="M343.5 381.4C333.2 385.9 326.2 405 331.3 414.7C335.9 423.4 349.5 422.8 356.5 413.6C362.4 405.8 364.8 392.5 361.5 386C358.7 380.5 350.4 378.4 343.5 381.4ZM354.6 386.5C357.7 391.2 354.3 406.7 348.8 413.4C345.1 417.9 340.9 418.3 338.4 414.5C334.9 409.2 338.6 393.2 344.7 386.7C348.2 383.2 352.3 383.1 354.6 386.5Z" fill="#020928"/>
<path d="M396.1 386.2C395.5 389.1 393.7 397.9 392.1 405.7L389.3 420H392.9H396.6L399.9 403.2C401.7 394 403.4 385.3 403.7 383.7C404.2 381.2 404 381 400.7 381C397.2 381 397.1 381.1 396.1 386.2Z" fill="#020928"/>
</g>
<defs>
<clipPath id="clip0">
<rect width="567" height="437" fill="white"/>
</clipPath>
</defs>
</svg>
